  0
SECTION
  2
HEADER
  9
$ACADVER
  1
AC1009
  9
$EXTMIN
 10
0.0
 20
0.0
 30
0.0
  9
$EXTMAX
 10
1000.0
 20
1000.0
 30
0.0
  9
$FILLMODE
 70
 0
  9
$SPLFRAME
 70
 1
  0
ENDSEC
  0
SECTION
  2
TABLES
  0
TABLE
  2
LAYER
 70
1
  0
LAYER
  2
0
 70
     0
 62
     7
  6
CONTINUOUS
  0
ENDTAB
  0
ENDSEC
  0
SECTION
  2
ENTITIES
  0
LINE
  8
0
 62
     0
 10
68.7917
 20
177.271
 30
0.0
 11
68.7917
 21
177.162
 31
0.0
  0
LINE
  8
0
 62
     0
 10
68.7917
 20
177.162
 30
0.0
 11
68.7532
 21
176.836
 31
0.0
  0
LINE
  8
0
 62
     0
 10
68.7532
 20
176.836
 30
0.0
 11
68.6153
 21
176.565
 31
0.0
  0
LINE
  8
0
 62
     0
 10
68.6153
 20
176.565
 30
0.0
 11
68.345
 21
176.427
 31
0.0
  0
LINE
  8
0
 62
     0
 10
68.345
 20
176.427
 30
0.0
 11
68.0187
 21
176.389
 31
0.0
  0
LINE
  8
0
 62
     0
 10
68.0187
 20
176.389
 30
0.0
 11
67.9097
 21
176.389
 31
0.0
  0
LINE
  8
0
 62
     0
 10
67.9097
 20
176.389
 30
0.0
 11
67.7884
 21
176.389
 31
0.0
  0
LINE
  8
0
 62
     0
 10
67.7884
 20
176.389
 30
0.0
 11
67.4289
 21
176.348
 31
0.0
  0
LINE
  8
0
 62
     0
 10
67.4289
 20
176.348
 30
0.0
 11
67.1643
 21
176.13
 31
0.0
  0
LINE
  8
0
 62
     0
 10
67.1643
 20
176.13
 30
0.0
 11
67.0511
 21
175.601
 31
0.0
  0
LINE
  8
0
 62
     0
 10
67.0511
 20
175.601
 30
0.0
 11
67.0278
 21
174.869
 31
0.0
  0
LINE
  8
0
 62
     0
 10
67.0278
 20
174.869
 30
0.0
 11
67.0278
 21
174.625
 31
0.0
  0
LINE
  8
0
 62
     0
 10
67.0278
 20
174.625
 30
0.0
 11
67.0278
 21
174.383
 31
0.0
  0
LINE
  8
0
 62
     0
 10
67.0278
 20
174.383
 30
0.0
 11
67.0031
 21
173.651
 31
0.0
  0
LINE
  8
0
 62
     0
 10
67.0031
 20
173.651
 30
0.0
 11
66.8898
 21
173.121
 31
0.0
  0
LINE
  8
0
 62
     0
 10
66.8898
 20
173.121
 30
0.0
 11
66.6253
 21
172.904
 31
0.0
  0
LINE
  8
0
 62
     0
 10
66.6253
 20
172.904
 30
0.0
 11
66.2658
 21
172.861
 31
0.0
  0
LINE
  8
0
 62
     0
 10
66.2658
 20
172.861
 30
0.0
 11
66.1458
 21
172.861
 31
0.0
  0
LINE
  8
0
 62
     0
 10
66.1458
 20
172.861
 30
0.0
 11
66.0245
 21
172.861
 31
0.0
  0
LINE
  8
0
 62
     0
 10
66.0245
 20
172.861
 30
0.0
 11
65.665
 21
172.82
 31
0.0
  0
LINE
  8
0
 62
     0
 10
65.665
 20
172.82
 30
0.0
 11
65.4004
 21
172.602
 31
0.0
  0
LINE
  8
0
 62
     0
 10
65.4004
 20
172.602
 30
0.0
 11
65.2872
 21
172.073
 31
0.0
  0
LINE
  8
0
 62
     0
 10
65.2872
 20
172.073
 30
0.0
 11
65.2639
 21
171.341
 31
0.0
  0
LINE
  8
0
 62
     0
 10
65.2639
 20
171.341
 30
0.0
 11
65.2639
 21
171.097
 31
0.0
  0
LINE
  8
0
 62
     0
 10
65.2639
 20
171.097
 30
0.0
 11
65.2639
 21
170.855
 31
0.0
  0
LINE
  8
0
 62
     0
 10
65.2639
 20
170.855
 30
0.0
 11
65.2392
 21
170.123
 31
0.0
  0
LINE
  8
0
 62
     0
 10
65.2392
 20
170.123
 30
0.0
 11
65.126
 21
169.594
 31
0.0
  0
LINE
  8
0
 62
     0
 10
65.126
 20
169.594
 30
0.0
 11
64.8614
 21
169.376
 31
0.0
  0
LINE
  8
0
 62
     0
 10
64.8614
 20
169.376
 30
0.0
 11
64.5019
 21
169.333
 31
0.0
  0
LINE
  8
0
 62
     0
 10
64.5019
 20
169.333
 30
0.0
 11
64.3819
 21
169.333
 31
0.0
  0
LINE
  8
0
 62
     0
 10
64.3819
 20
169.333
 30
0.0
 11
63.5
 21
169.333
 31
0.0
  0
LINE
  8
0
 62
     0
 10
63.5
 20
169.333
 30
0.0
 11
63.5
 21
162.278
 31
0.0
  0
LINE
  8
0
 62
     0
 10
63.5
 20
162.278
 30
0.0
 11
61.7361
 21
162.278
 31
0.0
  0
LINE
  8
0
 62
     0
 10
61.7361
 20
162.278
 30
0.0
 11
61.7361
 21
155.222
 31
0.0
  0
LINE
  8
0
 62
     0
 10
61.7361
 20
155.222
 30
0.0
 11
59.9722
 21
155.222
 31
0.0
  0
LINE
  8
0
 62
     0
 10
59.9722
 20
155.222
 30
0.0
 11
59.9722
 21
148.167
 31
0.0
  0
LINE
  8
0
 62
     0
 10
59.9722
 20
148.167
 30
0.0
 11
58.2083
 21
148.167
 31
0.0
  0
LINE
  8
0
 62
     0
 10
58.2083
 20
148.167
 30
0.0
 11
58.2083
 21
141.111
 31
0.0
  0
LINE
  8
0
 62
     0
 10
58.2083
 20
141.111
 30
0.0
 11
57.3264
 21
141.111
 31
0.0
  0
LINE
  8
0
 62
     0
 10
57.3264
 20
141.111
 30
0.0
 11
57.2022
 21
141.111
 31
0.0
  0
LINE
  8
0
 62
     0
 10
57.2022
 20
141.111
 30
0.0
 11
56.8304
 21
141.06
 31
0.0
  0
LINE
  8
0
 62
     0
 10
56.8304
 20
141.06
 30
0.0
 11
56.5672
 21
140.754
 31
0.0
  0
LINE
  8
0
 62
     0
 10
56.5672
 20
140.754
 30
0.0
 11
56.4624
 21
139.966
 31
0.0
  0
LINE
  8
0
 62
     0
 10
56.4624
 20
139.966
 30
0.0
 11
56.4444
 21
138.841
 31
0.0
  0
LINE
  8
0
 62
     0
 10
56.4444
 20
138.841
 30
0.0
 11
56.4444
 21
138.465
 31
0.0
  0
LINE
  8
0
 62
     0
 10
56.4444
 20
138.465
 30
0.0
 11
56.4444
 21
138.091
 31
0.0
  0
LINE
  8
0
 62
     0
 10
56.4444
 20
138.091
 30
0.0
 11
56.425
 21
136.966
 31
0.0
  0
LINE
  8
0
 62
     0
 10
56.425
 20
136.966
 30
0.0
 11
56.3203
 21
136.178
 31
0.0
  0
LINE
  8
0
 62
     0
 10
56.3203
 20
136.178
 30
0.0
 11
56.0571
 21
135.872
 31
0.0
  0
LINE
  8
0
 62
     0
 10
56.0571
 20
135.872
 30
0.0
 11
55.6853
 21
135.819
 31
0.0
  0
LINE
  8
0
 62
     0
 10
55.6853
 20
135.819
 30
0.0
 11
55.5625
 21
135.819
 31
0.0
  0
LINE
  8
0
 62
     0
 10
55.5625
 20
135.819
 30
0.0
 11
54.6806
 21
135.819
 31
0.0
  0
LINE
  8
0
 62
     0
 10
54.6806
 20
135.819
 30
0.0
 11
54.6806
 21
128.764
 31
0.0
  0
LINE
  8
0
 62
     0
 10
54.6806
 20
128.764
 30
0.0
 11
52.9167
 21
128.764
 31
0.0
  0
LINE
  8
0
 62
     0
 10
52.9167
 20
128.764
 30
0.0
 11
52.9167
 21
121.708
 31
0.0
  0
LINE
  8
0
 62
     0
 10
52.9167
 20
121.708
 30
0.0
 11
51.1528
 21
121.708
 31
0.0
  0
LINE
  8
0
 62
     0
 10
51.1528
 20
121.708
 30
0.0
 11
51.1528
 21
114.653
 31
0.0
  0
LINE
  8
0
 62
     0
 10
51.1528
 20
114.653
 30
0.0
 11
49.3889
 21
114.653
 31
0.0
  0
LINE
  8
0
 62
     0
 10
49.3889
 20
114.653
 30
0.0
 11
49.3889
 21
107.597
 31
0.0
  0
LINE
  8
0
 62
     0
 10
49.3889
 20
107.597
 30
0.0
 11
47.625
 21
107.597
 31
0.0
  0
LINE
  8
0
 62
     0
 10
47.625
 20
107.597
 30
0.0
 11
47.625
 21
100.542
 31
0.0
  0
LINE
  8
0
 62
     0
 10
47.625
 20
100.542
 30
0.0
 11
46.7431
 21
100.542
 31
0.0
  0
LINE
  8
0
 62
     0
 10
46.7431
 20
100.542
 30
0.0
 11
46.6189
 21
100.542
 31
0.0
  0
LINE
  8
0
 62
     0
 10
46.6189
 20
100.542
 30
0.0
 11
46.247
 21
100.491
 31
0.0
  0
LINE
  8
0
 62
     0
 10
46.247
 20
100.491
 30
0.0
 11
45.9839
 21
100.185
 31
0.0
  0
LINE
  8
0
 62
     0
 10
45.9839
 20
100.185
 30
0.0
 11
45.8791
 21
99.3965
 31
0.0
  0
LINE
  8
0
 62
     0
 10
45.8791
 20
99.3965
 30
0.0
 11
45.8611
 21
98.2719
 31
0.0
  0
LINE
  8
0
 62
     0
 10
45.8611
 20
98.2719
 30
0.0
 11
45.8611
 21
97.8958
 31
0.0
  0
LINE
  8
0
 62
     0
 10
45.8611
 20
97.8958
 30
0.0
 11
45.8611
 21
97.5212
 31
0.0
  0
LINE
  8
0
 62
     0
 10
45.8611
 20
97.5212
 30
0.0
 11
45.8791
 21
96.3965
 31
0.0
  0
LINE
  8
0
 62
     0
 10
45.8791
 20
96.3965
 30
0.0
 11
45.9839
 21
95.6084
 31
0.0
  0
LINE
  8
0
 62
     0
 10
45.9839
 20
95.6084
 30
0.0
 11
46.247
 21
95.3022
 31
0.0
  0
LINE
  8
0
 62
     0
 10
46.247
 20
95.3022
 30
0.0
 11
46.6189
 21
95.25
 31
0.0
  0
LINE
  8
0
 62
     0
 10
46.6189
 20
95.25
 30
0.0
 11
46.7431
 21
95.25
 31
0.0
  0
LINE
  8
0
 62
     0
 10
46.7431
 20
95.25
 30
0.0
 11
46.8658
 21
95.25
 31
0.0
  0
LINE
  8
0
 62
     0
 10
46.8658
 20
95.25
 30
0.0
 11
47.2376
 21
95.1989
 31
0.0
  0
LINE
  8
0
 62
     0
 10
47.2376
 20
95.1989
 30
0.0
 11
47.5008
 21
94.893
 31
0.0
  0
LINE
  8
0
 62
     0
 10
47.5008
 20
94.893
 30
0.0
 11
47.6056
 21
94.1049
 31
0.0
  0
LINE
  8
0
 62
     0
 10
47.6056
 20
94.1049
 30
0.0
 11
47.625
 21
92.9802
 31
0.0
  0
LINE
  8
0
 62
     0
 10
47.625
 20
92.9802
 30
0.0
 11
47.625
 21
92.6042
 31
0.0
  0
LINE
  8
0
 62
     0
 10
47.625
 20
92.6042
 30
0.0
 11
47.625
 21
92.2295
 31
0.0
  0
LINE
  8
0
 62
     0
 10
47.625
 20
92.2295
 30
0.0
 11
47.643
 21
91.1049
 31
0.0
  0
LINE
  8
0
 62
     0
 10
47.643
 20
91.1049
 30
0.0
 11
47.7478
 21
90.3168
 31
0.0
  0
LINE
  8
0
 62
     0
 10
47.7478
 20
90.3168
 30
0.0
 11
48.0109
 21
90.0105
 31
0.0
  0
LINE
  8
0
 62
     0
 10
48.0109
 20
90.0105
 30
0.0
 11
48.3828
 21
89.9583
 31
0.0
  0
LINE
  8
0
 62
     0
 10
48.3828
 20
89.9583
 30
0.0
 11
48.5069
 21
89.9583
 31
0.0
  0
LINE
  8
0
 62
     0
 10
48.5069
 20
89.9583
 30
0.0
 11
48.616
 21
89.9583
 31
0.0
  0
LINE
  8
0
 62
     0
 10
48.616
 20
89.9583
 30
0.0
 11
48.9423
 21
89.9199
 31
0.0
  0
LINE
  8
0
 62
     0
 10
48.9423
 20
89.9199
 30
0.0
 11
49.2125
 21
89.7819
 31
0.0
  0
LINE
  8
0
 62
     0
 10
49.2125
 20
89.7819
 30
0.0
 11
49.3504
 21
89.5117
 31
0.0
  0
LINE
  8
0
 62
     0
 10
49.3504
 20
89.5117
 30
0.0
 11
49.3889
 21
89.1854
 31
0.0
  0
LINE
  8
0
 62
     0
 10
49.3889
 20
89.1854
 30
0.0
 11
49.3889
 21
89.0764
 31
0.0
  0
LINE
  8
0
 62
     0
 10
49.3889
 20
89.0764
 30
0.0
 11
49.3889
 21
88.9674
 31
0.0
  0
LINE
  8
0
 62
     0
 10
49.3889
 20
88.9674
 30
0.0
 11
49.4273
 21
88.6411
 31
0.0
  0
LINE
  8
0
 62
     0
 10
49.4273
 20
88.6411
 30
0.0
 11
49.5653
 21
88.3708
 31
0.0
  0
LINE
  8
0
 62
     0
 10
49.5653
 20
88.3708
 30
0.0
 11
49.8355
 21
88.2329
 31
0.0
  0
LINE
  8
0
 62
     0
 10
49.8355
 20
88.2329
 30
0.0
 11
50.1618
 21
88.1944
 31
0.0
  0
LINE
  8
0
 62
     0
 10
50.1618
 20
88.1944
 30
0.0
 11
50.2708
 21
88.1944
 31
0.0
  0
LINE
  8
0
 62
     0
 10
50.2708
 20
88.1944
 30
0.0
 11
50.3798
 21
88.1944
 31
0.0
  0
LINE
  8
0
 62
     0
 10
50.3798
 20
88.1944
 30
0.0
 11
50.7062
 21
88.156
 31
0.0
  0
LINE
  8
0
 62
     0
 10
50.7062
 20
88.156
 30
0.0
 11
50.9764
 21
88.0181
 31
0.0
  0
LINE
  8
0
 62
     0
 10
50.9764
 20
88.0181
 30
0.0
 11
51.1143
 21
87.7478
 31
0.0
  0
LINE
  8
0
 62
     0
 10
51.1143
 20
87.7478
 30
0.0
 11
51.1528
 21
87.4215
 31
0.0
  0
LINE
  8
0
 62
     0
 10
51.1528
 20
87.4215
 30
0.0
 11
51.1528
 21
87.3125
 31
0.0
  0
LINE
  8
0
 62
     0
 10
51.1528
 20
87.3125
 30
0.0
 11
51.1528
 21
87.1926
 31
0.0
  0
LINE
  8
0
 62
     0
 10
51.1528
 20
87.1926
 30
0.0
 11
51.1941
 21
86.8331
 31
0.0
  0
LINE
  8
0
 62
     0
 10
51.1941
 20
86.8331
 30
0.0
 11
51.4117
 21
86.5685
 31
0.0
  0
LINE
  8
0
 62
     0
 10
51.4117
 20
86.5685
 30
0.0
 11
51.9409
 21
86.4553
 31
0.0
  0
LINE
  8
0
 62
     0
 10
51.9409
 20
86.4553
 30
0.0
 11
52.6729
 21
86.4306
 31
0.0
  0
LINE
  8
0
 62
     0
 10
52.6729
 20
86.4306
 30
0.0
 11
52.9167
 21
86.4306
 31
0.0
  0
LINE
  8
0
 62
     0
 10
52.9167
 20
86.4306
 30
0.0
 11
54.6806
 21
86.4306
 31
0.0
  0
LINE
  8
0
 62
     0
 10
54.6806
 20
86.4306
 30
0.0
 11
54.6806
 21
84.6667
 31
0.0
  0
LINE
  8
0
 62
     0
 10
54.6806
 20
84.6667
 30
0.0
 11
54.6806
 21
84.4243
 31
0.0
  0
LINE
  8
0
 62
     0
 10
54.6806
 20
84.4243
 30
0.0
 11
54.7038
 21
83.6923
 31
0.0
  0
LINE
  8
0
 62
     0
 10
54.7038
 20
83.6923
 30
0.0
 11
54.8171
 21
83.1631
 31
0.0
  0
LINE
  8
0
 62
     0
 10
54.8171
 20
83.1631
 30
0.0
 11
55.0817
 21
82.9455
 31
0.0
  0
LINE
  8
0
 62
     0
 10
55.0817
 20
82.9455
 30
0.0
 11
55.4411
 21
82.9028
 31
0.0
  0
LINE
  8
0
 62
     0
 10
55.4411
 20
82.9028
 30
0.0
 11
55.5625
 21
82.9028
 31
0.0
  0
LINE
  8
0
 62
     0
 10
55.5625
 20
82.9028
 30
0.0
 11
55.6824
 21
82.9028
 31
0.0
  0
LINE
  8
0
 62
     0
 10
55.6824
 20
82.9028
 30
0.0
 11
56.0419
 21
82.8615
 31
0.0
  0
LINE
  8
0
 62
     0
 10
56.0419
 20
82.8615
 30
0.0
 11
56.3065
 21
82.6438
 31
0.0
  0
LINE
  8
0
 62
     0
 10
56.3065
 20
82.6438
 30
0.0
 11
56.4197
 21
82.1147
 31
0.0
  0
LINE
  8
0
 62
     0
 10
56.4197
 20
82.1147
 30
0.0
 11
56.4444
 21
81.3827
 31
0.0
  0
LINE
  8
0
 62
     0
 10
56.4444
 20
81.3827
 30
0.0
 11
56.4444
 21
81.1389
 31
0.0
  0
LINE
  8
0
 62
     0
 10
56.4444
 20
81.1389
 30
0.0
 11
56.4444
 21
80.8965
 31
0.0
  0
LINE
  8
0
 62
     0
 10
56.4444
 20
80.8965
 30
0.0
 11
56.4677
 21
80.1645
 31
0.0
  0
LINE
  8
0
 62
     0
 10
56.4677
 20
80.1645
 30
0.0
 11
56.581
 21
79.6354
 31
0.0
  0
LINE
  8
0
 62
     0
 10
56.581
 20
79.6354
 30
0.0
 11
56.8456
 21
79.4177
 31
0.0
  0
LINE
  8
0
 62
     0
 10
56.8456
 20
79.4177
 30
0.0
 11
57.205
 21
79.375
 31
0.0
  0
LINE
  8
0
 62
     0
 10
57.205
 20
79.375
 30
0.0
 11
57.3264
 21
79.375
 31
0.0
  0
LINE
  8
0
 62
     0
 10
57.3264
 20
79.375
 30
0.0
 11
58.2083
 21
79.375
 31
0.0
  0
LINE
  8
0
 62
     0
 10
58.2083
 20
79.375
 30
0.0
 11
58.2083
 21
72.3194
 31
0.0
  0
LINE
  8
0
 62
     0
 10
58.2083
 20
72.3194
 30
0.0
 11
57.3264
 21
72.3194
 31
0.0
  0
LINE
  8
0
 62
     0
 10
57.3264
 20
72.3194
 30
0.0
 11
57.205
 21
72.3194
 31
0.0
  0
LINE
  8
0
 62
     0
 10
57.205
 20
72.3194
 30
0.0
 11
56.8456
 21
72.2782
 31
0.0
  0
LINE
  8
0
 62
     0
 10
56.8456
 20
72.2782
 30
0.0
 11
56.581
 21
72.0605
 31
0.0
  0
LINE
  8
0
 62
     0
 10
56.581
 20
72.0605
 30
0.0
 11
56.4677
 21
71.5313
 31
0.0
  0
LINE
  8
0
 62
     0
 10
56.4677
 20
71.5313
 30
0.0
 11
56.4444
 21
70.7993
 31
0.0
  0
LINE
  8
0
 62
     0
 10
56.4444
 20
70.7993
 30
0.0
 11
56.4444
 21
70.5556
 31
0.0
  0
LINE
  8
0
 62
     0
 10
56.4444
 20
70.5556
 30
0.0
 11
56.4444
 21
70.3132
 31
0.0
  0
LINE
  8
0
 62
     0
 10
56.4444
 20
70.3132
 30
0.0
 11
56.4197
 21
69.5812
 31
0.0
  0
LINE
  8
0
 62
     0
 10
56.4197
 20
69.5812
 30
0.0
 11
56.3065
 21
69.052
 31
0.0
  0
LINE
  8
0
 62
     0
 10
56.3065
 20
69.052
 30
0.0
 11
56.0419
 21
68.8344
 31
0.0
  0
LINE
  8
0
 62
     0
 10
56.0419
 20
68.8344
 30
0.0
 11
55.6824
 21
68.7917
 31
0.0
  0
LINE
  8
0
 62
     0
 10
55.6824
 20
68.7917
 30
0.0
 11
55.5625
 21
68.7917
 31
0.0
  0
LINE
  8
0
 62
     0
 10
55.5625
 20
68.7917
 30
0.0
 11
55.4535
 21
68.7917
 31
0.0
  0
LINE
  8
0
 62
     0
 10
55.4535
 20
68.7917
 30
0.0
 11
55.1272
 21
68.7532
 31
0.0
  0
LINE
  8
0
 62
     0
 10
55.1272
 20
68.7532
 30
0.0
 11
54.8569
 21
68.6153
 31
0.0
  0
LINE
  8
0
 62
     0
 10
54.8569
 20
68.6153
 30
0.0
 11
54.719
 21
68.345
 31
0.0
  0
LINE
  8
0
 62
     0
 10
54.719
 20
68.345
 30
0.0
 11
54.6806
 21
68.0187
 31
0.0
  0
LINE
  8
0
 62
     0
 10
54.6806
 20
68.0187
 30
0.0
 11
54.6806
 21
67.9097
 31
0.0
  0
LINE
  8
0
 62
     0
 10
54.6806
 20
67.9097
 30
0.0
 11
54.6806
 21
67.8007
 31
0.0
  0
LINE
  8
0
 62
     0
 10
54.6806
 20
67.8007
 30
0.0
 11
54.6421
 21
67.4744
 31
0.0
  0
LINE
  8
0
 62
     0
 10
54.6421
 20
67.4744
 30
0.0
 11
54.5042
 21
67.2042
 31
0.0
  0
LINE
  8
0
 62
     0
 10
54.5042
 20
67.2042
 30
0.0
 11
54.2339
 21
67.0662
 31
0.0
  0
LINE
  8
0
 62
     0
 10
54.2339
 20
67.0662
 30
0.0
 11
53.9076
 21
67.0278
 31
0.0
  0
LINE
  8
0
 62
     0
 10
53.9076
 20
67.0278
 30
0.0
 11
53.7986
 21
67.0278
 31
0.0
  0
LINE
  8
0
 62
     0
 10
53.7986
 20
67.0278
 30
0.0
 11
53.6896
 21
67.0278
 31
0.0
  0
LINE
  8
0
 62
     0
 10
53.6896
 20
67.0278
 30
0.0
 11
53.3633
 21
66.9893
 31
0.0
  0
LINE
  8
0
 62
     0
 10
53.3633
 20
66.9893
 30
0.0
 11
53.0931
 21
66.8514
 31
0.0
  0
LINE
  8
0
 62
     0
 10
53.0931
 20
66.8514
 30
0.0
 11
52.9551
 21
66.5812
 31
0.0
  0
LINE
  8
0
 62
     0
 10
52.9551
 20
66.5812
 30
0.0
 11
52.9167
 21
66.2548
 31
0.0
  0
LINE
  8
0
 62
     0
 10
52.9167
 20
66.2548
 30
0.0
 11
52.9167
 21
66.1458
 31
0.0
  0
LINE
  8
0
 62
     0
 10
52.9167
 20
66.1458
 30
0.0
 11
52.9167
 21
66.0368
 31
0.0
  0
LINE
  8
0
 62
     0
 10
52.9167
 20
66.0368
 30
0.0
 11
52.8782
 21
65.7105
 31
0.0
  0
LINE
  8
0
 62
     0
 10
52.8782
 20
65.7105
 30
0.0
 11
52.7403
 21
65.4403
 31
0.0
  0
LINE
  8
0
 62
     0
 10
52.7403
 20
65.4403
 30
0.0
 11
52.47
 21
65.3023
 31
0.0
  0
LINE
  8
0
 62
     0
 10
52.47
 20
65.3023
 30
0.0
 11
52.1437
 21
65.2639
 31
0.0
  0
LINE
  8
0
 62
     0
 10
52.1437
 20
65.2639
 30
0.0
 11
52.0347
 21
65.2639
 31
0.0
  0
LINE
  8
0
 62
     0
 10
52.0347
 20
65.2639
 30
0.0
 11
51.9257
 21
65.2639
 31
0.0
  0
LINE
  8
0
 62
     0
 10
51.9257
 20
65.2639
 30
0.0
 11
51.5994
 21
65.2254
 31
0.0
  0
LINE
  8
0
 62
     0
 10
51.5994
 20
65.2254
 30
0.0
 11
51.3292
 21
65.0875
 31
0.0
  0
LINE
  8
0
 62
     0
 10
51.3292
 20
65.0875
 30
0.0
 11
51.1912
 21
64.8173
 31
0.0
  0
LINE
  8
0
 62
     0
 10
51.1912
 20
64.8173
 30
0.0
 11
51.1528
 21
64.491
 31
0.0
  0
LINE
  8
0
 62
     0
 10
51.1528
 20
64.491
 30
0.0
 11
51.1528
 21
64.3819
 31
0.0
  0
LINE
  8
0
 62
     0
 10
51.1528
 20
64.3819
 30
0.0
 11
51.1528
 21
64.2592
 31
0.0
  0
LINE
  8
0
 62
     0
 10
51.1528
 20
64.2592
 30
0.0
 11
51.1006
 21
63.8874
 31
0.0
  0
LINE
  8
0
 62
     0
 10
51.1006
 20
63.8874
 30
0.0
 11
50.7944
 21
63.6242
 31
0.0
  0
LINE
  8
0
 62
     0
 10
50.7944
 20
63.6242
 30
0.0
 11
50.0063
 21
63.5194
 31
0.0
  0
LINE
  8
0
 62
     0
 10
50.0063
 20
63.5194
 30
0.0
 11
48.8819
 21
63.5
 31
0.0
  0
LINE
  8
0
 62
     0
 10
48.8819
 20
63.5
 30
0.0
 11
48.5069
 21
63.5
 31
0.0
  0
LINE
  8
0
 62
     0
 10
48.5069
 20
63.5
 30
0.0
 11
48.1309
 21
63.5
 31
0.0
  0
LINE
  8
0
 62
     0
 10
48.1309
 20
63.5
 30
0.0
 11
47.0062
 21
63.482
 31
0.0
  0
LINE
  8
0
 62
     0
 10
47.0062
 20
63.482
 30
0.0
 11
46.2181
 21
63.3772
 31
0.0
  0
LINE
  8
0
 62
     0
 10
46.2181
 20
63.3772
 30
0.0
 11
45.9123
 21
63.1141
 31
0.0
  0
LINE
  8
0
 62
     0
 10
45.9123
 20
63.1141
 30
0.0
 11
45.8611
 21
62.7422
 31
0.0
  0
LINE
  8
0
 62
     0
 10
45.8611
 20
62.7422
 30
0.0
 11
45.8611
 21
62.6181
 31
0.0
  0
LINE
  8
0
 62
     0
 10
45.8611
 20
62.6181
 30
0.0
 11
45.8611
 21
62.4981
 31
0.0
  0
LINE
  8
0
 62
     0
 10
45.8611
 20
62.4981
 30
0.0
 11
45.8184
 21
62.1386
 31
0.0
  0
LINE
  8
0
 62
     0
 10
45.8184
 20
62.1386
 30
0.0
 11
45.6008
 21
61.874
 31
0.0
  0
LINE
  8
0
 62
     0
 10
45.6008
 20
61.874
 30
0.0
 11
45.0716
 21
61.7608
 31
0.0
  0
LINE
  8
0
 62
     0
 10
45.0716
 20
61.7608
 30
0.0
 11
44.3399
 21
61.7361
 31
0.0
  0
LINE
  8
0
 62
     0
 10
44.3399
 20
61.7361
 30
0.0
 11
44.0972
 21
61.7361
 31
0.0
  0
LINE
  8
0
 62
     0
 10
44.0972
 20
61.7361
 30
0.0
 11
43.8535
 21
61.7361
 31
0.0
  0
LINE
  8
0
 62
     0
 10
43.8535
 20
61.7361
 30
0.0
 11
43.1214
 21
61.7128
 31
0.0
  0
LINE
  8
0
 62
     0
 10
43.1214
 20
61.7128
 30
0.0
 11
42.5923
 21
61.5996
 31
0.0
  0
LINE
  8
0
 62
     0
 10
42.5923
 20
61.5996
 30
0.0
 11
42.3746
 21
61.335
 31
0.0
  0
LINE
  8
0
 62
     0
 10
42.3746
 20
61.335
 30
0.0
 11
42.3333
 21
60.9755
 31
0.0
  0
LINE
  8
0
 62
     0
 10
42.3333
 20
60.9755
 30
0.0
 11
42.3333
 21
60.8542
 31
0.0
  0
LINE
  8
0
 62
     0
 10
42.3333
 20
60.8542
 30
0.0
 11
42.3333
 21
60.7342
 31
0.0
  0
LINE
  8
0
 62
     0
 10
42.3333
 20
60.7342
 30
0.0
 11
42.2906
 21
60.3747
 31
0.0
  0
LINE
  8
0
 62
     0
 10
42.2906
 20
60.3747
 30
0.0
 11
42.073
 21
60.1102
 31
0.0
  0
LINE
  8
0
 62
     0
 10
42.073
 20
60.1102
 30
0.0
 11
41.5438
 21
59.9969
 31
0.0
  0
LINE
  8
0
 62
     0
 10
41.5438
 20
59.9969
 30
0.0
 11
40.8122
 21
59.9722
 31
0.0
  0
LINE
  8
0
 62
     0
 10
40.8122
 20
59.9722
 30
0.0
 11
40.5694
 21
59.9722
 31
0.0
  0
LINE
  8
0
 62
     0
 10
40.5694
 20
59.9722
 30
0.0
 11
40.3257
 21
59.9722
 31
0.0
  0
LINE
  8
0
 62
     0
 10
40.3257
 20
59.9722
 30
0.0
 11
39.5937
 21
59.9489
 31
0.0
  0
LINE
  8
0
 62
     0
 10
39.5937
 20
59.9489
 30
0.0
 11
39.0645
 21
59.8357
 31
0.0
  0
LINE
  8
0
 62
     0
 10
39.0645
 20
59.8357
 30
0.0
 11
38.8468
 21
59.5711
 31
0.0
  0
LINE
  8
0
 62
     0
 10
38.8468
 20
59.5711
 30
0.0
 11
38.8056
 21
59.2116
 31
0.0
  0
LINE
  8
0
 62
     0
 10
38.8056
 20
59.2116
 30
0.0
 11
38.8056
 21
59.0903
 31
0.0
  0
LINE
  8
0
 62
     0
 10
38.8056
 20
59.0903
 30
0.0
 11
38.8056
 21
58.9813
 31
0.0
  0
LINE
  8
0
 62
     0
 10
38.8056
 20
58.9813
 30
0.0
 11
38.7671
 21
58.655
 31
0.0
  0
LINE
  8
0
 62
     0
 10
38.7671
 20
58.655
 30
0.0
 11
38.6292
 21
58.3847
 31
0.0
  0
LINE
  8
0
 62
     0
 10
38.6292
 20
58.3847
 30
0.0
 11
38.3589
 21
58.2468
 31
0.0
  0
LINE
  8
0
 62
     0
 10
38.3589
 20
58.2468
 30
0.0
 11
38.0326
 21
58.2083
 31
0.0
  0
LINE
  8
0
 62
     0
 10
38.0326
 20
58.2083
 30
0.0
 11
37.9236
 21
58.2083
 31
0.0
  0
LINE
  8
0
 62
     0
 10
37.9236
 20
58.2083
 30
0.0
 11
37.8146
 21
58.2083
 31
0.0
  0
LINE
  8
0
 62
     0
 10
37.8146
 20
58.2083
 30
0.0
 11
37.4883
 21
58.1699
 31
0.0
  0
LINE
  8
0
 62
     0
 10
37.4883
 20
58.1699
 30
0.0
 11
37.2181
 21
58.0319
 31
0.0
  0
LINE
  8
0
 62
     0
 10
37.2181
 20
58.0319
 30
0.0
 11
37.0801
 21
57.7617
 31
0.0
  0
LINE
  8
0
 62
     0
 10
37.0801
 20
57.7617
 30
0.0
 11
37.0417
 21
57.4354
 31
0.0
  0
LINE
  8
0
 62
     0
 10
37.0417
 20
57.4354
 30
0.0
 11
37.0417
 21
57.3264
 31
0.0
  0
LINE
  8
0
 62
     0
 10
37.0417
 20
57.3264
 30
0.0
 11
37.0417
 21
57.2174
 31
0.0
  0
LINE
  8
0
 62
     0
 10
37.0417
 20
57.2174
 30
0.0
 11
37.0032
 21
56.8911
 31
0.0
  0
LINE
  8
0
 62
     0
 10
37.0032
 20
56.8911
 30
0.0
 11
36.8653
 21
56.6208
 31
0.0
  0
LINE
  8
0
 62
     0
 10
36.8653
 20
56.6208
 30
0.0
 11
36.5951
 21
56.4829
 31
0.0
  0
LINE
  8
0
 62
     0
 10
36.5951
 20
56.4829
 30
0.0
 11
36.2687
 21
56.4444
 31
0.0
  0
LINE
  8
0
 62
     0
 10
36.2687
 20
56.4444
 30
0.0
 11
36.1597
 21
56.4444
 31
0.0
  0
LINE
  8
0
 62
     0
 10
36.1597
 20
56.4444
 30
0.0
 11
36.0507
 21
56.4444
 31
0.0
  0
LINE
  8
0
 62
     0
 10
36.0507
 20
56.4444
 30
0.0
 11
35.7244
 21
56.406
 31
0.0
  0
LINE
  8
0
 62
     0
 10
35.7244
 20
56.406
 30
0.0
 11
35.4542
 21
56.2681
 31
0.0
  0
LINE
  8
0
 62
     0
 10
35.4542
 20
56.2681
 30
0.0
 11
35.3162
 21
55.9978
 31
0.0
  0
LINE
  8
0
 62
     0
 10
35.3162
 20
55.9978
 30
0.0
 11
35.2778
 21
55.6715
 31
0.0
  0
LINE
  8
0
 62
     0
 10
35.2778
 20
55.6715
 30
0.0
 11
35.2778
 21
55.5625
 31
0.0
  0
LINE
  8
0
 62
     0
 10
35.2778
 20
55.5625
 30
0.0
 11
35.2778
 21
55.4426
 31
0.0
  0
LINE
  8
0
 62
     0
 10
35.2778
 20
55.4426
 30
0.0
 11
35.2351
 21
55.0831
 31
0.0
  0
LINE
  8
0
 62
     0
 10
35.2351
 20
55.0831
 30
0.0
 11
35.0173
 21
54.8185
 31
0.0
  0
LINE
  8
0
 62
     0
 10
35.0173
 20
54.8185
 30
0.0
 11
34.4882
 21
54.7053
 31
0.0
  0
LINE
  8
0
 62
     0
 10
34.4882
 20
54.7053
 30
0.0
 11
33.7564
 21
54.6806
 31
0.0
  0
LINE
  8
0
 62
     0
 10
33.7564
 20
54.6806
 30
0.0
 11
33.5139
 21
54.6806
 31
0.0
  0
LINE
  8
0
 62
     0
 10
33.5139
 20
54.6806
 30
0.0
 11
33.27
 21
54.6806
 31
0.0
  0
LINE
  8
0
 62
     0
 10
33.27
 20
54.6806
 30
0.0
 11
32.5382
 21
54.6573
 31
0.0
  0
LINE
  8
0
 62
     0
 10
32.5382
 20
54.6573
 30
0.0
 11
32.0091
 21
54.544
 31
0.0
  0
LINE
  8
0
 62
     0
 10
32.0091
 20
54.544
 30
0.0
 11
31.7913
 21
54.2794
 31
0.0
  0
LINE
  8
0
 62
     0
 10
31.7913
 20
54.2794
 30
0.0
 11
31.75
 21
53.92
 31
0.0
  0
LINE
  8
0
 62
     0
 10
31.75
 20
53.92
 30
0.0
 11
31.75
 21
53.7986
 31
0.0
  0
LINE
  8
0
 62
     0
 10
31.75
 20
53.7986
 30
0.0
 11
31.75
 21
52.9167
 31
0.0
  0
LINE
  8
0
 62
     0
 10
31.75
 20
52.9167
 30
0.0
 11
21.1667
 21
52.9167
 31
0.0
  0
LINE
  8
0
 62
     0
 10
21.1667
 20
52.9167
 30
0.0
 11
21.1667
 21
52.0347
 31
0.0
  0
LINE
  8
0
 62
     0
 10
21.1667
 20
52.0347
 30
0.0
 11
21.1667
 21
51.9148
 31
0.0
  0
LINE
  8
0
 62
     0
 10
21.1667
 20
51.9148
 30
0.0
 11
21.1239
 21
51.5553
 31
0.0
  0
LINE
  8
0
 62
     0
 10
21.1239
 20
51.5553
 30
0.0
 11
20.9062
 21
51.2907
 31
0.0
  0
LINE
  8
0
 62
     0
 10
20.9062
 20
51.2907
 30
0.0
 11
20.377
 21
51.1775
 31
0.0
  0
LINE
  8
0
 62
     0
 10
20.377
 20
51.1775
 30
0.0
 11
19.6453
 21
51.1528
 31
0.0
  0
LINE
  8
0
 62
     0
 10
19.6453
 20
51.1528
 30
0.0
 11
19.4028
 21
51.1528
 31
0.0
  0
LINE
  8
0
 62
     0
 10
19.4028
 20
51.1528
 30
0.0
 11
19.1589
 21
51.1528
 31
0.0
  0
LINE
  8
0
 62
     0
 10
19.1589
 20
51.1528
 30
0.0
 11
18.4271
 21
51.1295
 31
0.0
  0
LINE
  8
0
 62
     0
 10
18.4271
 20
51.1295
 30
0.0
 11
17.898
 21
51.0163
 31
0.0
  0
LINE
  8
0
 62
     0
 10
17.898
 20
51.0163
 30
0.0
 11
17.6802
 21
50.7517
 31
0.0
  0
LINE
  8
0
 62
     0
 10
17.6802
 20
50.7517
 30
0.0
 11
17.6389
 21
50.3922
 31
0.0
  0
LINE
  8
0
 62
     0
 10
17.6389
 20
50.3922
 30
0.0
 11
17.6389
 21
50.2708
 31
0.0
  0
LINE
  8
0
 62
     0
 10
17.6389
 20
50.2708
 30
0.0
 11
17.6389
 21
50.1509
 31
0.0
  0
LINE
  8
0
 62
     0
 10
17.6389
 20
50.1509
 30
0.0
 11
17.5962
 21
49.7914
 31
0.0
  0
LINE
  8
0
 62
     0
 10
17.5962
 20
49.7914
 30
0.0
 11
17.3784
 21
49.5268
 31
0.0
  0
LINE
  8
0
 62
     0
 10
17.3784
 20
49.5268
 30
0.0
 11
16.8493
 21
49.4136
 31
0.0
  0
LINE
  8
0
 62
     0
 10
16.8493
 20
49.4136
 30
0.0
 11
16.1175
 21
49.3889
 31
0.0
  0
LINE
  8
0
 62
     0
 10
16.1175
 20
49.3889
 30
0.0
 11
15.875
 21
49.3889
 31
0.0
  0
LINE
  8
0
 62
     0
 10
15.875
 20
49.3889
 30
0.0
 11
15.6311
 21
49.3889
 31
0.0
  0
LINE
  8
0
 62
     0
 10
15.6311
 20
49.3889
 30
0.0
 11
14.8994
 21
49.3656
 31
0.0
  0
LINE
  8
0
 62
     0
 10
14.8994
 20
49.3656
 30
0.0
 11
14.3702
 21
49.2524
 31
0.0
  0
LINE
  8
0
 62
     0
 10
14.3702
 20
49.2524
 30
0.0
 11
14.1525
 21
48.9878
 31
0.0
  0
LINE
  8
0
 62
     0
 10
14.1525
 20
48.9878
 30
0.0
 11
14.1111
 21
48.6283
 31
0.0
  0
LINE
  8
0
 62
     0
 10
14.1111
 20
48.6283
 30
0.0
 11
14.1111
 21
48.5069
 31
0.0
  0
LINE
  8
0
 62
     0
 10
14.1111
 20
48.5069
 30
0.0
 11
14.1111
 21
48.3979
 31
0.0
  0
LINE
  8
0
 62
     0
 10
14.1111
 20
48.3979
 30
0.0
 11
14.0725
 21
48.0716
 31
0.0
  0
LINE
  8
0
 62
     0
 10
14.0725
 20
48.0716
 30
0.0
 11
13.9347
 21
47.8014
 31
0.0
  0
LINE
  8
0
 62
     0
 10
13.9347
 20
47.8014
 30
0.0
 11
13.6646
 21
47.6635
 31
0.0
  0
LINE
  8
0
 62
     0
 10
13.6646
 20
47.6635
 30
0.0
 11
13.338
 21
47.625
 31
0.0
  0
LINE
  8
0
 62
     0
 10
13.338
 20
47.625
 30
0.0
 11
13.2292
 21
47.625
 31
0.0
  0
LINE
  8
0
 62
     0
 10
13.2292
 20
47.625
 30
0.0
 11
13.1203
 21
47.625
 31
0.0
  0
LINE
  8
0
 62
     0
 10
13.1203
 20
47.625
 30
0.0
 11
12.7937
 21
47.5865
 31
0.0
  0
LINE
  8
0
 62
     0
 10
12.7937
 20
47.5865
 30
0.0
 11
12.5236
 21
47.4486
 31
0.0
  0
LINE
  8
0
 62
     0
 10
12.5236
 20
47.4486
 30
0.0
 11
12.3858
 21
47.1784
 31
0.0
  0
LINE
  8
0
 62
     0
 10
12.3858
 20
47.1784
 30
0.0
 11
12.3472
 21
46.8521
 31
0.0
  0
LINE
  8
0
 62
     0
 10
12.3472
 20
46.8521
 30
0.0
 11
12.3472
 21
46.7431
 31
0.0
  0
LINE
  8
0
 62
     0
 10
12.3472
 20
46.7431
 30
0.0
 11
12.3472
 21
46.634
 31
0.0
  0
LINE
  8
0
 62
     0
 10
12.3472
 20
46.634
 30
0.0
 11
12.3086
 21
46.3077
 31
0.0
  0
LINE
  8
0
 62
     0
 10
12.3086
 20
46.3077
 30
0.0
 11
12.1708
 21
46.0375
 31
0.0
  0
LINE
  8
0
 62
     0
 10
12.1708
 20
46.0375
 30
0.0
 11
11.9007
 21
45.8996
 31
0.0
  0
LINE
  8
0
 62
     0
 10
11.9007
 20
45.8996
 30
0.0
 11
11.5741
 21
45.8611
 31
0.0
  0
LINE
  8
0
 62
     0
 10
11.5741
 20
45.8611
 30
0.0
 11
11.4653
 21
45.8611
 31
0.0
  0
LINE
  8
0
 62
     0
 10
11.4653
 20
45.8611
 30
0.0
 11
11.3564
 21
45.8611
 31
0.0
  0
LINE
  8
0
 62
     0
 10
11.3564
 20
45.8611
 30
0.0
 11
11.0298
 21
45.8227
 31
0.0
  0
LINE
  8
0
 62
     0
 10
11.0298
 20
45.8227
 30
0.0
 11
10.7597
 21
45.6847
 31
0.0
  0
LINE
  8
0
 62
     0
 10
10.7597
 20
45.6847
 30
0.0
 11
10.6219
 21
45.4145
 31
0.0
  0
LINE
  8
0
 62
     0
 10
10.6219
 20
45.4145
 30
0.0
 11
10.5833
 21
45.0882
 31
0.0
  0
LINE
  8
0
 62
     0
 10
10.5833
 20
45.0882
 30
0.0
 11
10.5833
 21
44.9792
 31
0.0
  0
LINE
  8
0
 62
     0
 10
10.5833
 20
44.9792
 30
0.0
 11
10.5833
 21
44.8702
 31
0.0
  0
LINE
  8
0
 62
     0
 10
10.5833
 20
44.8702
 30
0.0
 11
10.5447
 21
44.5438
 31
0.0
  0
LINE
  8
0
 62
     0
 10
10.5447
 20
44.5438
 30
0.0
 11
10.4069
 21
44.2736
 31
0.0
  0
LINE
  8
0
 62
     0
 10
10.4069
 20
44.2736
 30
0.0
 11
10.1369
 21
44.1357
 31
0.0
  0
LINE
  8
0
 62
     0
 10
10.1369
 20
44.1357
 30
0.0
 11
9.81026
 21
44.0972
 31
0.0
  0
LINE
  8
0
 62
     0
 10
9.81026
 20
44.0972
 30
0.0
 11
9.70139
 21
44.0972
 31
0.0
  0
LINE
  8
0
 62
     0
 10
9.70139
 20
44.0972
 30
0.0
 11
9.59252
 21
44.0972
 31
0.0
  0
LINE
  8
0
 62
     0
 10
9.59252
 20
44.0972
 30
0.0
 11
9.26592
 21
44.0588
 31
0.0
  0
LINE
  8
0
 62
     0
 10
9.26592
 20
44.0588
 30
0.0
 11
8.99583
 21
43.9208
 31
0.0
  0
LINE
  8
0
 62
     0
 10
8.99583
 20
43.9208
 30
0.0
 11
8.85804
 21
43.6506
 31
0.0
  0
LINE
  8
0
 62
     0
 10
8.85804
 20
43.6506
 30
0.0
 11
8.81944
 21
43.3243
 31
0.0
  0
LINE
  8
0
 62
     0
 10
8.81944
 20
43.3243
 30
0.0
 11
8.81944
 21
43.2153
 31
0.0
  0
LINE
  8
0
 62
     0
 10
8.81944
 20
43.2153
 30
0.0
 11
8.81944
 21
43.1063
 31
0.0
  0
LINE
  8
0
 62
     0
 10
8.81944
 20
43.1063
 30
0.0
 11
8.78085
 21
42.7799
 31
0.0
  0
LINE
  8
0
 62
     0
 10
8.78085
 20
42.7799
 30
0.0
 11
8.64306
 21
42.5097
 31
0.0
  0
LINE
  8
0
 62
     0
 10
8.64306
 20
42.5097
 30
0.0
 11
8.37297
 21
42.3718
 31
0.0
  0
LINE
  8
0
 62
     0
 10
8.37297
 20
42.3718
 30
0.0
 11
8.04637
 21
42.3333
 31
0.0
  0
LINE
  8
0
 62
     0
 10
8.04637
 20
42.3333
 30
0.0
 11
7.9375
 21
42.3333
 31
0.0
  0
LINE
  8
0
 62
     0
 10
7.9375
 20
42.3333
 30
0.0
 11
7.82863
 21
42.3333
 31
0.0
  0
LINE
  8
0
 62
     0
 10
7.82863
 20
42.3333
 30
0.0
 11
7.50203
 21
42.2949
 31
0.0
  0
LINE
  8
0
 62
     0
 10
7.50203
 20
42.2949
 30
0.0
 11
7.23194
 21
42.1569
 31
0.0
  0
LINE
  8
0
 62
     0
 10
7.23194
 20
42.1569
 30
0.0
 11
7.09415
 21
41.8867
 31
0.0
  0
LINE
  8
0
 62
     0
 10
7.09415
 20
41.8867
 30
0.0
 11
7.05556
 21
41.5604
 31
0.0
  0
LINE
  8
0
 62
     0
 10
7.05556
 20
41.5604
 30
0.0
 11
7.05556
 21
41.4514
 31
0.0
  0
LINE
  8
0
 62
     0
 10
7.05556
 20
41.4514
 30
0.0
 11
7.05556
 21
41.3424
 31
0.0
  0
LINE
  8
0
 62
     0
 10
7.05556
 20
41.3424
 30
0.0
 11
7.01696
 21
41.0161
 31
0.0
  0
LINE
  8
0
 62
     0
 10
7.01696
 20
41.0161
 30
0.0
 11
6.87917
 21
40.7458
 31
0.0
  0
LINE
  8
0
 62
     0
 10
6.87917
 20
40.7458
 30
0.0
 11
6.60908
 21
40.6079
 31
0.0
  0
LINE
  8
0
 62
     0
 10
6.60908
 20
40.6079
 30
0.0
 11
6.28248
 21
40.5694
 31
0.0
  0
LINE
  8
0
 62
     0
 10
6.28248
 20
40.5694
 30
0.0
 11
6.17361
 21
40.5694
 31
0.0
  0
LINE
  8
0
 62
     0
 10
6.17361
 20
40.5694
 30
0.0
 11
6.06474
 21
40.5694
 31
0.0
  0
LINE
  8
0
 62
     0
 10
6.06474
 20
40.5694
 30
0.0
 11
5.73814
 21
40.531
 31
0.0
  0
LINE
  8
0
 62
     0
 10
5.73814
 20
40.531
 30
0.0
 11
5.46806
 21
40.3931
 31
0.0
  0
LINE
  8
0
 62
     0
 10
5.46806
 20
40.3931
 30
0.0
 11
5.33026
 21
40.1228
 31
0.0
  0
LINE
  8
0
 62
     0
 10
5.33026
 20
40.1228
 30
0.0
 11
5.29167
 21
39.7965
 31
0.0
  0
LINE
  8
0
 62
     0
 10
5.29167
 20
39.7965
 30
0.0
 11
5.29167
 21
39.6875
 31
0.0
  0
LINE
  8
0
 62
     0
 10
5.29167
 20
39.6875
 30
0.0
 11
5.29167
 21
39.5785
 31
0.0
  0
LINE
  8
0
 62
     0
 10
5.29167
 20
39.5785
 30
0.0
 11
5.25307
 21
39.2522
 31
0.0
  0
LINE
  8
0
 62
     0
 10
5.25307
 20
39.2522
 30
0.0
 11
5.11528
 21
38.9819
 31
0.0
  0
LINE
  8
0
 62
     0
 10
5.11528
 20
38.9819
 30
0.0
 11
4.84519
 21
38.844
 31
0.0
  0
LINE
  8
0
 62
     0
 10
4.84519
 20
38.844
 30
0.0
 11
4.51859
 21
38.8056
 31
0.0
  0
LINE
  8
0
 62
     0
 10
4.51859
 20
38.8056
 30
0.0
 11
4.40972
 21
38.8056
 31
0.0
  0
LINE
  8
0
 62
     0
 10
4.40972
 20
38.8056
 30
0.0
 11
4.30085
 21
38.8056
 31
0.0
  0
LINE
  8
0
 62
     0
 10
4.30085
 20
38.8056
 30
0.0
 11
3.97425
 21
38.7671
 31
0.0
  0
LINE
  8
0
 62
     0
 10
3.97425
 20
38.7671
 30
0.0
 11
3.70417
 21
38.6292
 31
0.0
  0
LINE
  8
0
 62
     0
 10
3.70417
 20
38.6292
 30
0.0
 11
3.56637
 21
38.3589
 31
0.0
  0
LINE
  8
0
 62
     0
 10
3.56637
 20
38.3589
 30
0.0
 11
3.52778
 21
38.0326
 31
0.0
  0
LINE
  8
0
 62
     0
 10
3.52778
 20
38.0326
 30
0.0
 11
3.52778
 21
37.9236
 31
0.0
  0
LINE
  8
0
 62
     0
 10
3.52778
 20
37.9236
 30
0.0
 11
3.52778
 21
37.8037
 31
0.0
  0
LINE
  8
0
 62
     0
 10
3.52778
 20
37.8037
 30
0.0
 11
3.48506
 21
37.4442
 31
0.0
  0
LINE
  8
0
 62
     0
 10
3.48506
 20
37.4442
 30
0.0
 11
3.26733
 21
37.1796
 31
0.0
  0
LINE
  8
0
 62
     0
 10
3.26733
 20
37.1796
 30
0.0
 11
2.73816
 21
37.0664
 31
0.0
  0
LINE
  8
0
 62
     0
 10
2.73816
 20
37.0664
 30
0.0
 11
2.00642
 21
37.0417
 31
0.0
  0
LINE
  8
0
 62
     0
 10
2.00642
 20
37.0417
 30
0.0
 11
1.76389
 21
37.0417
 31
0.0
  0
LINE
  8
0
 62
     0
 10
1.76389
 20
37.0417
 30
0.0
 11
0
 21
37.0417
 31
0.0
  0
LINE
  8
0
 62
     0
 10
0
 20
37.0417
 30
0.0
 11
0
 21
33.5139
 31
0.0
  0
LINE
  8
0
 62
     0
 10
0
 20
33.5139
 30
0.0
 11
1.76389
 21
33.5139
 31
0.0
  0
LINE
  8
0
 62
     0
 10
1.76389
 20
33.5139
 30
0.0
 11
2.00642
 21
33.5139
 31
0.0
  0
LINE
  8
0
 62
     0
 10
2.00642
 20
33.5139
 30
0.0
 11
2.73816
 21
33.5387
 31
0.0
  0
LINE
  8
0
 62
     0
 10
2.73816
 20
33.5387
 30
0.0
 11
3.26733
 21
33.6517
 31
0.0
  0
LINE
  8
0
 62
     0
 10
3.26733
 20
33.6517
 30
0.0
 11
3.48506
 21
33.9163
 31
0.0
  0
LINE
  8
0
 62
     0
 10
3.48506
 20
33.9163
 30
0.0
 11
3.52778
 21
34.276
 31
0.0
  0
LINE
  8
0
 62
     0
 10
3.52778
 20
34.276
 30
0.0
 11
3.52778
 21
34.3958
 31
0.0
  0
LINE
  8
0
 62
     0
 10
3.52778
 20
34.3958
 30
0.0
 11
3.52778
 21
34.5199
 31
0.0
  0
LINE
  8
0
 62
     0
 10
3.52778
 20
34.5199
 30
0.0
 11
3.57875
 21
34.8919
 31
0.0
  0
LINE
  8
0
 62
     0
 10
3.57875
 20
34.8919
 30
0.0
 11
3.88468
 21
35.1551
 31
0.0
  0
LINE
  8
0
 62
     0
 10
3.88468
 20
35.1551
 30
0.0
 11
4.67293
 21
35.2599
 31
0.0
  0
LINE
  8
0
 62
     0
 10
4.67293
 20
35.2599
 30
0.0
 11
5.79741
 21
35.2778
 31
0.0
  0
LINE
  8
0
 62
     0
 10
5.79741
 20
35.2778
 30
0.0
 11
6.17361
 21
35.2778
 31
0.0
  0
LINE
  8
0
 62
     0
 10
6.17361
 20
35.2778
 30
0.0
 11
6.54844
 21
35.2778
 31
0.0
  0
LINE
  8
0
 62
     0
 10
6.54844
 20
35.2778
 30
0.0
 11
7.67292
 21
35.2599
 31
0.0
  0
LINE
  8
0
 62
     0
 10
7.67292
 20
35.2599
 30
0.0
 11
8.46116
 21
35.1551
 31
0.0
  0
LINE
  8
0
 62
     0
 10
8.46116
 20
35.1551
 30
0.0
 11
8.76709
 21
34.8919
 31
0.0
  0
LINE
  8
0
 62
     0
 10
8.76709
 20
34.8919
 30
0.0
 11
8.81944
 21
34.5199
 31
0.0
  0
LINE
  8
0
 62
     0
 10
8.81944
 20
34.5199
 30
0.0
 11
8.81944
 21
34.3958
 31
0.0
  0
LINE
  8
0
 62
     0
 10
8.81944
 20
34.3958
 30
0.0
 11
8.81944
 21
34.276
 31
0.0
  0
LINE
  8
0
 62
     0
 10
8.81944
 20
34.276
 30
0.0
 11
8.77672
 21
33.9163
 31
0.0
  0
LINE
  8
0
 62
     0
 10
8.77672
 20
33.9163
 30
0.0
 11
8.55899
 21
33.6517
 31
0.0
  0
LINE
  8
0
 62
     0
 10
8.55899
 20
33.6517
 30
0.0
 11
8.02982
 21
33.5387
 31
0.0
  0
LINE
  8
0
 62
     0
 10
8.02982
 20
33.5387
 30
0.0
 11
7.29809
 21
33.5139
 31
0.0
  0
LINE
  8
0
 62
     0
 10
7.29809
 20
33.5139
 30
0.0
 11
7.05556
 21
33.5139
 31
0.0
  0
LINE
  8
0
 62
     0
 10
7.05556
 20
33.5139
 30
0.0
 11
6.81164
 21
33.5139
 31
0.0
  0
LINE
  8
0
 62
     0
 10
6.81164
 20
33.5139
 30
0.0
 11
6.07991
 21
33.4905
 31
0.0
  0
LINE
  8
0
 62
     0
 10
6.07991
 20
33.4905
 30
0.0
 11
5.55075
 21
33.3775
 31
0.0
  0
LINE
  8
0
 62
     0
 10
5.55075
 20
33.3775
 30
0.0
 11
5.33301
 21
33.1129
 31
0.0
  0
LINE
  8
0
 62
     0
 10
5.33301
 20
33.1129
 30
0.0
 11
5.29167
 21
32.7532
 31
0.0
  0
LINE
  8
0
 62
     0
 10
5.29167
 20
32.7532
 30
0.0
 11
5.29167
 21
32.6319
 31
0.0
  0
LINE
  8
0
 62
     0
 10
5.29167
 20
32.6319
 30
0.0
 11
5.29167
 21
32.5121
 31
0.0
  0
LINE
  8
0
 62
     0
 10
5.29167
 20
32.5121
 30
0.0
 11
5.24895
 21
32.1524
 31
0.0
  0
LINE
  8
0
 62
     0
 10
5.24895
 20
32.1524
 30
0.0
 11
5.03121
 21
31.8878
 31
0.0
  0
LINE
  8
0
 62
     0
 10
5.03121
 20
31.8878
 30
0.0
 11
4.50204
 21
31.7748
 31
0.0
  0
LINE
  8
0
 62
     0
 10
4.50204
 20
31.7748
 30
0.0
 11
3.77031
 21
31.75
 31
0.0
  0
LINE
  8
0
 62
     0
 10
3.77031
 20
31.75
 30
0.0
 11
3.52778
 21
31.75
 31
0.0
  0
LINE
  8
0
 62
     0
 10
3.52778
 20
31.75
 30
0.0
 11
1.76389
 21
31.75
 31
0.0
  0
LINE
  8
0
 62
     0
 10
1.76389
 20
31.75
 30
0.0
 11
1.76389
 21
29.9861
 31
0.0
  0
LINE
  8
0
 62
     0
 10
1.76389
 20
29.9861
 30
0.0
 11
1.76389
 21
29.7436
 31
0.0
  0
LINE
  8
0
 62
     0
 10
1.76389
 20
29.7436
 30
0.0
 11
1.78732
 21
29.0118
 31
0.0
  0
LINE
  8
0
 62
     0
 10
1.78732
 20
29.0118
 30
0.0
 11
1.90032
 21
28.4827
 31
0.0
  0
LINE
  8
0
 62
     0
 10
1.90032
 20
28.4827
 30
0.0
 11
2.1649
 21
28.2649
 31
0.0
  0
LINE
  8
0
 62
     0
 10
2.1649
 20
28.2649
 30
0.0
 11
2.52457
 21
28.2222
 31
0.0
  0
LINE
  8
0
 62
     0
 10
2.52457
 20
28.2222
 30
0.0
 11
2.64583
 21
28.2222
 31
0.0
  0
LINE
  8
0
 62
     0
 10
2.64583
 20
28.2222
 30
0.0
 11
2.7547
 21
28.2222
 31
0.0
  0
LINE
  8
0
 62
     0
 10
2.7547
 20
28.2222
 30
0.0
 11
3.0813
 21
28.2608
 31
0.0
  0
LINE
  8
0
 62
     0
 10
3.0813
 20
28.2608
 30
0.0
 11
3.35139
 21
28.3986
 31
0.0
  0
LINE
  8
0
 62
     0
 10
3.35139
 20
28.3986
 30
0.0
 11
3.48919
 21
28.6687
 31
0.0
  0
LINE
  8
0
 62
     0
 10
3.48919
 20
28.6687
 30
0.0
 11
3.52778
 21
28.9953
 31
0.0
  0
LINE
  8
0
 62
     0
 10
3.52778
 20
28.9953
 30
0.0
 11
3.52778
 21
29.1042
 31
0.0
  0
LINE
  8
0
 62
     0
 10
3.52778
 20
29.1042
 30
0.0
 11
3.52778
 21
29.2255
 31
0.0
  0
LINE
  8
0
 62
     0
 10
3.52778
 20
29.2255
 30
0.0
 11
3.56912
 21
29.5851
 31
0.0
  0
LINE
  8
0
 62
     0
 10
3.56912
 20
29.5851
 30
0.0
 11
3.78686
 21
29.8497
 31
0.0
  0
LINE
  8
0
 62
     0
 10
3.78686
 20
29.8497
 30
0.0
 11
4.31602
 21
29.9627
 31
0.0
  0
LINE
  8
0
 62
     0
 10
4.31602
 20
29.9627
 30
0.0
 11
5.04776
 21
29.9861
 31
0.0
  0
LINE
  8
0
 62
     0
 10
5.04776
 20
29.9861
 30
0.0
 11
5.29167
 21
29.9861
 31
0.0
  0
LINE
  8
0
 62
     0
 10
5.29167
 20
29.9861
 30
0.0
 11
5.5342
 21
29.9861
 31
0.0
  0
LINE
  8
0
 62
     0
 10
5.5342
 20
29.9861
 30
0.0
 11
6.26593
 21
30.0109
 31
0.0
  0
LINE
  8
0
 62
     0
 10
6.26593
 20
30.0109
 30
0.0
 11
6.7951
 21
30.1239
 31
0.0
  0
LINE
  8
0
 62
     0
 10
6.7951
 20
30.1239
 30
0.0
 11
7.01283
 21
30.3885
 31
0.0
  0
LINE
  8
0
 62
     0
 10
7.01283
 20
30.3885
 30
0.0
 11
7.05556
 21
30.7482
 31
0.0
  0
LINE
  8
0
 62
     0
 10
7.05556
 20
30.7482
 30
0.0
 11
7.05556
 21
30.8681
 31
0.0
  0
LINE
  8
0
 62
     0
 10
7.05556
 20
30.8681
 30
0.0
 11
7.05556
 21
30.9921
 31
0.0
  0
LINE
  8
0
 62
     0
 10
7.05556
 20
30.9921
 30
0.0
 11
7.10653
 21
31.3642
 31
0.0
  0
LINE
  8
0
 62
     0
 10
7.10653
 20
31.3642
 30
0.0
 11
7.41246
 21
31.6273
 31
0.0
  0
LINE
  8
0
 62
     0
 10
7.41246
 20
31.6273
 30
0.0
 11
8.20071
 21
31.7321
 31
0.0
  0
LINE
  8
0
 62
     0
 10
8.20071
 20
31.7321
 30
0.0
 11
9.32519
 21
31.75
 31
0.0
  0
LINE
  8
0
 62
     0
 10
9.32519
 20
31.75
 30
0.0
 11
9.70139
 21
31.75
 31
0.0
  0
LINE
  8
0
 62
     0
 10
9.70139
 20
31.75
 30
0.0
 11
10.0762
 21
31.75
 31
0.0
  0
LINE
  8
0
 62
     0
 10
10.0762
 20
31.75
 30
0.0
 11
11.2007
 21
31.7693
 31
0.0
  0
LINE
  8
0
 62
     0
 10
11.2007
 20
31.7693
 30
0.0
 11
11.9889
 21
31.874
 31
0.0
  0
LINE
  8
0
 62
     0
 10
11.9889
 20
31.874
 30
0.0
 11
12.2949
 21
32.1372
 31
0.0
  0
LINE
  8
0
 62
     0
 10
12.2949
 20
32.1372
 30
0.0
 11
12.3472
 21
32.5093
 31
0.0
  0
LINE
  8
0
 62
     0
 10
12.3472
 20
32.5093
 30
0.0
 11
12.3472
 21
32.6319
 31
0.0
  0
LINE
  8
0
 62
     0
 10
12.3472
 20
32.6319
 30
0.0
 11
12.3472
 21
33.5139
 31
0.0
  0
LINE
  8
0
 62
     0
 10
12.3472
 20
33.5139
 30
0.0
 11
59.9722
 21
33.5139
 31
0.0
  0
LINE
  8
0
 62
     0
 10
59.9722
 20
33.5139
 30
0.0
 11
59.9722
 21
34.3958
 31
0.0
  0
LINE
  8
0
 62
     0
 10
59.9722
 20
34.3958
 30
0.0
 11
59.9722
 21
34.5171
 31
0.0
  0
LINE
  8
0
 62
     0
 10
59.9722
 20
34.5171
 30
0.0
 11
60.0135
 21
34.8768
 31
0.0
  0
LINE
  8
0
 62
     0
 10
60.0135
 20
34.8768
 30
0.0
 11
60.2312
 21
35.1414
 31
0.0
  0
LINE
  8
0
 62
     0
 10
60.2312
 20
35.1414
 30
0.0
 11
60.7603
 21
35.2544
 31
0.0
  0
LINE
  8
0
 62
     0
 10
60.7603
 20
35.2544
 30
0.0
 11
61.4923
 21
35.2778
 31
0.0
  0
LINE
  8
0
 62
     0
 10
61.4923
 20
35.2778
 30
0.0
 11
61.7361
 21
35.2778
 31
0.0
  0
LINE
  8
0
 62
     0
 10
61.7361
 20
35.2778
 30
0.0
 11
61.9788
 21
35.2778
 31
0.0
  0
LINE
  8
0
 62
     0
 10
61.9788
 20
35.2778
 30
0.0
 11
62.7105
 21
35.2544
 31
0.0
  0
LINE
  8
0
 62
     0
 10
62.7105
 20
35.2544
 30
0.0
 11
63.2396
 21
35.1414
 31
0.0
  0
LINE
  8
0
 62
     0
 10
63.2396
 20
35.1414
 30
0.0
 11
63.4573
 21
34.8768
 31
0.0
  0
LINE
  8
0
 62
     0
 10
63.4573
 20
34.8768
 30
0.0
 11
63.5
 21
34.5171
 31
0.0
  0
LINE
  8
0
 62
     0
 10
63.5
 20
34.5171
 30
0.0
 11
63.5
 21
34.3958
 31
0.0
  0
LINE
  8
0
 62
     0
 10
63.5
 20
34.3958
 30
0.0
 11
63.5
 21
34.276
 31
0.0
  0
LINE
  8
0
 62
     0
 10
63.5
 20
34.276
 30
0.0
 11
63.5413
 21
33.9163
 31
0.0
  0
LINE
  8
0
 62
     0
 10
63.5413
 20
33.9163
 30
0.0
 11
63.7589
 21
33.6517
 31
0.0
  0
LINE
  8
0
 62
     0
 10
63.7589
 20
33.6517
 30
0.0
 11
64.2881
 21
33.5387
 31
0.0
  0
LINE
  8
0
 62
     0
 10
64.2881
 20
33.5387
 30
0.0
 11
65.0201
 21
33.5139
 31
0.0
  0
LINE
  8
0
 62
     0
 10
65.0201
 20
33.5139
 30
0.0
 11
65.2639
 21
33.5139
 31
0.0
  0
LINE
  8
0
 62
     0
 10
65.2639
 20
33.5139
 30
0.0
 11
65.5066
 21
33.5139
 31
0.0
  0
LINE
  8
0
 62
     0
 10
65.5066
 20
33.5139
 30
0.0
 11
66.2383
 21
33.5387
 31
0.0
  0
LINE
  8
0
 62
     0
 10
66.2383
 20
33.5387
 30
0.0
 11
66.7674
 21
33.6517
 31
0.0
  0
LINE
  8
0
 62
     0
 10
66.7674
 20
33.6517
 30
0.0
 11
66.9851
 21
33.9163
 31
0.0
  0
LINE
  8
0
 62
     0
 10
66.9851
 20
33.9163
 30
0.0
 11
67.0278
 21
34.276
 31
0.0
  0
LINE
  8
0
 62
     0
 10
67.0278
 20
34.276
 30
0.0
 11
67.0278
 21
34.3958
 31
0.0
  0
LINE
  8
0
 62
     0
 10
67.0278
 20
34.3958
 30
0.0
 11
67.0278
 21
35.2778
 31
0.0
  0
LINE
  8
0
 62
     0
 10
67.0278
 20
35.2778
 30
0.0
 11
107.597
 21
35.2778
 31
0.0
  0
LINE
  8
0
 62
     0
 10
107.597
 20
35.2778
 30
0.0
 11
107.597
 21
33.5139
 31
0.0
  0
LINE
  8
0
 62
     0
 10
107.597
 20
33.5139
 30
0.0
 11
107.597
 21
33.2714
 31
0.0
  0
LINE
  8
0
 62
     0
 10
107.597
 20
33.2714
 30
0.0
 11
107.621
 21
32.5396
 31
0.0
  0
LINE
  8
0
 62
     0
 10
107.621
 20
32.5396
 30
0.0
 11
107.734
 21
32.0105
 31
0.0
  0
LINE
  8
0
 62
     0
 10
107.734
 20
32.0105
 30
0.0
 11
107.998
 21
31.7927
 31
0.0
  0
LINE
  8
0
 62
     0
 10
107.998
 20
31.7927
 30
0.0
 11
108.358
 21
31.75
 31
0.0
  0
LINE
  8
0
 62
     0
 10
108.358
 20
31.75
 30
0.0
 11
108.479
 21
31.75
 31
0.0
  0
LINE
  8
0
 62
     0
 10
108.479
 20
31.75
 30
0.0
 11
108.599
 21
31.75
 31
0.0
  0
LINE
  8
0
 62
     0
 10
108.599
 20
31.75
 30
0.0
 11
108.959
 21
31.7087
 31
0.0
  0
LINE
  8
0
 62
     0
 10
108.959
 20
31.7087
 30
0.0
 11
109.223
 21
31.4909
 31
0.0
  0
LINE
  8
0
 62
     0
 10
109.223
 20
31.4909
 30
0.0
 11
109.336
 21
30.9618
 31
0.0
  0
LINE
  8
0
 62
     0
 10
109.336
 20
30.9618
 30
0.0
 11
109.361
 21
30.23
 31
0.0
  0
LINE
  8
0
 62
     0
 10
109.361
 20
30.23
 30
0.0
 11
109.361
 21
29.9861
 31
0.0
  0
LINE
  8
0
 62
     0
 10
109.361
 20
29.9861
 30
0.0
 11
109.361
 21
29.7436
 31
0.0
  0
LINE
  8
0
 62
     0
 10
109.361
 20
29.7436
 30
0.0
 11
109.384
 21
29.0118
 31
0.0
  0
LINE
  8
0
 62
     0
 10
109.384
 20
29.0118
 30
0.0
 11
109.498
 21
28.4827
 31
0.0
  0
LINE
  8
0
 62
     0
 10
109.498
 20
28.4827
 30
0.0
 11
109.762
 21
28.2649
 31
0.0
  0
LINE
  8
0
 62
     0
 10
109.762
 20
28.2649
 30
0.0
 11
110.122
 21
28.2222
 31
0.0
  0
LINE
  8
0
 62
     0
 10
110.122
 20
28.2222
 30
0.0
 11
110.243
 21
28.2222
 31
0.0
  0
LINE
  8
0
 62
     0
 10
110.243
 20
28.2222
 30
0.0
 11
110.366
 21
28.2222
 31
0.0
  0
LINE
  8
0
 62
     0
 10
110.366
 20
28.2222
 30
0.0
 11
110.738
 21
28.1712
 31
0.0
  0
LINE
  8
0
 62
     0
 10
110.738
 20
28.1712
 30
0.0
 11
111.001
 21
27.8653
 31
0.0
  0
LINE
  8
0
 62
     0
 10
111.001
 20
27.8653
 30
0.0
 11
111.106
 21
27.0771
 31
0.0
  0
LINE
  8
0
 62
     0
 10
111.106
 20
27.0771
 30
0.0
 11
111.125
 21
25.9526
 31
0.0
  0
LINE
  8
0
 62
     0
 10
111.125
 20
25.9526
 30
0.0
 11
111.125
 21
25.5764
 31
0.0
  0
LINE
  8
0
 62
     0
 10
111.125
 20
25.5764
 30
0.0
 11
111.125
 21
25.2016
 31
0.0
  0
LINE
  8
0
 62
     0
 10
111.125
 20
25.2016
 30
0.0
 11
111.143
 21
24.0771
 31
0.0
  0
LINE
  8
0
 62
     0
 10
111.143
 20
24.0771
 30
0.0
 11
111.248
 21
23.2888
 31
0.0
  0
LINE
  8
0
 62
     0
 10
111.248
 20
23.2888
 30
0.0
 11
111.511
 21
22.9829
 31
0.0
  0
LINE
  8
0
 62
     0
 10
111.511
 20
22.9829
 30
0.0
 11
111.883
 21
22.9306
 31
0.0
  0
LINE
  8
0
 62
     0
 10
111.883
 20
22.9306
 30
0.0
 11
112.007
 21
22.9306
 31
0.0
  0
LINE
  8
0
 62
     0
 10
112.007
 20
22.9306
 30
0.0
 11
112.13
 21
22.9306
 31
0.0
  0
LINE
  8
0
 62
     0
 10
112.13
 20
22.9306
 30
0.0
 11
112.502
 21
22.8796
 31
0.0
  0
LINE
  8
0
 62
     0
 10
112.502
 20
22.8796
 30
0.0
 11
112.765
 21
22.5737
 31
0.0
  0
LINE
  8
0
 62
     0
 10
112.765
 20
22.5737
 30
0.0
 11
112.869
 21
21.7854
 31
0.0
  0
LINE
  8
0
 62
     0
 10
112.869
 20
21.7854
 30
0.0
 11
112.889
 21
20.6609
 31
0.0
  0
LINE
  8
0
 62
     0
 10
112.889
 20
20.6609
 30
0.0
 11
112.889
 21
20.2847
 31
0.0
  0
LINE
  8
0
 62
     0
 10
112.889
 20
20.2847
 30
0.0
 11
112.889
 21
19.9099
 31
0.0
  0
LINE
  8
0
 62
     0
 10
112.889
 20
19.9099
 30
0.0
 11
112.907
 21
18.7854
 31
0.0
  0
LINE
  8
0
 62
     0
 10
112.907
 20
18.7854
 30
0.0
 11
113.012
 21
17.9972
 31
0.0
  0
LINE
  8
0
 62
     0
 10
113.012
 20
17.9972
 30
0.0
 11
113.275
 21
17.6912
 31
0.0
  0
LINE
  8
0
 62
     0
 10
113.275
 20
17.6912
 30
0.0
 11
113.647
 21
17.6389
 31
0.0
  0
LINE
  8
0
 62
     0
 10
113.647
 20
17.6389
 30
0.0
 11
113.771
 21
17.6389
 31
0.0
  0
LINE
  8
0
 62
     0
 10
113.771
 20
17.6389
 30
0.0
 11
113.891
 21
17.6389
 31
0.0
  0
LINE
  8
0
 62
     0
 10
113.891
 20
17.6389
 30
0.0
 11
114.25
 21
17.5975
 31
0.0
  0
LINE
  8
0
 62
     0
 10
114.25
 20
17.5975
 30
0.0
 11
114.515
 21
17.3798
 31
0.0
  0
LINE
  8
0
 62
     0
 10
114.515
 20
17.3798
 30
0.0
 11
114.628
 21
16.8506
 31
0.0
  0
LINE
  8
0
 62
     0
 10
114.628
 20
16.8506
 30
0.0
 11
114.653
 21
16.1189
 31
0.0
  0
LINE
  8
0
 62
     0
 10
114.653
 20
16.1189
 30
0.0
 11
114.653
 21
15.875
 31
0.0
  0
LINE
  8
0
 62
     0
 10
114.653
 20
15.875
 30
0.0
 11
114.653
 21
15.6325
 31
0.0
  0
LINE
  8
0
 62
     0
 10
114.653
 20
15.6325
 30
0.0
 11
114.676
 21
14.9007
 31
0.0
  0
LINE
  8
0
 62
     0
 10
114.676
 20
14.9007
 30
0.0
 11
114.789
 21
14.3716
 31
0.0
  0
LINE
  8
0
 62
     0
 10
114.789
 20
14.3716
 30
0.0
 11
115.054
 21
14.1538
 31
0.0
  0
LINE
  8
0
 62
     0
 10
115.054
 20
14.1538
 30
0.0
 11
115.413
 21
14.1111
 31
0.0
  0
LINE
  8
0
 62
     0
 10
115.413
 20
14.1111
 30
0.0
 11
115.535
 21
14.1111
 31
0.0
  0
LINE
  8
0
 62
     0
 10
115.535
 20
14.1111
 30
0.0
 11
115.655
 21
14.1111
 31
0.0
  0
LINE
  8
0
 62
     0
 10
115.655
 20
14.1111
 30
0.0
 11
116.014
 21
14.0698
 31
0.0
  0
LINE
  8
0
 62
     0
 10
116.014
 20
14.0698
 30
0.0
 11
116.279
 21
13.852
 31
0.0
  0
LINE
  8
0
 62
     0
 10
116.279
 20
13.852
 30
0.0
 11
116.392
 21
13.3229
 31
0.0
  0
LINE
  8
0
 62
     0
 10
116.392
 20
13.3229
 30
0.0
 11
116.417
 21
12.5911
 31
0.0
  0
LINE
  8
0
 62
     0
 10
116.417
 20
12.5911
 30
0.0
 11
116.417
 21
12.3472
 31
0.0
  0
LINE
  8
0
 62
     0
 10
116.417
 20
12.3472
 30
0.0
 11
116.417
 21
12.1047
 31
0.0
  0
LINE
  8
0
 62
     0
 10
116.417
 20
12.1047
 30
0.0
 11
116.44
 21
11.373
 31
0.0
  0
LINE
  8
0
 62
     0
 10
116.44
 20
11.373
 30
0.0
 11
116.553
 21
10.8438
 31
0.0
  0
LINE
  8
0
 62
     0
 10
116.553
 20
10.8438
 30
0.0
 11
116.818
 21
10.6261
 31
0.0
  0
LINE
  8
0
 62
     0
 10
116.818
 20
10.6261
 30
0.0
 11
117.177
 21
10.5833
 31
0.0
  0
LINE
  8
0
 62
     0
 10
117.177
 20
10.5833
 30
0.0
 11
117.299
 21
10.5833
 31
0.0
  0
LINE
  8
0
 62
     0
 10
117.299
 20
10.5833
 30
0.0
 11
117.408
 21
10.5833
 31
0.0
  0
LINE
  8
0
 62
     0
 10
117.408
 20
10.5833
 30
0.0
 11
117.734
 21
10.5447
 31
0.0
  0
LINE
  8
0
 62
     0
 10
117.734
 20
10.5447
 30
0.0
 11
118.004
 21
10.4069
 31
0.0
  0
LINE
  8
0
 62
     0
 10
118.004
 20
10.4069
 30
0.0
 11
118.142
 21
10.1369
 31
0.0
  0
LINE
  8
0
 62
     0
 10
118.142
 20
10.1369
 30
0.0
 11
118.181
 21
9.81026
 31
0.0
  0
LINE
  8
0
 62
     0
 10
118.181
 20
9.81026
 30
0.0
 11
118.181
 21
9.70139
 31
0.0
  0
LINE
  8
0
 62
     0
 10
118.181
 20
9.70139
 30
0.0
 11
118.181
 21
9.59252
 31
0.0
  0
LINE
  8
0
 62
     0
 10
118.181
 20
9.59252
 30
0.0
 11
118.219
 21
9.26592
 31
0.0
  0
LINE
  8
0
 62
     0
 10
118.219
 20
9.26592
 30
0.0
 11
118.357
 21
8.99583
 31
0.0
  0
LINE
  8
0
 62
     0
 10
118.357
 20
8.99583
 30
0.0
 11
118.627
 21
8.85804
 31
0.0
  0
LINE
  8
0
 62
     0
 10
118.627
 20
8.85804
 30
0.0
 11
118.953
 21
8.81944
 31
0.0
  0
LINE
  8
0
 62
     0
 10
118.953
 20
8.81944
 30
0.0
 11
119.063
 21
8.81944
 31
0.0
  0
LINE
  8
0
 62
     0
 10
119.063
 20
8.81944
 30
0.0
 11
119.182
 21
8.81944
 31
0.0
  0
LINE
  8
0
 62
     0
 10
119.182
 20
8.81944
 30
0.0
 11
119.542
 21
8.7781
 31
0.0
  0
LINE
  8
0
 62
     0
 10
119.542
 20
8.7781
 30
0.0
 11
119.807
 21
8.56036
 31
0.0
  0
LINE
  8
0
 62
     0
 10
119.807
 20
8.56036
 30
0.0
 11
119.92
 21
8.0312
 31
0.0
  0
LINE
  8
0
 62
     0
 10
119.92
 20
8.0312
 30
0.0
 11
119.944
 21
7.29947
 31
0.0
  0
LINE
  8
0
 62
     0
 10
119.944
 20
7.29947
 30
0.0
 11
119.944
 21
7.05556
 31
0.0
  0
LINE
  8
0
 62
     0
 10
119.944
 20
7.05556
 30
0.0
 11
119.944
 21
6.81302
 31
0.0
  0
LINE
  8
0
 62
     0
 10
119.944
 20
6.81302
 30
0.0
 11
119.968
 21
6.08129
 31
0.0
  0
LINE
  8
0
 62
     0
 10
119.968
 20
6.08129
 30
0.0
 11
120.081
 21
5.55212
 31
0.0
  0
LINE
  8
0
 62
     0
 10
120.081
 20
5.55212
 30
0.0
 11
120.346
 21
5.33439
 31
0.0
  0
LINE
  8
0
 62
     0
 10
120.346
 20
5.33439
 30
0.0
 11
120.705
 21
5.29167
 31
0.0
  0
LINE
  8
0
 62
     0
 10
120.705
 20
5.29167
 30
0.0
 11
120.826
 21
5.29167
 31
0.0
  0
LINE
  8
0
 62
     0
 10
120.826
 20
5.29167
 30
0.0
 11
120.946
 21
5.29167
 31
0.0
  0
LINE
  8
0
 62
     0
 10
120.946
 20
5.29167
 30
0.0
 11
121.306
 21
5.25032
 31
0.0
  0
LINE
  8
0
 62
     0
 10
121.306
 20
5.25032
 30
0.0
 11
121.57
 21
5.03259
 31
0.0
  0
LINE
  8
0
 62
     0
 10
121.57
 20
5.03259
 30
0.0
 11
121.684
 21
4.50342
 31
0.0
  0
LINE
  8
0
 62
     0
 10
121.684
 20
4.50342
 30
0.0
 11
121.708
 21
3.77169
 31
0.0
  0
LINE
  8
0
 62
     0
 10
121.708
 20
3.77169
 30
0.0
 11
121.708
 21
3.52778
 31
0.0
  0
LINE
  8
0
 62
     0
 10
121.708
 20
3.52778
 30
0.0
 11
121.708
 21
3.28524
 31
0.0
  0
LINE
  8
0
 62
     0
 10
121.708
 20
3.28524
 30
0.0
 11
121.732
 21
2.5535
 31
0.0
  0
LINE
  8
0
 62
     0
 10
121.732
 20
2.5535
 30
0.0
 11
121.845
 21
2.02434
 31
0.0
  0
LINE
  8
0
 62
     0
 10
121.845
 20
2.02434
 30
0.0
 11
122.109
 21
1.80661
 31
0.0
  0
LINE
  8
0
 62
     0
 10
122.109
 20
1.80661
 30
0.0
 11
122.469
 21
1.76389
 31
0.0
  0
LINE
  8
0
 62
     0
 10
122.469
 20
1.76389
 30
0.0
 11
122.59
 21
1.76389
 31
0.0
  0
LINE
  8
0
 62
     0
 10
122.59
 20
1.76389
 30
0.0
 11
122.699
 21
1.76389
 31
0.0
  0
LINE
  8
0
 62
     0
 10
122.699
 20
1.76389
 30
0.0
 11
123.026
 21
1.72531
 31
0.0
  0
LINE
  8
0
 62
     0
 10
123.026
 20
1.72531
 30
0.0
 11
123.296
 21
1.5875
 31
0.0
  0
LINE
  8
0
 62
     0
 10
123.296
 20
1.5875
 30
0.0
 11
123.434
 21
1.31741
 31
0.0
  0
LINE
  8
0
 62
     0
 10
123.434
 20
1.31741
 30
0.0
 11
123.472
 21
0.990808
 31
0.0
  0
LINE
  8
0
 62
     0
 10
123.472
 20
0.990808
 30
0.0
 11
123.472
 21
0.881944
 31
0.0
  0
LINE
  8
0
 62
     0
 10
123.472
 20
0.881944
 30
0.0
 11
123.472
 21
0.773081
 31
0.0
  0
LINE
  8
0
 62
     0
 10
123.472
 20
0.773081
 30
0.0
 11
123.511
 21
0.446486
 31
0.0
  0
LINE
  8
0
 62
     0
 10
123.511
 20
0.446486
 30
0.0
 11
123.649
 21
0.176389
 31
0.0
  0
LINE
  8
0
 62
     0
 10
123.649
 20
0.176389
 30
0.0
 11
123.919
 21
0.0385851
 31
0.0
  0
LINE
  8
0
 62
     0
 10
123.919
 20
0.0385851
 30
0.0
 11
124.245
 21
0
 31
0.0
  0
LINE
  8
0
 62
     0
 10
124.245
 20
0
 30
0.0
 11
124.354
 21
0
 31
0.0
  0
LINE
  8
0
 62
     0
 10
124.354
 20
0
 30
0.0
 11
124.463
 21
0
 31
0.0
  0
LINE
  8
0
 62
     0
 10
124.463
 20
0
 30
0.0
 11
124.789
 21
0.0385851
 31
0.0
  0
LINE
  8
0
 62
     0
 10
124.789
 20
0.0385851
 30
0.0
 11
125.06
 21
0.176389
 31
0.0
  0
LINE
  8
0
 62
     0
 10
125.06
 20
0.176389
 30
0.0
 11
125.198
 21
0.446486
 31
0.0
  0
LINE
  8
0
 62
     0
 10
125.198
 20
0.446486
 30
0.0
 11
125.236
 21
0.773081
 31
0.0
  0
LINE
  8
0
 62
     0
 10
125.236
 20
0.773081
 30
0.0
 11
125.236
 21
0.881944
 31
0.0
  0
LINE
  8
0
 62
     0
 10
125.236
 20
0.881944
 30
0.0
 11
125.236
 21
0.990808
 31
0.0
  0
LINE
  8
0
 62
     0
 10
125.236
 20
0.990808
 30
0.0
 11
125.275
 21
1.31741
 31
0.0
  0
LINE
  8
0
 62
     0
 10
125.275
 20
1.31741
 30
0.0
 11
125.413
 21
1.5875
 31
0.0
  0
LINE
  8
0
 62
     0
 10
125.413
 20
1.5875
 30
0.0
 11
125.683
 21
1.72531
 31
0.0
  0
LINE
  8
0
 62
     0
 10
125.683
 20
1.72531
 30
0.0
 11
126.009
 21
1.76389
 31
0.0
  0
LINE
  8
0
 62
     0
 10
126.009
 20
1.76389
 30
0.0
 11
126.118
 21
1.76389
 31
0.0
  0
LINE
  8
0
 62
     0
 10
126.118
 20
1.76389
 30
0.0
 11
126.227
 21
1.76389
 31
0.0
  0
LINE
  8
0
 62
     0
 10
126.227
 20
1.76389
 30
0.0
 11
126.553
 21
1.80248
 31
0.0
  0
LINE
  8
0
 62
     0
 10
126.553
 20
1.80248
 30
0.0
 11
126.824
 21
1.94028
 31
0.0
  0
LINE
  8
0
 62
     0
 10
126.824
 20
1.94028
 30
0.0
 11
126.962
 21
2.21037
 31
0.0
  0
LINE
  8
0
 62
     0
 10
126.962
 20
2.21037
 30
0.0
 11
127
 21
2.53697
 31
0.0
  0
LINE
  8
0
 62
     0
 10
127
 20
2.53697
 30
0.0
 11
127
 21
2.64583
 31
0.0
  0
LINE
  8
0
 62
     0
 10
127
 20
2.64583
 30
0.0
 11
127
 21
2.7547
 31
0.0
  0
LINE
  8
0
 62
     0
 10
127
 20
2.7547
 30
0.0
 11
127.038
 21
3.0813
 31
0.0
  0
LINE
  8
0
 62
     0
 10
127.038
 20
3.0813
 30
0.0
 11
127.176
 21
3.35139
 31
0.0
  0
LINE
  8
0
 62
     0
 10
127.176
 20
3.35139
 30
0.0
 11
127.447
 21
3.48919
 31
0.0
  0
LINE
  8
0
 62
     0
 10
127.447
 20
3.48919
 30
0.0
 11
127.773
 21
3.52778
 31
0.0
  0
LINE
  8
0
 62
     0
 10
127.773
 20
3.52778
 30
0.0
 11
127.882
 21
3.52778
 31
0.0
  0
LINE
  8
0
 62
     0
 10
127.882
 20
3.52778
 30
0.0
 11
128.002
 21
3.52778
 31
0.0
  0
LINE
  8
0
 62
     0
 10
128.002
 20
3.52778
 30
0.0
 11
128.361
 21
3.5705
 31
0.0
  0
LINE
  8
0
 62
     0
 10
128.361
 20
3.5705
 30
0.0
 11
128.626
 21
3.78823
 31
0.0
  0
LINE
  8
0
 62
     0
 10
128.626
 20
3.78823
 30
0.0
 11
128.739
 21
4.3174
 31
0.0
  0
LINE
  8
0
 62
     0
 10
128.739
 20
4.3174
 30
0.0
 11
128.764
 21
5.04913
 31
0.0
  0
LINE
  8
0
 62
     0
 10
128.764
 20
5.04913
 30
0.0
 11
128.764
 21
5.29167
 31
0.0
  0
LINE
  8
0
 62
     0
 10
128.764
 20
5.29167
 30
0.0
 11
128.764
 21
5.53558
 31
0.0
  0
LINE
  8
0
 62
     0
 10
128.764
 20
5.53558
 30
0.0
 11
128.739
 21
6.26731
 31
0.0
  0
LINE
  8
0
 62
     0
 10
128.739
 20
6.26731
 30
0.0
 11
128.626
 21
6.79648
 31
0.0
  0
LINE
  8
0
 62
     0
 10
128.626
 20
6.79648
 30
0.0
 11
128.361
 21
7.01421
 31
0.0
  0
LINE
  8
0
 62
     0
 10
128.361
 20
7.01421
 30
0.0
 11
128.002
 21
7.05556
 31
0.0
  0
LINE
  8
0
 62
     0
 10
128.002
 20
7.05556
 30
0.0
 11
127.882
 21
7.05556
 31
0.0
  0
LINE
  8
0
 62
     0
 10
127.882
 20
7.05556
 30
0.0
 11
127.773
 21
7.05556
 31
0.0
  0
LINE
  8
0
 62
     0
 10
127.773
 20
7.05556
 30
0.0
 11
127.447
 21
7.09415
 31
0.0
  0
LINE
  8
0
 62
     0
 10
127.447
 20
7.09415
 30
0.0
 11
127.176
 21
7.23194
 31
0.0
  0
LINE
  8
0
 62
     0
 10
127.176
 20
7.23194
 30
0.0
 11
127.038
 21
7.50203
 31
0.0
  0
LINE
  8
0
 62
     0
 10
127.038
 20
7.50203
 30
0.0
 11
127
 21
7.82863
 31
0.0
  0
LINE
  8
0
 62
     0
 10
127
 20
7.82863
 30
0.0
 11
127
 21
7.9375
 31
0.0
  0
LINE
  8
0
 62
     0
 10
127
 20
7.9375
 30
0.0
 11
127
 21
8.05878
 31
0.0
  0
LINE
  8
0
 62
     0
 10
127
 20
8.05878
 30
0.0
 11
126.957
 21
8.41844
 31
0.0
  0
LINE
  8
0
 62
     0
 10
126.957
 20
8.41844
 30
0.0
 11
126.74
 21
8.68303
 31
0.0
  0
LINE
  8
0
 62
     0
 10
126.74
 20
8.68303
 30
0.0
 11
126.21
 21
8.79602
 31
0.0
  0
LINE
  8
0
 62
     0
 10
126.21
 20
8.79602
 30
0.0
 11
125.479
 21
8.81944
 31
0.0
  0
LINE
  8
0
 62
     0
 10
125.479
 20
8.81944
 30
0.0
 11
125.236
 21
8.81944
 31
0.0
  0
LINE
  8
0
 62
     0
 10
125.236
 20
8.81944
 30
0.0
 11
124.992
 21
8.81944
 31
0.0
  0
LINE
  8
0
 62
     0
 10
124.992
 20
8.81944
 30
0.0
 11
124.26
 21
8.84424
 31
0.0
  0
LINE
  8
0
 62
     0
 10
124.26
 20
8.84424
 30
0.0
 11
123.731
 21
8.95724
 31
0.0
  0
LINE
  8
0
 62
     0
 10
123.731
 20
8.95724
 30
0.0
 11
123.513
 21
9.22182
 31
0.0
  0
LINE
  8
0
 62
     0
 10
123.513
 20
9.22182
 30
0.0
 11
123.472
 21
9.58152
 31
0.0
  0
LINE
  8
0
 62
     0
 10
123.472
 20
9.58152
 30
0.0
 11
123.472
 21
9.70139
 31
0.0
  0
LINE
  8
0
 62
     0
 10
123.472
 20
9.70139
 30
0.0
 11
123.472
 21
9.81026
 31
0.0
  0
LINE
  8
0
 62
     0
 10
123.472
 20
9.81026
 30
0.0
 11
123.434
 21
10.1369
 31
0.0
  0
LINE
  8
0
 62
     0
 10
123.434
 20
10.1369
 30
0.0
 11
123.296
 21
10.4069
 31
0.0
  0
LINE
  8
0
 62
     0
 10
123.296
 20
10.4069
 30
0.0
 11
123.026
 21
10.5447
 31
0.0
  0
LINE
  8
0
 62
     0
 10
123.026
 20
10.5447
 30
0.0
 11
122.699
 21
10.5833
 31
0.0
  0
LINE
  8
0
 62
     0
 10
122.699
 20
10.5833
 30
0.0
 11
122.59
 21
10.5833
 31
0.0
  0
LINE
  8
0
 62
     0
 10
122.59
 20
10.5833
 30
0.0
 11
122.466
 21
10.5833
 31
0.0
  0
LINE
  8
0
 62
     0
 10
122.466
 20
10.5833
 30
0.0
 11
122.094
 21
10.6357
 31
0.0
  0
LINE
  8
0
 62
     0
 10
122.094
 20
10.6357
 30
0.0
 11
121.831
 21
10.9416
 31
0.0
  0
LINE
  8
0
 62
     0
 10
121.831
 20
10.9416
 30
0.0
 11
121.726
 21
11.7299
 31
0.0
  0
LINE
  8
0
 62
     0
 10
121.726
 20
11.7299
 30
0.0
 11
121.708
 21
12.8543
 31
0.0
  0
LINE
  8
0
 62
     0
 10
121.708
 20
12.8543
 30
0.0
 11
121.708
 21
13.2292
 31
0.0
  0
LINE
  8
0
 62
     0
 10
121.708
 20
13.2292
 30
0.0
 11
121.708
 21
13.6054
 31
0.0
  0
LINE
  8
0
 62
     0
 10
121.708
 20
13.6054
 30
0.0
 11
121.689
 21
14.7298
 31
0.0
  0
LINE
  8
0
 62
     0
 10
121.689
 20
14.7298
 30
0.0
 11
121.584
 21
15.5181
 31
0.0
  0
LINE
  8
0
 62
     0
 10
121.584
 20
15.5181
 30
0.0
 11
121.321
 21
15.824
 31
0.0
  0
LINE
  8
0
 62
     0
 10
121.321
 20
15.824
 30
0.0
 11
120.949
 21
15.875
 31
0.0
  0
LINE
  8
0
 62
     0
 10
120.949
 20
15.875
 30
0.0
 11
120.826
 21
15.875
 31
0.0
  0
LINE
  8
0
 62
     0
 10
120.826
 20
15.875
 30
0.0
 11
120.717
 21
15.875
 31
0.0
  0
LINE
  8
0
 62
     0
 10
120.717
 20
15.875
 30
0.0
 11
120.391
 21
15.9136
 31
0.0
  0
LINE
  8
0
 62
     0
 10
120.391
 20
15.9136
 30
0.0
 11
120.121
 21
16.0514
 31
0.0
  0
LINE
  8
0
 62
     0
 10
120.121
 20
16.0514
 30
0.0
 11
119.983
 21
16.3215
 31
0.0
  0
LINE
  8
0
 62
     0
 10
119.983
 20
16.3215
 30
0.0
 11
119.944
 21
16.6481
 31
0.0
  0
LINE
  8
0
 62
     0
 10
119.944
 20
16.6481
 30
0.0
 11
119.944
 21
16.7569
 31
0.0
  0
LINE
  8
0
 62
     0
 10
119.944
 20
16.7569
 30
0.0
 11
119.944
 21
16.8658
 31
0.0
  0
LINE
  8
0
 62
     0
 10
119.944
 20
16.8658
 30
0.0
 11
119.906
 21
17.1924
 31
0.0
  0
LINE
  8
0
 62
     0
 10
119.906
 20
17.1924
 30
0.0
 11
119.768
 21
17.4625
 31
0.0
  0
LINE
  8
0
 62
     0
 10
119.768
 20
17.4625
 30
0.0
 11
119.498
 21
17.6003
 31
0.0
  0
LINE
  8
0
 62
     0
 10
119.498
 20
17.6003
 30
0.0
 11
119.172
 21
17.6389
 31
0.0
  0
LINE
  8
0
 62
     0
 10
119.172
 20
17.6389
 30
0.0
 11
119.063
 21
17.6389
 31
0.0
  0
LINE
  8
0
 62
     0
 10
119.063
 20
17.6389
 30
0.0
 11
118.181
 21
17.6389
 31
0.0
  0
LINE
  8
0
 62
     0
 10
118.181
 20
17.6389
 30
0.0
 11
118.181
 21
24.6944
 31
0.0
  0
LINE
  8
0
 62
     0
 10
118.181
 20
24.6944
 30
0.0
 11
117.299
 21
24.6944
 31
0.0
  0
LINE
  8
0
 62
     0
 10
117.299
 20
24.6944
 30
0.0
 11
117.177
 21
24.6944
 31
0.0
  0
LINE
  8
0
 62
     0
 10
117.177
 20
24.6944
 30
0.0
 11
116.818
 21
24.7372
 31
0.0
  0
LINE
  8
0
 62
     0
 10
116.818
 20
24.7372
 30
0.0
 11
116.553
 21
24.9549
 31
0.0
  0
LINE
  8
0
 62
     0
 10
116.553
 20
24.9549
 30
0.0
 11
116.44
 21
25.4841
 31
0.0
  0
LINE
  8
0
 62
     0
 10
116.44
 20
25.4841
 30
0.0
 11
116.417
 21
26.2158
 31
0.0
  0
LINE
  8
0
 62
     0
 10
116.417
 20
26.2158
 30
0.0
 11
116.417
 21
26.4583
 31
0.0
  0
LINE
  8
0
 62
     0
 10
116.417
 20
26.4583
 30
0.0
 11
116.417
 21
26.7022
 31
0.0
  0
LINE
  8
0
 62
     0
 10
116.417
 20
26.7022
 30
0.0
 11
116.44
 21
27.434
 31
0.0
  0
LINE
  8
0
 62
     0
 10
116.44
 20
27.434
 30
0.0
 11
116.553
 21
27.9631
 31
0.0
  0
LINE
  8
0
 62
     0
 10
116.553
 20
27.9631
 30
0.0
 11
116.818
 21
28.1809
 31
0.0
  0
LINE
  8
0
 62
     0
 10
116.818
 20
28.1809
 30
0.0
 11
117.177
 21
28.2222
 31
0.0
  0
LINE
  8
0
 62
     0
 10
117.177
 20
28.2222
 30
0.0
 11
117.299
 21
28.2222
 31
0.0
  0
LINE
  8
0
 62
     0
 10
117.299
 20
28.2222
 30
0.0
 11
117.408
 21
28.2222
 31
0.0
  0
LINE
  8
0
 62
     0
 10
117.408
 20
28.2222
 30
0.0
 11
117.734
 21
28.1836
 31
0.0
  0
LINE
  8
0
 62
     0
 10
117.734
 20
28.1836
 30
0.0
 11
118.004
 21
28.0458
 31
0.0
  0
LINE
  8
0
 62
     0
 10
118.004
 20
28.0458
 30
0.0
 11
118.142
 21
27.7757
 31
0.0
  0
LINE
  8
0
 62
     0
 10
118.142
 20
27.7757
 30
0.0
 11
118.181
 21
27.4491
 31
0.0
  0
LINE
  8
0
 62
     0
 10
118.181
 20
27.4491
 30
0.0
 11
118.181
 21
27.3403
 31
0.0
  0
LINE
  8
0
 62
     0
 10
118.181
 20
27.3403
 30
0.0
 11
118.181
 21
27.2314
 31
0.0
  0
LINE
  8
0
 62
     0
 10
118.181
 20
27.2314
 30
0.0
 11
118.219
 21
26.9048
 31
0.0
  0
LINE
  8
0
 62
     0
 10
118.219
 20
26.9048
 30
0.0
 11
118.357
 21
26.6347
 31
0.0
  0
LINE
  8
0
 62
     0
 10
118.357
 20
26.6347
 30
0.0
 11
118.627
 21
26.4969
 31
0.0
  0
LINE
  8
0
 62
     0
 10
118.627
 20
26.4969
 30
0.0
 11
118.953
 21
26.4583
 31
0.0
  0
LINE
  8
0
 62
     0
 10
118.953
 20
26.4583
 30
0.0
 11
119.063
 21
26.4583
 31
0.0
  0
LINE
  8
0
 62
     0
 10
119.063
 20
26.4583
 30
0.0
 11
119.182
 21
26.4583
 31
0.0
  0
LINE
  8
0
 62
     0
 10
119.182
 20
26.4583
 30
0.0
 11
119.542
 21
26.417
 31
0.0
  0
LINE
  8
0
 62
     0
 10
119.542
 20
26.417
 30
0.0
 11
119.807
 21
26.1993
 31
0.0
  0
LINE
  8
0
 62
     0
 10
119.807
 20
26.1993
 30
0.0
 11
119.92
 21
25.6701
 31
0.0
  0
LINE
  8
0
 62
     0
 10
119.92
 20
25.6701
 30
0.0
 11
119.944
 21
24.9384
 31
0.0
  0
LINE
  8
0
 62
     0
 10
119.944
 20
24.9384
 30
0.0
 11
119.944
 21
24.6944
 31
0.0
  0
LINE
  8
0
 62
     0
 10
119.944
 20
24.6944
 30
0.0
 11
119.944
 21
24.4519
 31
0.0
  0
LINE
  8
0
 62
     0
 10
119.944
 20
24.4519
 30
0.0
 11
119.968
 21
23.7202
 31
0.0
  0
LINE
  8
0
 62
     0
 10
119.968
 20
23.7202
 30
0.0
 11
120.081
 21
23.191
 31
0.0
  0
LINE
  8
0
 62
     0
 10
120.081
 20
23.191
 30
0.0
 11
120.346
 21
22.9733
 31
0.0
  0
LINE
  8
0
 62
     0
 10
120.346
 20
22.9733
 30
0.0
 11
120.705
 21
22.9306
 31
0.0
  0
LINE
  8
0
 62
     0
 10
120.705
 20
22.9306
 30
0.0
 11
120.826
 21
22.9306
 31
0.0
  0
LINE
  8
0
 62
     0
 10
120.826
 20
22.9306
 30
0.0
 11
120.946
 21
22.9306
 31
0.0
  0
LINE
  8
0
 62
     0
 10
120.946
 20
22.9306
 30
0.0
 11
121.306
 21
22.8892
 31
0.0
  0
LINE
  8
0
 62
     0
 10
121.306
 20
22.8892
 30
0.0
 11
121.57
 21
22.6715
 31
0.0
  0
LINE
  8
0
 62
     0
 10
121.57
 20
22.6715
 30
0.0
 11
121.684
 21
22.1423
 31
0.0
  0
LINE
  8
0
 62
     0
 10
121.684
 20
22.1423
 30
0.0
 11
121.708
 21
21.4106
 31
0.0
  0
LINE
  8
0
 62
     0
 10
121.708
 20
21.4106
 30
0.0
 11
121.708
 21
21.1667
 31
0.0
  0
LINE
  8
0
 62
     0
 10
121.708
 20
21.1667
 30
0.0
 11
121.708
 21
20.9241
 31
0.0
  0
LINE
  8
0
 62
     0
 10
121.708
 20
20.9241
 30
0.0
 11
121.732
 21
20.1924
 31
0.0
  0
LINE
  8
0
 62
     0
 10
121.732
 20
20.1924
 30
0.0
 11
121.845
 21
19.6632
 31
0.0
  0
LINE
  8
0
 62
     0
 10
121.845
 20
19.6632
 30
0.0
 11
122.109
 21
19.4455
 31
0.0
  0
LINE
  8
0
 62
     0
 10
122.109
 20
19.4455
 30
0.0
 11
122.469
 21
19.4028
 31
0.0
  0
LINE
  8
0
 62
     0
 10
122.469
 20
19.4028
 30
0.0
 11
122.59
 21
19.4028
 31
0.0
  0
LINE
  8
0
 62
     0
 10
122.59
 20
19.4028
 30
0.0
 11
122.699
 21
19.4028
 31
0.0
  0
LINE
  8
0
 62
     0
 10
122.699
 20
19.4028
 30
0.0
 11
123.026
 21
19.3642
 31
0.0
  0
LINE
  8
0
 62
     0
 10
123.026
 20
19.3642
 30
0.0
 11
123.296
 21
19.2264
 31
0.0
  0
LINE
  8
0
 62
     0
 10
123.296
 20
19.2264
 30
0.0
 11
123.434
 21
18.9563
 31
0.0
  0
LINE
  8
0
 62
     0
 10
123.434
 20
18.9563
 30
0.0
 11
123.472
 21
18.6297
 31
0.0
  0
LINE
  8
0
 62
     0
 10
123.472
 20
18.6297
 30
0.0
 11
123.472
 21
18.5208
 31
0.0
  0
LINE
  8
0
 62
     0
 10
123.472
 20
18.5208
 30
0.0
 11
123.472
 21
18.412
 31
0.0
  0
LINE
  8
0
 62
     0
 10
123.472
 20
18.412
 30
0.0
 11
123.511
 21
18.0854
 31
0.0
  0
LINE
  8
0
 62
     0
 10
123.511
 20
18.0854
 30
0.0
 11
123.649
 21
17.8153
 31
0.0
  0
LINE
  8
0
 62
     0
 10
123.649
 20
17.8153
 30
0.0
 11
123.919
 21
17.6775
 31
0.0
  0
LINE
  8
0
 62
     0
 10
123.919
 20
17.6775
 30
0.0
 11
124.245
 21
17.6389
 31
0.0
  0
LINE
  8
0
 62
     0
 10
124.245
 20
17.6389
 30
0.0
 11
124.354
 21
17.6389
 31
0.0
  0
LINE
  8
0
 62
     0
 10
124.354
 20
17.6389
 30
0.0
 11
124.463
 21
17.6389
 31
0.0
  0
LINE
  8
0
 62
     0
 10
124.463
 20
17.6389
 30
0.0
 11
124.789
 21
17.6003
 31
0.0
  0
LINE
  8
0
 62
     0
 10
124.789
 20
17.6003
 30
0.0
 11
125.06
 21
17.4625
 31
0.0
  0
LINE
  8
0
 62
     0
 10
125.06
 20
17.4625
 30
0.0
 11
125.198
 21
17.1924
 31
0.0
  0
LINE
  8
0
 62
     0
 10
125.198
 20
17.1924
 30
0.0
 11
125.236
 21
16.8658
 31
0.0
  0
LINE
  8
0
 62
     0
 10
125.236
 20
16.8658
 30
0.0
 11
125.236
 21
16.7569
 31
0.0
  0
LINE
  8
0
 62
     0
 10
125.236
 20
16.7569
 30
0.0
 11
125.236
 21
16.6481
 31
0.0
  0
LINE
  8
0
 62
     0
 10
125.236
 20
16.6481
 30
0.0
 11
125.275
 21
16.3215
 31
0.0
  0
LINE
  8
0
 62
     0
 10
125.275
 20
16.3215
 30
0.0
 11
125.413
 21
16.0514
 31
0.0
  0
LINE
  8
0
 62
     0
 10
125.413
 20
16.0514
 30
0.0
 11
125.683
 21
15.9136
 31
0.0
  0
LINE
  8
0
 62
     0
 10
125.683
 20
15.9136
 30
0.0
 11
126.009
 21
15.875
 31
0.0
  0
LINE
  8
0
 62
     0
 10
126.009
 20
15.875
 30
0.0
 11
126.118
 21
15.875
 31
0.0
  0
LINE
  8
0
 62
     0
 10
126.118
 20
15.875
 30
0.0
 11
126.227
 21
15.875
 31
0.0
  0
LINE
  8
0
 62
     0
 10
126.227
 20
15.875
 30
0.0
 11
126.553
 21
15.8364
 31
0.0
  0
LINE
  8
0
 62
     0
 10
126.553
 20
15.8364
 30
0.0
 11
126.824
 21
15.6986
 31
0.0
  0
LINE
  8
0
 62
     0
 10
126.824
 20
15.6986
 30
0.0
 11
126.962
 21
15.4285
 31
0.0
  0
LINE
  8
0
 62
     0
 10
126.962
 20
15.4285
 30
0.0
 11
127
 21
15.1019
 31
0.0
  0
LINE
  8
0
 62
     0
 10
127
 20
15.1019
 30
0.0
 11
127
 21
14.9931
 31
0.0
  0
LINE
  8
0
 62
     0
 10
127
 20
14.9931
 30
0.0
 11
127
 21
14.8732
 31
0.0
  0
LINE
  8
0
 62
     0
 10
127
 20
14.8732
 30
0.0
 11
127.041
 21
14.5135
 31
0.0
  0
LINE
  8
0
 62
     0
 10
127.041
 20
14.5135
 30
0.0
 11
127.259
 21
14.2489
 31
0.0
  0
LINE
  8
0
 62
     0
 10
127.259
 20
14.2489
 30
0.0
 11
127.788
 21
14.1359
 31
0.0
  0
LINE
  8
0
 62
     0
 10
127.788
 20
14.1359
 30
0.0
 11
128.52
 21
14.1111
 31
0.0
  0
LINE
  8
0
 62
     0
 10
128.52
 20
14.1111
 30
0.0
 11
128.764
 21
14.1111
 31
0.0
  0
LINE
  8
0
 62
     0
 10
128.764
 20
14.1111
 30
0.0
 11
129.007
 21
14.1111
 31
0.0
  0
LINE
  8
0
 62
     0
 10
129.007
 20
14.1111
 30
0.0
 11
129.738
 21
14.0877
 31
0.0
  0
LINE
  8
0
 62
     0
 10
129.738
 20
14.0877
 30
0.0
 11
130.267
 21
13.9747
 31
0.0
  0
LINE
  8
0
 62
     0
 10
130.267
 20
13.9747
 30
0.0
 11
130.485
 21
13.7101
 31
0.0
  0
LINE
  8
0
 62
     0
 10
130.485
 20
13.7101
 30
0.0
 11
130.528
 21
13.3505
 31
0.0
  0
LINE
  8
0
 62
     0
 10
130.528
 20
13.3505
 30
0.0
 11
130.528
 21
13.2292
 31
0.0
  0
LINE
  8
0
 62
     0
 10
130.528
 20
13.2292
 30
0.0
 11
130.528
 21
13.1203
 31
0.0
  0
LINE
  8
0
 62
     0
 10
130.528
 20
13.1203
 30
0.0
 11
130.566
 21
12.7937
 31
0.0
  0
LINE
  8
0
 62
     0
 10
130.566
 20
12.7937
 30
0.0
 11
130.704
 21
12.5236
 31
0.0
  0
LINE
  8
0
 62
     0
 10
130.704
 20
12.5236
 30
0.0
 11
130.974
 21
12.3858
 31
0.0
  0
LINE
  8
0
 62
     0
 10
130.974
 20
12.3858
 30
0.0
 11
131.301
 21
12.3472
 31
0.0
  0
LINE
  8
0
 62
     0
 10
131.301
 20
12.3472
 30
0.0
 11
131.41
 21
12.3472
 31
0.0
  0
LINE
  8
0
 62
     0
 10
131.41
 20
12.3472
 30
0.0
 11
131.519
 21
12.3472
 31
0.0
  0
LINE
  8
0
 62
     0
 10
131.519
 20
12.3472
 30
0.0
 11
131.845
 21
12.3086
 31
0.0
  0
LINE
  8
0
 62
     0
 10
131.845
 20
12.3086
 30
0.0
 11
132.115
 21
12.1708
 31
0.0
  0
LINE
  8
0
 62
     0
 10
132.115
 20
12.1708
 30
0.0
 11
132.253
 21
11.9007
 31
0.0
  0
LINE
  8
0
 62
     0
 10
132.253
 20
11.9007
 30
0.0
 11
132.292
 21
11.5741
 31
0.0
  0
LINE
  8
0
 62
     0
 10
132.292
 20
11.5741
 30
0.0
 11
132.292
 21
11.4653
 31
0.0
  0
LINE
  8
0
 62
     0
 10
132.292
 20
11.4653
 30
0.0
 11
132.292
 21
11.3564
 31
0.0
  0
LINE
  8
0
 62
     0
 10
132.292
 20
11.3564
 30
0.0
 11
132.33
 21
11.0298
 31
0.0
  0
LINE
  8
0
 62
     0
 10
132.33
 20
11.0298
 30
0.0
 11
132.468
 21
10.7597
 31
0.0
  0
LINE
  8
0
 62
     0
 10
132.468
 20
10.7597
 30
0.0
 11
132.738
 21
10.6219
 31
0.0
  0
LINE
  8
0
 62
     0
 10
132.738
 20
10.6219
 30
0.0
 11
133.065
 21
10.5833
 31
0.0
  0
LINE
  8
0
 62
     0
 10
133.065
 20
10.5833
 30
0.0
 11
133.174
 21
10.5833
 31
0.0
  0
LINE
  8
0
 62
     0
 10
133.174
 20
10.5833
 30
0.0
 11
133.283
 21
10.5833
 31
0.0
  0
LINE
  8
0
 62
     0
 10
133.283
 20
10.5833
 30
0.0
 11
133.609
 21
10.5447
 31
0.0
  0
LINE
  8
0
 62
     0
 10
133.609
 20
10.5447
 30
0.0
 11
133.879
 21
10.4069
 31
0.0
  0
LINE
  8
0
 62
     0
 10
133.879
 20
10.4069
 30
0.0
 11
134.017
 21
10.1369
 31
0.0
  0
LINE
  8
0
 62
     0
 10
134.017
 20
10.1369
 30
0.0
 11
134.056
 21
9.81026
 31
0.0
  0
LINE
  8
0
 62
     0
 10
134.056
 20
9.81026
 30
0.0
 11
134.056
 21
9.70139
 31
0.0
  0
LINE
  8
0
 62
     0
 10
134.056
 20
9.70139
 30
0.0
 11
134.056
 21
9.59252
 31
0.0
  0
LINE
  8
0
 62
     0
 10
134.056
 20
9.59252
 30
0.0
 11
134.094
 21
9.26592
 31
0.0
  0
LINE
  8
0
 62
     0
 10
134.094
 20
9.26592
 30
0.0
 11
134.232
 21
8.99583
 31
0.0
  0
LINE
  8
0
 62
     0
 10
134.232
 20
8.99583
 30
0.0
 11
134.502
 21
8.85804
 31
0.0
  0
LINE
  8
0
 62
     0
 10
134.502
 20
8.85804
 30
0.0
 11
134.828
 21
8.81944
 31
0.0
  0
LINE
  8
0
 62
     0
 10
134.828
 20
8.81944
 30
0.0
 11
134.938
 21
8.81944
 31
0.0
  0
LINE
  8
0
 62
     0
 10
134.938
 20
8.81944
 30
0.0
 11
135.047
 21
8.81944
 31
0.0
  0
LINE
  8
0
 62
     0
 10
135.047
 20
8.81944
 30
0.0
 11
135.373
 21
8.78085
 31
0.0
  0
LINE
  8
0
 62
     0
 10
135.373
 20
8.78085
 30
0.0
 11
135.643
 21
8.64306
 31
0.0
  0
LINE
  8
0
 62
     0
 10
135.643
 20
8.64306
 30
0.0
 11
135.781
 21
8.37297
 31
0.0
  0
LINE
  8
0
 62
     0
 10
135.781
 20
8.37297
 30
0.0
 11
135.819
 21
8.04637
 31
0.0
  0
LINE
  8
0
 62
     0
 10
135.819
 20
8.04637
 30
0.0
 11
135.819
 21
7.9375
 31
0.0
  0
LINE
  8
0
 62
     0
 10
135.819
 20
7.9375
 30
0.0
 11
135.819
 21
7.82863
 31
0.0
  0
LINE
  8
0
 62
     0
 10
135.819
 20
7.82863
 30
0.0
 11
135.858
 21
7.50203
 31
0.0
  0
LINE
  8
0
 62
     0
 10
135.858
 20
7.50203
 30
0.0
 11
135.996
 21
7.23194
 31
0.0
  0
LINE
  8
0
 62
     0
 10
135.996
 20
7.23194
 30
0.0
 11
136.266
 21
7.09415
 31
0.0
  0
LINE
  8
0
 62
     0
 10
136.266
 20
7.09415
 30
0.0
 11
136.592
 21
7.05556
 31
0.0
  0
LINE
  8
0
 62
     0
 10
136.592
 20
7.05556
 30
0.0
 11
136.701
 21
7.05556
 31
0.0
  0
LINE
  8
0
 62
     0
 10
136.701
 20
7.05556
 30
0.0
 11
136.81
 21
7.05556
 31
0.0
  0
LINE
  8
0
 62
     0
 10
136.81
 20
7.05556
 30
0.0
 11
137.137
 21
7.09415
 31
0.0
  0
LINE
  8
0
 62
     0
 10
137.137
 20
7.09415
 30
0.0
 11
137.407
 21
7.23194
 31
0.0
  0
LINE
  8
0
 62
     0
 10
137.407
 20
7.23194
 30
0.0
 11
137.545
 21
7.50203
 31
0.0
  0
LINE
  8
0
 62
     0
 10
137.545
 20
7.50203
 30
0.0
 11
137.583
 21
7.82863
 31
0.0
  0
LINE
  8
0
 62
     0
 10
137.583
 20
7.82863
 30
0.0
 11
137.583
 21
7.9375
 31
0.0
  0
LINE
  8
0
 62
     0
 10
137.583
 20
7.9375
 30
0.0
 11
137.583
 21
8.04637
 31
0.0
  0
LINE
  8
0
 62
     0
 10
137.583
 20
8.04637
 30
0.0
 11
137.622
 21
8.37297
 31
0.0
  0
LINE
  8
0
 62
     0
 10
137.622
 20
8.37297
 30
0.0
 11
137.76
 21
8.64306
 31
0.0
  0
LINE
  8
0
 62
     0
 10
137.76
 20
8.64306
 30
0.0
 11
138.03
 21
8.78085
 31
0.0
  0
LINE
  8
0
 62
     0
 10
138.03
 20
8.78085
 30
0.0
 11
138.356
 21
8.81944
 31
0.0
  0
LINE
  8
0
 62
     0
 10
138.356
 20
8.81944
 30
0.0
 11
138.465
 21
8.81944
 31
0.0
  0
LINE
  8
0
 62
     0
 10
138.465
 20
8.81944
 30
0.0
 11
138.574
 21
8.81944
 31
0.0
  0
LINE
  8
0
 62
     0
 10
138.574
 20
8.81944
 30
0.0
 11
138.901
 21
8.85804
 31
0.0
  0
LINE
  8
0
 62
     0
 10
138.901
 20
8.85804
 30
0.0
 11
139.171
 21
8.99583
 31
0.0
  0
LINE
  8
0
 62
     0
 10
139.171
 20
8.99583
 30
0.0
 11
139.309
 21
9.26592
 31
0.0
  0
LINE
  8
0
 62
     0
 10
139.309
 20
9.26592
 30
0.0
 11
139.347
 21
9.59252
 31
0.0
  0
LINE
  8
0
 62
     0
 10
139.347
 20
9.59252
 30
0.0
 11
139.347
 21
9.70139
 31
0.0
  0
LINE
  8
0
 62
     0
 10
139.347
 20
9.70139
 30
0.0
 11
139.347
 21
9.81026
 31
0.0
  0
LINE
  8
0
 62
     0
 10
139.347
 20
9.81026
 30
0.0
 11
139.386
 21
10.1369
 31
0.0
  0
LINE
  8
0
 62
     0
 10
139.386
 20
10.1369
 30
0.0
 11
139.524
 21
10.4069
 31
0.0
  0
LINE
  8
0
 62
     0
 10
139.524
 20
10.4069
 30
0.0
 11
139.794
 21
10.5447
 31
0.0
  0
LINE
  8
0
 62
     0
 10
139.794
 20
10.5447
 30
0.0
 11
140.12
 21
10.5833
 31
0.0
  0
LINE
  8
0
 62
     0
 10
140.12
 20
10.5833
 30
0.0
 11
140.229
 21
10.5833
 31
0.0
  0
LINE
  8
0
 62
     0
 10
140.229
 20
10.5833
 30
0.0
 11
140.338
 21
10.5833
 31
0.0
  0
LINE
  8
0
 62
     0
 10
140.338
 20
10.5833
 30
0.0
 11
140.664
 21
10.6219
 31
0.0
  0
LINE
  8
0
 62
     0
 10
140.664
 20
10.6219
 30
0.0
 11
140.935
 21
10.7597
 31
0.0
  0
LINE
  8
0
 62
     0
 10
140.935
 20
10.7597
 30
0.0
 11
141.073
 21
11.0298
 31
0.0
  0
LINE
  8
0
 62
     0
 10
141.073
 20
11.0298
 30
0.0
 11
141.111
 21
11.3564
 31
0.0
  0
LINE
  8
0
 62
     0
 10
141.111
 20
11.3564
 30
0.0
 11
141.111
 21
11.4653
 31
0.0
  0
LINE
  8
0
 62
     0
 10
141.111
 20
11.4653
 30
0.0
 11
141.111
 21
11.5866
 31
0.0
  0
LINE
  8
0
 62
     0
 10
141.111
 20
11.5866
 30
0.0
 11
141.068
 21
11.9462
 31
0.0
  0
LINE
  8
0
 62
     0
 10
141.068
 20
11.9462
 30
0.0
 11
140.851
 21
12.2108
 31
0.0
  0
LINE
  8
0
 62
     0
 10
140.851
 20
12.2108
 30
0.0
 11
140.322
 21
12.3238
 31
0.0
  0
LINE
  8
0
 62
     0
 10
140.322
 20
12.3238
 30
0.0
 11
139.59
 21
12.3472
 31
0.0
  0
LINE
  8
0
 62
     0
 10
139.59
 20
12.3472
 30
0.0
 11
139.347
 21
12.3472
 31
0.0
  0
LINE
  8
0
 62
     0
 10
139.347
 20
12.3472
 30
0.0
 11
139.103
 21
12.3472
 31
0.0
  0
LINE
  8
0
 62
     0
 10
139.103
 20
12.3472
 30
0.0
 11
138.371
 21
12.372
 31
0.0
  0
LINE
  8
0
 62
     0
 10
138.371
 20
12.372
 30
0.0
 11
137.842
 21
12.485
 31
0.0
  0
LINE
  8
0
 62
     0
 10
137.842
 20
12.485
 30
0.0
 11
137.625
 21
12.7496
 31
0.0
  0
LINE
  8
0
 62
     0
 10
137.625
 20
12.7496
 30
0.0
 11
137.583
 21
13.1093
 31
0.0
  0
LINE
  8
0
 62
     0
 10
137.583
 20
13.1093
 30
0.0
 11
137.583
 21
13.2292
 31
0.0
  0
LINE
  8
0
 62
     0
 10
137.583
 20
13.2292
 30
0.0
 11
137.583
 21
13.338
 31
0.0
  0
LINE
  8
0
 62
     0
 10
137.583
 20
13.338
 30
0.0
 11
137.545
 21
13.6646
 31
0.0
  0
LINE
  8
0
 62
     0
 10
137.545
 20
13.6646
 30
0.0
 11
137.407
 21
13.9347
 31
0.0
  0
LINE
  8
0
 62
     0
 10
137.407
 20
13.9347
 30
0.0
 11
137.137
 21
14.0725
 31
0.0
  0
LINE
  8
0
 62
     0
 10
137.137
 20
14.0725
 30
0.0
 11
136.81
 21
14.1111
 31
0.0
  0
LINE
  8
0
 62
     0
 10
136.81
 20
14.1111
 30
0.0
 11
136.701
 21
14.1111
 31
0.0
  0
LINE
  8
0
 62
     0
 10
136.701
 20
14.1111
 30
0.0
 11
136.592
 21
14.1111
 31
0.0
  0
LINE
  8
0
 62
     0
 10
136.592
 20
14.1111
 30
0.0
 11
136.266
 21
14.1497
 31
0.0
  0
LINE
  8
0
 62
     0
 10
136.266
 20
14.1497
 30
0.0
 11
135.996
 21
14.2875
 31
0.0
  0
LINE
  8
0
 62
     0
 10
135.996
 20
14.2875
 30
0.0
 11
135.858
 21
14.5576
 31
0.0
  0
LINE
  8
0
 62
     0
 10
135.858
 20
14.5576
 30
0.0
 11
135.819
 21
14.8842
 31
0.0
  0
LINE
  8
0
 62
     0
 10
135.819
 20
14.8842
 30
0.0
 11
135.819
 21
14.9931
 31
0.0
  0
LINE
  8
0
 62
     0
 10
135.819
 20
14.9931
 30
0.0
 11
135.819
 21
15.1143
 31
0.0
  0
LINE
  8
0
 62
     0
 10
135.819
 20
15.1143
 30
0.0
 11
135.777
 21
15.474
 31
0.0
  0
LINE
  8
0
 62
     0
 10
135.777
 20
15.474
 30
0.0
 11
135.559
 21
15.7386
 31
0.0
  0
LINE
  8
0
 62
     0
 10
135.559
 20
15.7386
 30
0.0
 11
135.03
 21
15.8516
 31
0.0
  0
LINE
  8
0
 62
     0
 10
135.03
 20
15.8516
 30
0.0
 11
134.298
 21
15.875
 31
0.0
  0
LINE
  8
0
 62
     0
 10
134.298
 20
15.875
 30
0.0
 11
134.056
 21
15.875
 31
0.0
  0
LINE
  8
0
 62
     0
 10
134.056
 20
15.875
 30
0.0
 11
133.812
 21
15.875
 31
0.0
  0
LINE
  8
0
 62
     0
 10
133.812
 20
15.875
 30
0.0
 11
133.08
 21
15.8998
 31
0.0
  0
LINE
  8
0
 62
     0
 10
133.08
 20
15.8998
 30
0.0
 11
132.551
 21
16.0128
 31
0.0
  0
LINE
  8
0
 62
     0
 10
132.551
 20
16.0128
 30
0.0
 11
132.333
 21
16.2774
 31
0.0
  0
LINE
  8
0
 62
     0
 10
132.333
 20
16.2774
 30
0.0
 11
132.292
 21
16.6371
 31
0.0
  0
LINE
  8
0
 62
     0
 10
132.292
 20
16.6371
 30
0.0
 11
132.292
 21
16.7569
 31
0.0
  0
LINE
  8
0
 62
     0
 10
132.292
 20
16.7569
 30
0.0
 11
132.292
 21
16.8782
 31
0.0
  0
LINE
  8
0
 62
     0
 10
132.292
 20
16.8782
 30
0.0
 11
132.249
 21
17.2379
 31
0.0
  0
LINE
  8
0
 62
     0
 10
132.249
 20
17.2379
 30
0.0
 11
132.031
 21
17.5025
 31
0.0
  0
LINE
  8
0
 62
     0
 10
132.031
 20
17.5025
 30
0.0
 11
131.502
 21
17.6155
 31
0.0
  0
LINE
  8
0
 62
     0
 10
131.502
 20
17.6155
 30
0.0
 11
130.77
 21
17.6389
 31
0.0
  0
LINE
  8
0
 62
     0
 10
130.77
 20
17.6389
 30
0.0
 11
130.528
 21
17.6389
 31
0.0
  0
LINE
  8
0
 62
     0
 10
130.528
 20
17.6389
 30
0.0
 11
130.284
 21
17.6389
 31
0.0
  0
LINE
  8
0
 62
     0
 10
130.284
 20
17.6389
 30
0.0
 11
129.552
 21
17.6637
 31
0.0
  0
LINE
  8
0
 62
     0
 10
129.552
 20
17.6637
 30
0.0
 11
129.023
 21
17.7767
 31
0.0
  0
LINE
  8
0
 62
     0
 10
129.023
 20
17.7767
 30
0.0
 11
128.805
 21
18.0413
 31
0.0
  0
LINE
  8
0
 62
     0
 10
128.805
 20
18.0413
 30
0.0
 11
128.764
 21
18.401
 31
0.0
  0
LINE
  8
0
 62
     0
 10
128.764
 20
18.401
 30
0.0
 11
128.764
 21
18.5208
 31
0.0
  0
LINE
  8
0
 62
     0
 10
128.764
 20
18.5208
 30
0.0
 11
128.764
 21
18.6297
 31
0.0
  0
LINE
  8
0
 62
     0
 10
128.764
 20
18.6297
 30
0.0
 11
128.725
 21
18.9563
 31
0.0
  0
LINE
  8
0
 62
     0
 10
128.725
 20
18.9563
 30
0.0
 11
128.588
 21
19.2264
 31
0.0
  0
LINE
  8
0
 62
     0
 10
128.588
 20
19.2264
 30
0.0
 11
128.317
 21
19.3642
 31
0.0
  0
LINE
  8
0
 62
     0
 10
128.317
 20
19.3642
 30
0.0
 11
127.991
 21
19.4028
 31
0.0
  0
LINE
  8
0
 62
     0
 10
127.991
 20
19.4028
 30
0.0
 11
127.882
 21
19.4028
 31
0.0
  0
LINE
  8
0
 62
     0
 10
127.882
 20
19.4028
 30
0.0
 11
127.761
 21
19.4028
 31
0.0
  0
LINE
  8
0
 62
     0
 10
127.761
 20
19.4028
 30
0.0
 11
127.401
 21
19.4455
 31
0.0
  0
LINE
  8
0
 62
     0
 10
127.401
 20
19.4455
 30
0.0
 11
127.137
 21
19.6632
 31
0.0
  0
LINE
  8
0
 62
     0
 10
127.137
 20
19.6632
 30
0.0
 11
127.023
 21
20.1924
 31
0.0
  0
LINE
  8
0
 62
     0
 10
127.023
 20
20.1924
 30
0.0
 11
127
 21
20.9241
 31
0.0
  0
LINE
  8
0
 62
     0
 10
127
 20
20.9241
 30
0.0
 11
127
 21
21.1667
 31
0.0
  0
LINE
  8
0
 62
     0
 10
127
 20
21.1667
 30
0.0
 11
127
 21
21.4106
 31
0.0
  0
LINE
  8
0
 62
     0
 10
127
 20
21.4106
 30
0.0
 11
126.975
 21
22.1423
 31
0.0
  0
LINE
  8
0
 62
     0
 10
126.975
 20
22.1423
 30
0.0
 11
126.862
 21
22.6715
 31
0.0
  0
LINE
  8
0
 62
     0
 10
126.862
 20
22.6715
 30
0.0
 11
126.597
 21
22.8892
 31
0.0
  0
LINE
  8
0
 62
     0
 10
126.597
 20
22.8892
 30
0.0
 11
126.238
 21
22.9306
 31
0.0
  0
LINE
  8
0
 62
     0
 10
126.238
 20
22.9306
 30
0.0
 11
126.118
 21
22.9306
 31
0.0
  0
LINE
  8
0
 62
     0
 10
126.118
 20
22.9306
 30
0.0
 11
126.009
 21
22.9306
 31
0.0
  0
LINE
  8
0
 62
     0
 10
126.009
 20
22.9306
 30
0.0
 11
125.683
 21
22.9691
 31
0.0
  0
LINE
  8
0
 62
     0
 10
125.683
 20
22.9691
 30
0.0
 11
125.413
 21
23.1069
 31
0.0
  0
LINE
  8
0
 62
     0
 10
125.413
 20
23.1069
 30
0.0
 11
125.275
 21
23.377
 31
0.0
  0
LINE
  8
0
 62
     0
 10
125.275
 20
23.377
 30
0.0
 11
125.236
 21
23.7036
 31
0.0
  0
LINE
  8
0
 62
     0
 10
125.236
 20
23.7036
 30
0.0
 11
125.236
 21
23.8125
 31
0.0
  0
LINE
  8
0
 62
     0
 10
125.236
 20
23.8125
 30
0.0
 11
125.236
 21
23.9214
 31
0.0
  0
LINE
  8
0
 62
     0
 10
125.236
 20
23.9214
 30
0.0
 11
125.198
 21
24.248
 31
0.0
  0
LINE
  8
0
 62
     0
 10
125.198
 20
24.248
 30
0.0
 11
125.06
 21
24.5181
 31
0.0
  0
LINE
  8
0
 62
     0
 10
125.06
 20
24.5181
 30
0.0
 11
124.789
 21
24.6559
 31
0.0
  0
LINE
  8
0
 62
     0
 10
124.789
 20
24.6559
 30
0.0
 11
124.463
 21
24.6944
 31
0.0
  0
LINE
  8
0
 62
     0
 10
124.463
 20
24.6944
 30
0.0
 11
124.354
 21
24.6944
 31
0.0
  0
LINE
  8
0
 62
     0
 10
124.354
 20
24.6944
 30
0.0
 11
124.245
 21
24.6944
 31
0.0
  0
LINE
  8
0
 62
     0
 10
124.245
 20
24.6944
 30
0.0
 11
123.919
 21
24.733
 31
0.0
  0
LINE
  8
0
 62
     0
 10
123.919
 20
24.733
 30
0.0
 11
123.649
 21
24.8708
 31
0.0
  0
LINE
  8
0
 62
     0
 10
123.649
 20
24.8708
 30
0.0
 11
123.511
 21
25.1409
 31
0.0
  0
LINE
  8
0
 62
     0
 10
123.511
 20
25.1409
 30
0.0
 11
123.472
 21
25.4675
 31
0.0
  0
LINE
  8
0
 62
     0
 10
123.472
 20
25.4675
 30
0.0
 11
123.472
 21
25.5764
 31
0.0
  0
LINE
  8
0
 62
     0
 10
123.472
 20
25.5764
 30
0.0
 11
123.472
 21
25.6853
 31
0.0
  0
LINE
  8
0
 62
     0
 10
123.472
 20
25.6853
 30
0.0
 11
123.434
 21
26.0119
 31
0.0
  0
LINE
  8
0
 62
     0
 10
123.434
 20
26.0119
 30
0.0
 11
123.296
 21
26.2819
 31
0.0
  0
LINE
  8
0
 62
     0
 10
123.296
 20
26.2819
 30
0.0
 11
123.026
 21
26.4197
 31
0.0
  0
LINE
  8
0
 62
     0
 10
123.026
 20
26.4197
 30
0.0
 11
122.699
 21
26.4583
 31
0.0
  0
LINE
  8
0
 62
     0
 10
122.699
 20
26.4583
 30
0.0
 11
122.59
 21
26.4583
 31
0.0
  0
LINE
  8
0
 62
     0
 10
122.59
 20
26.4583
 30
0.0
 11
122.469
 21
26.4583
 31
0.0
  0
LINE
  8
0
 62
     0
 10
122.469
 20
26.4583
 30
0.0
 11
122.109
 21
26.5011
 31
0.0
  0
LINE
  8
0
 62
     0
 10
122.109
 20
26.5011
 30
0.0
 11
121.845
 21
26.7188
 31
0.0
  0
LINE
  8
0
 62
     0
 10
121.845
 20
26.7188
 30
0.0
 11
121.732
 21
27.248
 31
0.0
  0
LINE
  8
0
 62
     0
 10
121.732
 20
27.248
 30
0.0
 11
121.708
 21
27.9797
 31
0.0
  0
LINE
  8
0
 62
     0
 10
121.708
 20
27.9797
 30
0.0
 11
121.708
 21
28.2222
 31
0.0
  0
LINE
  8
0
 62
     0
 10
121.708
 20
28.2222
 30
0.0
 11
121.708
 21
28.4661
 31
0.0
  0
LINE
  8
0
 62
     0
 10
121.708
 20
28.4661
 30
0.0
 11
121.732
 21
29.1979
 31
0.0
  0
LINE
  8
0
 62
     0
 10
121.732
 20
29.1979
 30
0.0
 11
121.845
 21
29.727
 31
0.0
  0
LINE
  8
0
 62
     0
 10
121.845
 20
29.727
 30
0.0
 11
122.109
 21
29.9448
 31
0.0
  0
LINE
  8
0
 62
     0
 10
122.109
 20
29.9448
 30
0.0
 11
122.469
 21
29.9861
 31
0.0
  0
LINE
  8
0
 62
     0
 10
122.469
 20
29.9861
 30
0.0
 11
122.59
 21
29.9861
 31
0.0
  0
LINE
  8
0
 62
     0
 10
122.59
 20
29.9861
 30
0.0
 11
122.699
 21
29.9861
 31
0.0
  0
LINE
  8
0
 62
     0
 10
122.699
 20
29.9861
 30
0.0
 11
123.026
 21
29.9475
 31
0.0
  0
LINE
  8
0
 62
     0
 10
123.026
 20
29.9475
 30
0.0
 11
123.296
 21
29.8097
 31
0.0
  0
LINE
  8
0
 62
     0
 10
123.296
 20
29.8097
 30
0.0
 11
123.434
 21
29.5396
 31
0.0
  0
LINE
  8
0
 62
     0
 10
123.434
 20
29.5396
 30
0.0
 11
123.472
 21
29.213
 31
0.0
  0
LINE
  8
0
 62
     0
 10
123.472
 20
29.213
 30
0.0
 11
123.472
 21
29.1042
 31
0.0
  0
LINE
  8
0
 62
     0
 10
123.472
 20
29.1042
 30
0.0
 11
123.472
 21
28.9953
 31
0.0
  0
LINE
  8
0
 62
     0
 10
123.472
 20
28.9953
 30
0.0
 11
123.511
 21
28.6687
 31
0.0
  0
LINE
  8
0
 62
     0
 10
123.511
 20
28.6687
 30
0.0
 11
123.649
 21
28.3986
 31
0.0
  0
LINE
  8
0
 62
     0
 10
123.649
 20
28.3986
 30
0.0
 11
123.919
 21
28.2608
 31
0.0
  0
LINE
  8
0
 62
     0
 10
123.919
 20
28.2608
 30
0.0
 11
124.245
 21
28.2222
 31
0.0
  0
LINE
  8
0
 62
     0
 10
124.245
 20
28.2222
 30
0.0
 11
124.354
 21
28.2222
 31
0.0
  0
LINE
  8
0
 62
     0
 10
124.354
 20
28.2222
 30
0.0
 11
124.463
 21
28.2222
 31
0.0
  0
LINE
  8
0
 62
     0
 10
124.463
 20
28.2222
 30
0.0
 11
124.789
 21
28.1836
 31
0.0
  0
LINE
  8
0
 62
     0
 10
124.789
 20
28.1836
 30
0.0
 11
125.06
 21
28.0458
 31
0.0
  0
LINE
  8
0
 62
     0
 10
125.06
 20
28.0458
 30
0.0
 11
125.198
 21
27.7757
 31
0.0
  0
LINE
  8
0
 62
     0
 10
125.198
 20
27.7757
 30
0.0
 11
125.236
 21
27.4491
 31
0.0
  0
LINE
  8
0
 62
     0
 10
125.236
 20
27.4491
 30
0.0
 11
125.236
 21
27.3403
 31
0.0
  0
LINE
  8
0
 62
     0
 10
125.236
 20
27.3403
 30
0.0
 11
125.236
 21
27.2314
 31
0.0
  0
LINE
  8
0
 62
     0
 10
125.236
 20
27.2314
 30
0.0
 11
125.275
 21
26.9048
 31
0.0
  0
LINE
  8
0
 62
     0
 10
125.275
 20
26.9048
 30
0.0
 11
125.413
 21
26.6347
 31
0.0
  0
LINE
  8
0
 62
     0
 10
125.413
 20
26.6347
 30
0.0
 11
125.683
 21
26.4969
 31
0.0
  0
LINE
  8
0
 62
     0
 10
125.683
 20
26.4969
 30
0.0
 11
126.009
 21
26.4583
 31
0.0
  0
LINE
  8
0
 62
     0
 10
126.009
 20
26.4583
 30
0.0
 11
126.118
 21
26.4583
 31
0.0
  0
LINE
  8
0
 62
     0
 10
126.118
 20
26.4583
 30
0.0
 11
126.227
 21
26.4583
 31
0.0
  0
LINE
  8
0
 62
     0
 10
126.227
 20
26.4583
 30
0.0
 11
126.553
 21
26.4197
 31
0.0
  0
LINE
  8
0
 62
     0
 10
126.553
 20
26.4197
 30
0.0
 11
126.824
 21
26.2819
 31
0.0
  0
LINE
  8
0
 62
     0
 10
126.824
 20
26.2819
 30
0.0
 11
126.962
 21
26.0119
 31
0.0
  0
LINE
  8
0
 62
     0
 10
126.962
 20
26.0119
 30
0.0
 11
127
 21
25.6853
 31
0.0
  0
LINE
  8
0
 62
     0
 10
127
 20
25.6853
 30
0.0
 11
127
 21
25.5764
 31
0.0
  0
LINE
  8
0
 62
     0
 10
127
 20
25.5764
 30
0.0
 11
127
 21
25.4675
 31
0.0
  0
LINE
  8
0
 62
     0
 10
127
 20
25.4675
 30
0.0
 11
127.038
 21
25.1409
 31
0.0
  0
LINE
  8
0
 62
     0
 10
127.038
 20
25.1409
 30
0.0
 11
127.176
 21
24.8708
 31
0.0
  0
LINE
  8
0
 62
     0
 10
127.176
 20
24.8708
 30
0.0
 11
127.447
 21
24.733
 31
0.0
  0
LINE
  8
0
 62
     0
 10
127.447
 20
24.733
 30
0.0
 11
127.773
 21
24.6944
 31
0.0
  0
LINE
  8
0
 62
     0
 10
127.773
 20
24.6944
 30
0.0
 11
127.882
 21
24.6944
 31
0.0
  0
LINE
  8
0
 62
     0
 10
127.882
 20
24.6944
 30
0.0
 11
127.991
 21
24.6944
 31
0.0
  0
LINE
  8
0
 62
     0
 10
127.991
 20
24.6944
 30
0.0
 11
128.317
 21
24.6559
 31
0.0
  0
LINE
  8
0
 62
     0
 10
128.317
 20
24.6559
 30
0.0
 11
128.588
 21
24.5181
 31
0.0
  0
LINE
  8
0
 62
     0
 10
128.588
 20
24.5181
 30
0.0
 11
128.725
 21
24.248
 31
0.0
  0
LINE
  8
0
 62
     0
 10
128.725
 20
24.248
 30
0.0
 11
128.764
 21
23.9214
 31
0.0
  0
LINE
  8
0
 62
     0
 10
128.764
 20
23.9214
 30
0.0
 11
128.764
 21
23.8125
 31
0.0
  0
LINE
  8
0
 62
     0
 10
128.764
 20
23.8125
 30
0.0
 11
128.764
 21
23.6926
 31
0.0
  0
LINE
  8
0
 62
     0
 10
128.764
 20
23.6926
 30
0.0
 11
128.805
 21
23.3329
 31
0.0
  0
LINE
  8
0
 62
     0
 10
128.805
 20
23.3329
 30
0.0
 11
129.023
 21
23.0684
 31
0.0
  0
LINE
  8
0
 62
     0
 10
129.023
 20
23.0684
 30
0.0
 11
129.552
 21
22.9554
 31
0.0
  0
LINE
  8
0
 62
     0
 10
129.552
 20
22.9554
 30
0.0
 11
130.284
 21
22.9306
 31
0.0
  0
LINE
  8
0
 62
     0
 10
130.284
 20
22.9306
 30
0.0
 11
130.528
 21
22.9306
 31
0.0
  0
LINE
  8
0
 62
     0
 10
130.528
 20
22.9306
 30
0.0
 11
130.77
 21
22.9306
 31
0.0
  0
LINE
  8
0
 62
     0
 10
130.77
 20
22.9306
 30
0.0
 11
131.502
 21
22.9554
 31
0.0
  0
LINE
  8
0
 62
     0
 10
131.502
 20
22.9554
 30
0.0
 11
132.031
 21
23.0684
 31
0.0
  0
LINE
  8
0
 62
     0
 10
132.031
 20
23.0684
 30
0.0
 11
132.249
 21
23.3329
 31
0.0
  0
LINE
  8
0
 62
     0
 10
132.249
 20
23.3329
 30
0.0
 11
132.292
 21
23.6926
 31
0.0
  0
LINE
  8
0
 62
     0
 10
132.292
 20
23.6926
 30
0.0
 11
132.292
 21
23.8125
 31
0.0
  0
LINE
  8
0
 62
     0
 10
132.292
 20
23.8125
 30
0.0
 11
132.292
 21
23.9338
 31
0.0
  0
LINE
  8
0
 62
     0
 10
132.292
 20
23.9338
 30
0.0
 11
132.333
 21
24.2934
 31
0.0
  0
LINE
  8
0
 62
     0
 10
132.333
 20
24.2934
 30
0.0
 11
132.551
 21
24.558
 31
0.0
  0
LINE
  8
0
 62
     0
 10
132.551
 20
24.558
 30
0.0
 11
133.08
 21
24.671
 31
0.0
  0
LINE
  8
0
 62
     0
 10
133.08
 20
24.671
 30
0.0
 11
133.812
 21
24.6944
 31
0.0
  0
LINE
  8
0
 62
     0
 10
133.812
 20
24.6944
 30
0.0
 11
134.056
 21
24.6944
 31
0.0
  0
LINE
  8
0
 62
     0
 10
134.056
 20
24.6944
 30
0.0
 11
134.298
 21
24.6944
 31
0.0
  0
LINE
  8
0
 62
     0
 10
134.298
 20
24.6944
 30
0.0
 11
135.03
 21
24.671
 31
0.0
  0
LINE
  8
0
 62
     0
 10
135.03
 20
24.671
 30
0.0
 11
135.559
 21
24.558
 31
0.0
  0
LINE
  8
0
 62
     0
 10
135.559
 20
24.558
 30
0.0
 11
135.777
 21
24.2934
 31
0.0
  0
LINE
  8
0
 62
     0
 10
135.777
 20
24.2934
 30
0.0
 11
135.819
 21
23.9338
 31
0.0
  0
LINE
  8
0
 62
     0
 10
135.819
 20
23.9338
 30
0.0
 11
135.819
 21
23.8125
 31
0.0
  0
LINE
  8
0
 62
     0
 10
135.819
 20
23.8125
 30
0.0
 11
135.819
 21
23.6926
 31
0.0
  0
LINE
  8
0
 62
     0
 10
135.819
 20
23.6926
 30
0.0
 11
135.861
 21
23.3329
 31
0.0
  0
LINE
  8
0
 62
     0
 10
135.861
 20
23.3329
 30
0.0
 11
136.078
 21
23.0684
 31
0.0
  0
LINE
  8
0
 62
     0
 10
136.078
 20
23.0684
 30
0.0
 11
136.608
 21
22.9554
 31
0.0
  0
LINE
  8
0
 62
     0
 10
136.608
 20
22.9554
 30
0.0
 11
137.34
 21
22.9306
 31
0.0
  0
LINE
  8
0
 62
     0
 10
137.34
 20
22.9306
 30
0.0
 11
137.583
 21
22.9306
 31
0.0
  0
LINE
  8
0
 62
     0
 10
137.583
 20
22.9306
 30
0.0
 11
139.347
 21
22.9306
 31
0.0
  0
LINE
  8
0
 62
     0
 10
139.347
 20
22.9306
 30
0.0
 11
139.347
 21
19.4028
 31
0.0
  0
LINE
  8
0
 62
     0
 10
139.347
 20
19.4028
 30
0.0
 11
141.111
 21
19.4028
 31
0.0
  0
LINE
  8
0
 62
     0
 10
141.111
 20
19.4028
 30
0.0
 11
141.354
 21
19.4028
 31
0.0
  0
LINE
  8
0
 62
     0
 10
141.354
 20
19.4028
 30
0.0
 11
142.085
 21
19.3794
 31
0.0
  0
LINE
  8
0
 62
     0
 10
142.085
 20
19.3794
 30
0.0
 11
142.615
 21
19.2664
 31
0.0
  0
LINE
  8
0
 62
     0
 10
142.615
 20
19.2664
 30
0.0
 11
142.832
 21
19.0018
 31
0.0
  0
LINE
  8
0
 62
     0
 10
142.832
 20
19.0018
 30
0.0
 11
142.875
 21
18.6421
 31
0.0
  0
LINE
  8
0
 62
     0
 10
142.875
 20
18.6421
 30
0.0
 11
142.875
 21
18.5208
 31
0.0
  0
LINE
  8
0
 62
     0
 10
142.875
 20
18.5208
 30
0.0
 11
142.875
 21
18.412
 31
0.0
  0
LINE
  8
0
 62
     0
 10
142.875
 20
18.412
 30
0.0
 11
142.913
 21
18.0854
 31
0.0
  0
LINE
  8
0
 62
     0
 10
142.913
 20
18.0854
 30
0.0
 11
143.051
 21
17.8153
 31
0.0
  0
LINE
  8
0
 62
     0
 10
143.051
 20
17.8153
 30
0.0
 11
143.322
 21
17.6775
 31
0.0
  0
LINE
  8
0
 62
     0
 10
143.322
 20
17.6775
 30
0.0
 11
143.648
 21
17.6389
 31
0.0
  0
LINE
  8
0
 62
     0
 10
143.648
 20
17.6389
 30
0.0
 11
143.757
 21
17.6389
 31
0.0
  0
LINE
  8
0
 62
     0
 10
143.757
 20
17.6389
 30
0.0
 11
143.866
 21
17.6389
 31
0.0
  0
LINE
  8
0
 62
     0
 10
143.866
 20
17.6389
 30
0.0
 11
144.192
 21
17.6003
 31
0.0
  0
LINE
  8
0
 62
     0
 10
144.192
 20
17.6003
 30
0.0
 11
144.463
 21
17.4625
 31
0.0
  0
LINE
  8
0
 62
     0
 10
144.463
 20
17.4625
 30
0.0
 11
144.6
 21
17.1924
 31
0.0
  0
LINE
  8
0
 62
     0
 10
144.6
 20
17.1924
 30
0.0
 11
144.639
 21
16.8658
 31
0.0
  0
LINE
  8
0
 62
     0
 10
144.639
 20
16.8658
 30
0.0
 11
144.639
 21
16.7569
 31
0.0
  0
LINE
  8
0
 62
     0
 10
144.639
 20
16.7569
 30
0.0
 11
144.639
 21
16.6481
 31
0.0
  0
LINE
  8
0
 62
     0
 10
144.639
 20
16.6481
 30
0.0
 11
144.677
 21
16.3215
 31
0.0
  0
LINE
  8
0
 62
     0
 10
144.677
 20
16.3215
 30
0.0
 11
144.815
 21
16.0514
 31
0.0
  0
LINE
  8
0
 62
     0
 10
144.815
 20
16.0514
 30
0.0
 11
145.086
 21
15.9136
 31
0.0
  0
LINE
  8
0
 62
     0
 10
145.086
 20
15.9136
 30
0.0
 11
145.412
 21
15.875
 31
0.0
  0
LINE
  8
0
 62
     0
 10
145.412
 20
15.875
 30
0.0
 11
145.521
 21
15.875
 31
0.0
  0
LINE
  8
0
 62
     0
 10
145.521
 20
15.875
 30
0.0
 11
145.63
 21
15.875
 31
0.0
  0
LINE
  8
0
 62
     0
 10
145.63
 20
15.875
 30
0.0
 11
145.956
 21
15.8364
 31
0.0
  0
LINE
  8
0
 62
     0
 10
145.956
 20
15.8364
 30
0.0
 11
146.226
 21
15.6986
 31
0.0
  0
LINE
  8
0
 62
     0
 10
146.226
 20
15.6986
 30
0.0
 11
146.364
 21
15.4285
 31
0.0
  0
LINE
  8
0
 62
     0
 10
146.364
 20
15.4285
 30
0.0
 11
146.403
 21
15.1019
 31
0.0
  0
LINE
  8
0
 62
     0
 10
146.403
 20
15.1019
 30
0.0
 11
146.403
 21
14.9931
 31
0.0
  0
LINE
  8
0
 62
     0
 10
146.403
 20
14.9931
 30
0.0
 11
146.403
 21
14.1111
 31
0.0
  0
LINE
  8
0
 62
     0
 10
146.403
 20
14.1111
 30
0.0
 11
153.458
 21
14.1111
 31
0.0
  0
LINE
  8
0
 62
     0
 10
153.458
 20
14.1111
 30
0.0
 11
153.458
 21
19.4028
 31
0.0
  0
LINE
  8
0
 62
     0
 10
153.458
 20
19.4028
 30
0.0
 11
155.222
 21
19.4028
 31
0.0
  0
LINE
  8
0
 62
     0
 10
155.222
 20
19.4028
 30
0.0
 11
155.465
 21
19.4028
 31
0.0
  0
LINE
  8
0
 62
     0
 10
155.465
 20
19.4028
 30
0.0
 11
156.197
 21
19.4276
 31
0.0
  0
LINE
  8
0
 62
     0
 10
156.197
 20
19.4276
 30
0.0
 11
156.726
 21
19.5406
 31
0.0
  0
LINE
  8
0
 62
     0
 10
156.726
 20
19.5406
 30
0.0
 11
156.943
 21
19.8052
 31
0.0
  0
LINE
  8
0
 62
     0
 10
156.943
 20
19.8052
 30
0.0
 11
156.986
 21
20.1648
 31
0.0
  0
LINE
  8
0
 62
     0
 10
156.986
 20
20.1648
 30
0.0
 11
156.986
 21
20.2847
 31
0.0
  0
LINE
  8
0
 62
     0
 10
156.986
 20
20.2847
 30
0.0
 11
156.986
 21
20.3936
 31
0.0
  0
LINE
  8
0
 62
     0
 10
156.986
 20
20.3936
 30
0.0
 11
157.025
 21
20.7202
 31
0.0
  0
LINE
  8
0
 62
     0
 10
157.025
 20
20.7202
 30
0.0
 11
157.163
 21
20.9903
 31
0.0
  0
LINE
  8
0
 62
     0
 10
157.163
 20
20.9903
 30
0.0
 11
157.433
 21
21.1281
 31
0.0
  0
LINE
  8
0
 62
     0
 10
157.433
 20
21.1281
 30
0.0
 11
157.759
 21
21.1667
 31
0.0
  0
LINE
  8
0
 62
     0
 10
157.759
 20
21.1667
 30
0.0
 11
157.868
 21
21.1667
 31
0.0
  0
LINE
  8
0
 62
     0
 10
157.868
 20
21.1667
 30
0.0
 11
157.977
 21
21.1667
 31
0.0
  0
LINE
  8
0
 62
     0
 10
157.977
 20
21.1667
 30
0.0
 11
158.303
 21
21.2053
 31
0.0
  0
LINE
  8
0
 62
     0
 10
158.303
 20
21.2053
 30
0.0
 11
158.574
 21
21.3431
 31
0.0
  0
LINE
  8
0
 62
     0
 10
158.574
 20
21.3431
 30
0.0
 11
158.712
 21
21.6131
 31
0.0
  0
LINE
  8
0
 62
     0
 10
158.712
 20
21.6131
 30
0.0
 11
158.75
 21
21.9397
 31
0.0
  0
LINE
  8
0
 62
     0
 10
158.75
 20
21.9397
 30
0.0
 11
158.75
 21
22.0486
 31
0.0
  0
LINE
  8
0
 62
     0
 10
158.75
 20
22.0486
 30
0.0
 11
158.75
 21
22.1575
 31
0.0
  0
LINE
  8
0
 62
     0
 10
158.75
 20
22.1575
 30
0.0
 11
158.788
 21
22.4841
 31
0.0
  0
LINE
  8
0
 62
     0
 10
158.788
 20
22.4841
 30
0.0
 11
158.926
 21
22.7542
 31
0.0
  0
LINE
  8
0
 62
     0
 10
158.926
 20
22.7542
 30
0.0
 11
159.197
 21
22.892
 31
0.0
  0
LINE
  8
0
 62
     0
 10
159.197
 20
22.892
 30
0.0
 11
159.523
 21
22.9306
 31
0.0
  0
LINE
  8
0
 62
     0
 10
159.523
 20
22.9306
 30
0.0
 11
159.632
 21
22.9306
 31
0.0
  0
LINE
  8
0
 62
     0
 10
159.632
 20
22.9306
 30
0.0
 11
159.752
 21
22.9306
 31
0.0
  0
LINE
  8
0
 62
     0
 10
159.752
 20
22.9306
 30
0.0
 11
160.111
 21
22.9733
 31
0.0
  0
LINE
  8
0
 62
     0
 10
160.111
 20
22.9733
 30
0.0
 11
160.376
 21
23.191
 31
0.0
  0
LINE
  8
0
 62
     0
 10
160.376
 20
23.191
 30
0.0
 11
160.489
 21
23.7202
 31
0.0
  0
LINE
  8
0
 62
     0
 10
160.489
 20
23.7202
 30
0.0
 11
160.514
 21
24.4519
 31
0.0
  0
LINE
  8
0
 62
     0
 10
160.514
 20
24.4519
 30
0.0
 11
160.514
 21
24.6944
 31
0.0
  0
LINE
  8
0
 62
     0
 10
160.514
 20
24.6944
 30
0.0
 11
160.514
 21
24.9384
 31
0.0
  0
LINE
  8
0
 62
     0
 10
160.514
 20
24.9384
 30
0.0
 11
160.489
 21
25.6701
 31
0.0
  0
LINE
  8
0
 62
     0
 10
160.489
 20
25.6701
 30
0.0
 11
160.376
 21
26.1993
 31
0.0
  0
LINE
  8
0
 62
     0
 10
160.376
 20
26.1993
 30
0.0
 11
160.111
 21
26.417
 31
0.0
  0
LINE
  8
0
 62
     0
 10
160.111
 20
26.417
 30
0.0
 11
159.752
 21
26.4583
 31
0.0
  0
LINE
  8
0
 62
     0
 10
159.752
 20
26.4583
 30
0.0
 11
159.632
 21
26.4583
 31
0.0
  0
LINE
  8
0
 62
     0
 10
159.632
 20
26.4583
 30
0.0
 11
159.523
 21
26.4583
 31
0.0
  0
LINE
  8
0
 62
     0
 10
159.523
 20
26.4583
 30
0.0
 11
159.197
 21
26.4969
 31
0.0
  0
LINE
  8
0
 62
     0
 10
159.197
 20
26.4969
 30
0.0
 11
158.926
 21
26.6347
 31
0.0
  0
LINE
  8
0
 62
     0
 10
158.926
 20
26.6347
 30
0.0
 11
158.788
 21
26.9048
 31
0.0
  0
LINE
  8
0
 62
     0
 10
158.788
 20
26.9048
 30
0.0
 11
158.75
 21
27.2314
 31
0.0
  0
LINE
  8
0
 62
     0
 10
158.75
 20
27.2314
 30
0.0
 11
158.75
 21
27.3403
 31
0.0
  0
LINE
  8
0
 62
     0
 10
158.75
 20
27.3403
 30
0.0
 11
158.75
 21
27.4491
 31
0.0
  0
LINE
  8
0
 62
     0
 10
158.75
 20
27.4491
 30
0.0
 11
158.712
 21
27.7757
 31
0.0
  0
LINE
  8
0
 62
     0
 10
158.712
 20
27.7757
 30
0.0
 11
158.574
 21
28.0458
 31
0.0
  0
LINE
  8
0
 62
     0
 10
158.574
 20
28.0458
 30
0.0
 11
158.303
 21
28.1836
 31
0.0
  0
LINE
  8
0
 62
     0
 10
158.303
 20
28.1836
 30
0.0
 11
157.977
 21
28.2222
 31
0.0
  0
LINE
  8
0
 62
     0
 10
157.977
 20
28.2222
 30
0.0
 11
157.868
 21
28.2222
 31
0.0
  0
LINE
  8
0
 62
     0
 10
157.868
 20
28.2222
 30
0.0
 11
157.759
 21
28.2222
 31
0.0
  0
LINE
  8
0
 62
     0
 10
157.759
 20
28.2222
 30
0.0
 11
157.433
 21
28.2608
 31
0.0
  0
LINE
  8
0
 62
     0
 10
157.433
 20
28.2608
 30
0.0
 11
157.163
 21
28.3986
 31
0.0
  0
LINE
  8
0
 62
     0
 10
157.163
 20
28.3986
 30
0.0
 11
157.025
 21
28.6687
 31
0.0
  0
LINE
  8
0
 62
     0
 10
157.025
 20
28.6687
 30
0.0
 11
156.986
 21
28.9953
 31
0.0
  0
LINE
  8
0
 62
     0
 10
156.986
 20
28.9953
 30
0.0
 11
156.986
 21
29.1042
 31
0.0
  0
LINE
  8
0
 62
     0
 10
156.986
 20
29.1042
 30
0.0
 11
156.986
 21
29.213
 31
0.0
  0
LINE
  8
0
 62
     0
 10
156.986
 20
29.213
 30
0.0
 11
157.025
 21
29.5396
 31
0.0
  0
LINE
  8
0
 62
     0
 10
157.025
 20
29.5396
 30
0.0
 11
157.163
 21
29.8097
 31
0.0
  0
LINE
  8
0
 62
     0
 10
157.163
 20
29.8097
 30
0.0
 11
157.433
 21
29.9475
 31
0.0
  0
LINE
  8
0
 62
     0
 10
157.433
 20
29.9475
 30
0.0
 11
157.759
 21
29.9861
 31
0.0
  0
LINE
  8
0
 62
     0
 10
157.759
 20
29.9861
 30
0.0
 11
157.868
 21
29.9861
 31
0.0
  0
LINE
  8
0
 62
     0
 10
157.868
 20
29.9861
 30
0.0
 11
157.977
 21
29.9861
 31
0.0
  0
LINE
  8
0
 62
     0
 10
157.977
 20
29.9861
 30
0.0
 11
158.303
 21
30.0247
 31
0.0
  0
LINE
  8
0
 62
     0
 10
158.303
 20
30.0247
 30
0.0
 11
158.574
 21
30.1625
 31
0.0
  0
LINE
  8
0
 62
     0
 10
158.574
 20
30.1625
 30
0.0
 11
158.712
 21
30.4326
 31
0.0
  0
LINE
  8
0
 62
     0
 10
158.712
 20
30.4326
 30
0.0
 11
158.75
 21
30.7592
 31
0.0
  0
LINE
  8
0
 62
     0
 10
158.75
 20
30.7592
 30
0.0
 11
158.75
 21
30.8681
 31
0.0
  0
LINE
  8
0
 62
     0
 10
158.75
 20
30.8681
 30
0.0
 11
158.75
 21
30.9893
 31
0.0
  0
LINE
  8
0
 62
     0
 10
158.75
 20
30.9893
 30
0.0
 11
158.791
 21
31.349
 31
0.0
  0
LINE
  8
0
 62
     0
 10
158.791
 20
31.349
 30
0.0
 11
159.009
 21
31.6136
 31
0.0
  0
LINE
  8
0
 62
     0
 10
159.009
 20
31.6136
 30
0.0
 11
159.538
 21
31.7266
 31
0.0
  0
LINE
  8
0
 62
     0
 10
159.538
 20
31.7266
 30
0.0
 11
160.27
 21
31.75
 31
0.0
  0
LINE
  8
0
 62
     0
 10
160.27
 20
31.75
 30
0.0
 11
160.514
 21
31.75
 31
0.0
  0
LINE
  8
0
 62
     0
 10
160.514
 20
31.75
 30
0.0
 11
160.757
 21
31.75
 31
0.0
  0
LINE
  8
0
 62
     0
 10
160.757
 20
31.75
 30
0.0
 11
161.488
 21
31.7748
 31
0.0
  0
LINE
  8
0
 62
     0
 10
161.488
 20
31.7748
 30
0.0
 11
162.017
 21
31.8878
 31
0.0
  0
LINE
  8
0
 62
     0
 10
162.017
 20
31.8878
 30
0.0
 11
162.235
 21
32.1524
 31
0.0
  0
LINE
  8
0
 62
     0
 10
162.235
 20
32.1524
 30
0.0
 11
162.278
 21
32.5121
 31
0.0
  0
LINE
  8
0
 62
     0
 10
162.278
 20
32.5121
 30
0.0
 11
162.278
 21
32.6319
 31
0.0
  0
LINE
  8
0
 62
     0
 10
162.278
 20
32.6319
 30
0.0
 11
162.278
 21
32.7408
 31
0.0
  0
LINE
  8
0
 62
     0
 10
162.278
 20
32.7408
 30
0.0
 11
162.316
 21
33.0674
 31
0.0
  0
LINE
  8
0
 62
     0
 10
162.316
 20
33.0674
 30
0.0
 11
162.454
 21
33.3375
 31
0.0
  0
LINE
  8
0
 62
     0
 10
162.454
 20
33.3375
 30
0.0
 11
162.724
 21
33.4753
 31
0.0
  0
LINE
  8
0
 62
     0
 10
162.724
 20
33.4753
 30
0.0
 11
163.051
 21
33.5139
 31
0.0
  0
LINE
  8
0
 62
     0
 10
163.051
 20
33.5139
 30
0.0
 11
163.16
 21
33.5139
 31
0.0
  0
LINE
  8
0
 62
     0
 10
163.16
 20
33.5139
 30
0.0
 11
163.28
 21
33.5139
 31
0.0
  0
LINE
  8
0
 62
     0
 10
163.28
 20
33.5139
 30
0.0
 11
163.639
 21
33.5566
 31
0.0
  0
LINE
  8
0
 62
     0
 10
163.639
 20
33.5566
 30
0.0
 11
163.904
 21
33.7743
 31
0.0
  0
LINE
  8
0
 62
     0
 10
163.904
 20
33.7743
 30
0.0
 11
164.017
 21
34.3035
 31
0.0
  0
LINE
  8
0
 62
     0
 10
164.017
 20
34.3035
 30
0.0
 11
164.042
 21
35.0352
 31
0.0
  0
LINE
  8
0
 62
     0
 10
164.042
 20
35.0352
 30
0.0
 11
164.042
 21
35.2778
 31
0.0
  0
LINE
  8
0
 62
     0
 10
164.042
 20
35.2778
 30
0.0
 11
164.042
 21
37.0417
 31
0.0
  0
LINE
  8
0
 62
     0
 10
164.042
 20
37.0417
 30
0.0
 11
162.278
 21
37.0417
 31
0.0
  0
LINE
  8
0
 62
     0
 10
162.278
 20
37.0417
 30
0.0
 11
162.034
 21
37.0417
 31
0.0
  0
LINE
  8
0
 62
     0
 10
162.034
 20
37.0417
 30
0.0
 11
161.302
 21
37.0664
 31
0.0
  0
LINE
  8
0
 62
     0
 10
161.302
 20
37.0664
 30
0.0
 11
160.773
 21
37.1796
 31
0.0
  0
LINE
  8
0
 62
     0
 10
160.773
 20
37.1796
 30
0.0
 11
160.555
 21
37.4442
 31
0.0
  0
LINE
  8
0
 62
     0
 10
160.555
 20
37.4442
 30
0.0
 11
160.514
 21
37.8037
 31
0.0
  0
LINE
  8
0
 62
     0
 10
160.514
 20
37.8037
 30
0.0
 11
160.514
 21
37.9236
 31
0.0
  0
LINE
  8
0
 62
     0
 10
160.514
 20
37.9236
 30
0.0
 11
160.514
 21
38.045
 31
0.0
  0
LINE
  8
0
 62
     0
 10
160.514
 20
38.045
 30
0.0
 11
160.471
 21
38.4044
 31
0.0
  0
LINE
  8
0
 62
     0
 10
160.471
 20
38.4044
 30
0.0
 11
160.254
 21
38.669
 31
0.0
  0
LINE
  8
0
 62
     0
 10
160.254
 20
38.669
 30
0.0
 11
159.724
 21
38.7823
 31
0.0
  0
LINE
  8
0
 62
     0
 10
159.724
 20
38.7823
 30
0.0
 11
158.993
 21
38.8056
 31
0.0
  0
LINE
  8
0
 62
     0
 10
158.993
 20
38.8056
 30
0.0
 11
158.75
 21
38.8056
 31
0.0
  0
LINE
  8
0
 62
     0
 10
158.75
 20
38.8056
 30
0.0
 11
158.506
 21
38.8056
 31
0.0
  0
LINE
  8
0
 62
     0
 10
158.506
 20
38.8056
 30
0.0
 11
157.774
 21
38.8303
 31
0.0
  0
LINE
  8
0
 62
     0
 10
157.774
 20
38.8303
 30
0.0
 11
157.245
 21
38.9435
 31
0.0
  0
LINE
  8
0
 62
     0
 10
157.245
 20
38.9435
 30
0.0
 11
157.027
 21
39.2081
 31
0.0
  0
LINE
  8
0
 62
     0
 10
157.027
 20
39.2081
 30
0.0
 11
156.986
 21
39.5676
 31
0.0
  0
LINE
  8
0
 62
     0
 10
156.986
 20
39.5676
 30
0.0
 11
156.986
 21
39.6875
 31
0.0
  0
LINE
  8
0
 62
     0
 10
156.986
 20
39.6875
 30
0.0
 11
156.986
 21
39.8089
 31
0.0
  0
LINE
  8
0
 62
     0
 10
156.986
 20
39.8089
 30
0.0
 11
156.943
 21
40.1683
 31
0.0
  0
LINE
  8
0
 62
     0
 10
156.943
 20
40.1683
 30
0.0
 11
156.726
 21
40.4329
 31
0.0
  0
LINE
  8
0
 62
     0
 10
156.726
 20
40.4329
 30
0.0
 11
156.197
 21
40.5462
 31
0.0
  0
LINE
  8
0
 62
     0
 10
156.197
 20
40.5462
 30
0.0
 11
155.465
 21
40.5694
 31
0.0
  0
LINE
  8
0
 62
     0
 10
155.465
 20
40.5694
 30
0.0
 11
155.222
 21
40.5694
 31
0.0
  0
LINE
  8
0
 62
     0
 10
155.222
 20
40.5694
 30
0.0
 11
154.978
 21
40.5694
 31
0.0
  0
LINE
  8
0
 62
     0
 10
154.978
 20
40.5694
 30
0.0
 11
154.246
 21
40.5941
 31
0.0
  0
LINE
  8
0
 62
     0
 10
154.246
 20
40.5941
 30
0.0
 11
153.717
 21
40.7074
 31
0.0
  0
LINE
  8
0
 62
     0
 10
153.717
 20
40.7074
 30
0.0
 11
153.5
 21
40.972
 31
0.0
  0
LINE
  8
0
 62
     0
 10
153.5
 20
40.972
 30
0.0
 11
153.458
 21
41.3314
 31
0.0
  0
LINE
  8
0
 62
     0
 10
153.458
 20
41.3314
 30
0.0
 11
153.458
 21
41.4514
 31
0.0
  0
LINE
  8
0
 62
     0
 10
153.458
 20
41.4514
 30
0.0
 11
153.458
 21
42.3333
 31
0.0
  0
LINE
  8
0
 62
     0
 10
153.458
 20
42.3333
 30
0.0
 11
128.764
 21
42.3333
 31
0.0
  0
LINE
  8
0
 62
     0
 10
128.764
 20
42.3333
 30
0.0
 11
128.764
 21
43.2153
 31
0.0
  0
LINE
  8
0
 62
     0
 10
128.764
 20
43.2153
 30
0.0
 11
128.764
 21
43.3366
 31
0.0
  0
LINE
  8
0
 62
     0
 10
128.764
 20
43.3366
 30
0.0
 11
128.721
 21
43.6961
 31
0.0
  0
LINE
  8
0
 62
     0
 10
128.721
 20
43.6961
 30
0.0
 11
128.504
 21
43.9607
 31
0.0
  0
LINE
  8
0
 62
     0
 10
128.504
 20
43.9607
 30
0.0
 11
127.974
 21
44.0739
 31
0.0
  0
LINE
  8
0
 62
     0
 10
127.974
 20
44.0739
 30
0.0
 11
127.243
 21
44.0972
 31
0.0
  0
LINE
  8
0
 62
     0
 10
127.243
 20
44.0972
 30
0.0
 11
127
 21
44.0972
 31
0.0
  0
LINE
  8
0
 62
     0
 10
127
 20
44.0972
 30
0.0
 11
126.756
 21
44.0972
 31
0.0
  0
LINE
  8
0
 62
     0
 10
126.756
 20
44.0972
 30
0.0
 11
126.024
 21
44.1219
 31
0.0
  0
LINE
  8
0
 62
     0
 10
126.024
 20
44.1219
 30
0.0
 11
125.495
 21
44.2352
 31
0.0
  0
LINE
  8
0
 62
     0
 10
125.495
 20
44.2352
 30
0.0
 11
125.277
 21
44.4997
 31
0.0
  0
LINE
  8
0
 62
     0
 10
125.277
 20
44.4997
 30
0.0
 11
125.236
 21
44.8592
 31
0.0
  0
LINE
  8
0
 62
     0
 10
125.236
 20
44.8592
 30
0.0
 11
125.236
 21
44.9792
 31
0.0
  0
LINE
  8
0
 62
     0
 10
125.236
 20
44.9792
 30
0.0
 11
125.236
 21
45.1005
 31
0.0
  0
LINE
  8
0
 62
     0
 10
125.236
 20
45.1005
 30
0.0
 11
125.193
 21
45.46
 31
0.0
  0
LINE
  8
0
 62
     0
 10
125.193
 20
45.46
 30
0.0
 11
124.976
 21
45.7246
 31
0.0
  0
LINE
  8
0
 62
     0
 10
124.976
 20
45.7246
 30
0.0
 11
124.447
 21
45.8378
 31
0.0
  0
LINE
  8
0
 62
     0
 10
124.447
 20
45.8378
 30
0.0
 11
123.715
 21
45.8611
 31
0.0
  0
LINE
  8
0
 62
     0
 10
123.715
 20
45.8611
 30
0.0
 11
123.472
 21
45.8611
 31
0.0
  0
LINE
  8
0
 62
     0
 10
123.472
 20
45.8611
 30
0.0
 11
123.228
 21
45.8611
 31
0.0
  0
LINE
  8
0
 62
     0
 10
123.228
 20
45.8611
 30
0.0
 11
122.496
 21
45.8858
 31
0.0
  0
LINE
  8
0
 62
     0
 10
122.496
 20
45.8858
 30
0.0
 11
121.967
 21
45.999
 31
0.0
  0
LINE
  8
0
 62
     0
 10
121.967
 20
45.999
 30
0.0
 11
121.75
 21
46.2636
 31
0.0
  0
LINE
  8
0
 62
     0
 10
121.75
 20
46.2636
 30
0.0
 11
121.708
 21
46.6231
 31
0.0
  0
LINE
  8
0
 62
     0
 10
121.708
 20
46.6231
 30
0.0
 11
121.708
 21
46.7431
 31
0.0
  0
LINE
  8
0
 62
     0
 10
121.708
 20
46.7431
 30
0.0
 11
121.708
 21
46.8644
 31
0.0
  0
LINE
  8
0
 62
     0
 10
121.708
 20
46.8644
 30
0.0
 11
121.666
 21
47.2239
 31
0.0
  0
LINE
  8
0
 62
     0
 10
121.666
 20
47.2239
 30
0.0
 11
121.448
 21
47.4885
 31
0.0
  0
LINE
  8
0
 62
     0
 10
121.448
 20
47.4885
 30
0.0
 11
120.919
 21
47.6017
 31
0.0
  0
LINE
  8
0
 62
     0
 10
120.919
 20
47.6017
 30
0.0
 11
120.187
 21
47.625
 31
0.0
  0
LINE
  8
0
 62
     0
 10
120.187
 20
47.625
 30
0.0
 11
119.944
 21
47.625
 31
0.0
  0
LINE
  8
0
 62
     0
 10
119.944
 20
47.625
 30
0.0
 11
119.701
 21
47.625
 31
0.0
  0
LINE
  8
0
 62
     0
 10
119.701
 20
47.625
 30
0.0
 11
118.969
 21
47.6497
 31
0.0
  0
LINE
  8
0
 62
     0
 10
118.969
 20
47.6497
 30
0.0
 11
118.439
 21
47.7629
 31
0.0
  0
LINE
  8
0
 62
     0
 10
118.439
 20
47.7629
 30
0.0
 11
118.222
 21
48.0275
 31
0.0
  0
LINE
  8
0
 62
     0
 10
118.222
 20
48.0275
 30
0.0
 11
118.181
 21
48.387
 31
0.0
  0
LINE
  8
0
 62
     0
 10
118.181
 20
48.387
 30
0.0
 11
118.181
 21
48.5069
 31
0.0
  0
LINE
  8
0
 62
     0
 10
118.181
 20
48.5069
 30
0.0
 11
118.181
 21
48.6283
 31
0.0
  0
LINE
  8
0
 62
     0
 10
118.181
 20
48.6283
 30
0.0
 11
118.138
 21
48.9878
 31
0.0
  0
LINE
  8
0
 62
     0
 10
118.138
 20
48.9878
 30
0.0
 11
117.92
 21
49.2524
 31
0.0
  0
LINE
  8
0
 62
     0
 10
117.92
 20
49.2524
 30
0.0
 11
117.391
 21
49.3656
 31
0.0
  0
LINE
  8
0
 62
     0
 10
117.391
 20
49.3656
 30
0.0
 11
116.659
 21
49.3889
 31
0.0
  0
LINE
  8
0
 62
     0
 10
116.659
 20
49.3889
 30
0.0
 11
116.417
 21
49.3889
 31
0.0
  0
LINE
  8
0
 62
     0
 10
116.417
 20
49.3889
 30
0.0
 11
116.173
 21
49.3889
 31
0.0
  0
LINE
  8
0
 62
     0
 10
116.173
 20
49.3889
 30
0.0
 11
115.441
 21
49.4136
 31
0.0
  0
LINE
  8
0
 62
     0
 10
115.441
 20
49.4136
 30
0.0
 11
114.912
 21
49.5268
 31
0.0
  0
LINE
  8
0
 62
     0
 10
114.912
 20
49.5268
 30
0.0
 11
114.694
 21
49.7914
 31
0.0
  0
LINE
  8
0
 62
     0
 10
114.694
 20
49.7914
 30
0.0
 11
114.653
 21
50.1509
 31
0.0
  0
LINE
  8
0
 62
     0
 10
114.653
 20
50.1509
 30
0.0
 11
114.653
 21
50.2708
 31
0.0
  0
LINE
  8
0
 62
     0
 10
114.653
 20
50.2708
 30
0.0
 11
114.653
 21
50.3922
 31
0.0
  0
LINE
  8
0
 62
     0
 10
114.653
 20
50.3922
 30
0.0
 11
114.61
 21
50.7517
 31
0.0
  0
LINE
  8
0
 62
     0
 10
114.61
 20
50.7517
 30
0.0
 11
114.392
 21
51.0163
 31
0.0
  0
LINE
  8
0
 62
     0
 10
114.392
 20
51.0163
 30
0.0
 11
113.863
 21
51.1295
 31
0.0
  0
LINE
  8
0
 62
     0
 10
113.863
 20
51.1295
 30
0.0
 11
113.132
 21
51.1528
 31
0.0
  0
LINE
  8
0
 62
     0
 10
113.132
 20
51.1528
 30
0.0
 11
112.889
 21
51.1528
 31
0.0
  0
LINE
  8
0
 62
     0
 10
112.889
 20
51.1528
 30
0.0
 11
112.645
 21
51.1528
 31
0.0
  0
LINE
  8
0
 62
     0
 10
112.645
 20
51.1528
 30
0.0
 11
111.913
 21
51.1775
 31
0.0
  0
LINE
  8
0
 62
     0
 10
111.913
 20
51.1775
 30
0.0
 11
111.384
 21
51.2907
 31
0.0
  0
LINE
  8
0
 62
     0
 10
111.384
 20
51.2907
 30
0.0
 11
111.166
 21
51.5553
 31
0.0
  0
LINE
  8
0
 62
     0
 10
111.166
 20
51.5553
 30
0.0
 11
111.125
 21
51.9148
 31
0.0
  0
LINE
  8
0
 62
     0
 10
111.125
 20
51.9148
 30
0.0
 11
111.125
 21
52.0347
 31
0.0
  0
LINE
  8
0
 62
     0
 10
111.125
 20
52.0347
 30
0.0
 11
111.125
 21
52.1561
 31
0.0
  0
LINE
  8
0
 62
     0
 10
111.125
 20
52.1561
 30
0.0
 11
111.082
 21
52.5156
 31
0.0
  0
LINE
  8
0
 62
     0
 10
111.082
 20
52.5156
 30
0.0
 11
110.865
 21
52.7801
 31
0.0
  0
LINE
  8
0
 62
     0
 10
110.865
 20
52.7801
 30
0.0
 11
110.335
 21
52.8934
 31
0.0
  0
LINE
  8
0
 62
     0
 10
110.335
 20
52.8934
 30
0.0
 11
109.604
 21
52.9167
 31
0.0
  0
LINE
  8
0
 62
     0
 10
109.604
 20
52.9167
 30
0.0
 11
109.361
 21
52.9167
 31
0.0
  0
LINE
  8
0
 62
     0
 10
109.361
 20
52.9167
 30
0.0
 11
109.117
 21
52.9167
 31
0.0
  0
LINE
  8
0
 62
     0
 10
109.117
 20
52.9167
 30
0.0
 11
108.385
 21
52.9414
 31
0.0
  0
LINE
  8
0
 62
     0
 10
108.385
 20
52.9414
 30
0.0
 11
107.856
 21
53.0546
 31
0.0
  0
LINE
  8
0
 62
     0
 10
107.856
 20
53.0546
 30
0.0
 11
107.638
 21
53.3192
 31
0.0
  0
LINE
  8
0
 62
     0
 10
107.638
 20
53.3192
 30
0.0
 11
107.597
 21
53.6787
 31
0.0
  0
LINE
  8
0
 62
     0
 10
107.597
 20
53.6787
 30
0.0
 11
107.597
 21
53.7986
 31
0.0
  0
LINE
  8
0
 62
     0
 10
107.597
 20
53.7986
 30
0.0
 11
107.597
 21
54.6806
 31
0.0
  0
LINE
  8
0
 62
     0
 10
107.597
 20
54.6806
 30
0.0
 11
118.181
 21
54.6806
 31
0.0
  0
LINE
  8
0
 62
     0
 10
118.181
 20
54.6806
 30
0.0
 11
118.181
 21
55.5625
 31
0.0
  0
LINE
  8
0
 62
     0
 10
118.181
 20
55.5625
 30
0.0
 11
118.181
 21
55.6715
 31
0.0
  0
LINE
  8
0
 62
     0
 10
118.181
 20
55.6715
 30
0.0
 11
118.219
 21
55.9978
 31
0.0
  0
LINE
  8
0
 62
     0
 10
118.219
 20
55.9978
 30
0.0
 11
118.357
 21
56.2681
 31
0.0
  0
LINE
  8
0
 62
     0
 10
118.357
 20
56.2681
 30
0.0
 11
118.627
 21
56.406
 31
0.0
  0
LINE
  8
0
 62
     0
 10
118.627
 20
56.406
 30
0.0
 11
118.953
 21
56.4444
 31
0.0
  0
LINE
  8
0
 62
     0
 10
118.953
 20
56.4444
 30
0.0
 11
119.063
 21
56.4444
 31
0.0
  0
LINE
  8
0
 62
     0
 10
119.063
 20
56.4444
 30
0.0
 11
119.172
 21
56.4444
 31
0.0
  0
LINE
  8
0
 62
     0
 10
119.172
 20
56.4444
 30
0.0
 11
119.498
 21
56.4829
 31
0.0
  0
LINE
  8
0
 62
     0
 10
119.498
 20
56.4829
 30
0.0
 11
119.768
 21
56.6208
 31
0.0
  0
LINE
  8
0
 62
     0
 10
119.768
 20
56.6208
 30
0.0
 11
119.906
 21
56.8911
 31
0.0
  0
LINE
  8
0
 62
     0
 10
119.906
 20
56.8911
 30
0.0
 11
119.944
 21
57.2174
 31
0.0
  0
LINE
  8
0
 62
     0
 10
119.944
 20
57.2174
 30
0.0
 11
119.944
 21
57.3264
 31
0.0
  0
LINE
  8
0
 62
     0
 10
119.944
 20
57.3264
 30
0.0
 11
119.944
 21
57.4354
 31
0.0
  0
LINE
  8
0
 62
     0
 10
119.944
 20
57.4354
 30
0.0
 11
119.983
 21
57.7617
 31
0.0
  0
LINE
  8
0
 62
     0
 10
119.983
 20
57.7617
 30
0.0
 11
120.121
 21
58.0319
 31
0.0
  0
LINE
  8
0
 62
     0
 10
120.121
 20
58.0319
 30
0.0
 11
120.391
 21
58.1699
 31
0.0
  0
LINE
  8
0
 62
     0
 10
120.391
 20
58.1699
 30
0.0
 11
120.717
 21
58.2083
 31
0.0
  0
LINE
  8
0
 62
     0
 10
120.717
 20
58.2083
 30
0.0
 11
120.826
 21
58.2083
 31
0.0
  0
LINE
  8
0
 62
     0
 10
120.826
 20
58.2083
 30
0.0
 11
121.708
 21
58.2083
 31
0.0
  0
LINE
  8
0
 62
     0
 10
121.708
 20
58.2083
 30
0.0
 11
121.708
 21
67.0278
 31
0.0
  0
LINE
  8
0
 62
     0
 10
121.708
 20
67.0278
 30
0.0
 11
122.59
 21
67.0278
 31
0.0
  0
LINE
  8
0
 62
     0
 10
122.59
 20
67.0278
 30
0.0
 11
122.71
 21
67.0278
 31
0.0
  0
LINE
  8
0
 62
     0
 10
122.71
 20
67.0278
 30
0.0
 11
123.07
 21
67.0705
 31
0.0
  0
LINE
  8
0
 62
     0
 10
123.07
 20
67.0705
 30
0.0
 11
123.334
 21
67.2881
 31
0.0
  0
LINE
  8
0
 62
     0
 10
123.334
 20
67.2881
 30
0.0
 11
123.448
 21
67.8173
 31
0.0
  0
LINE
  8
0
 62
     0
 10
123.448
 20
67.8173
 30
0.0
 11
123.472
 21
68.5493
 31
0.0
  0
LINE
  8
0
 62
     0
 10
123.472
 20
68.5493
 30
0.0
 11
123.472
 21
68.7917
 31
0.0
  0
LINE
  8
0
 62
     0
 10
123.472
 20
68.7917
 30
0.0
 11
123.472
 21
69.0354
 31
0.0
  0
LINE
  8
0
 62
     0
 10
123.472
 20
69.0354
 30
0.0
 11
123.448
 21
69.7675
 31
0.0
  0
LINE
  8
0
 62
     0
 10
123.448
 20
69.7675
 30
0.0
 11
123.334
 21
70.2966
 31
0.0
  0
LINE
  8
0
 62
     0
 10
123.334
 20
70.2966
 30
0.0
 11
123.07
 21
70.5143
 31
0.0
  0
LINE
  8
0
 62
     0
 10
123.07
 20
70.5143
 30
0.0
 11
122.71
 21
70.5556
 31
0.0
  0
LINE
  8
0
 62
     0
 10
122.71
 20
70.5556
 30
0.0
 11
122.59
 21
70.5556
 31
0.0
  0
LINE
  8
0
 62
     0
 10
122.59
 20
70.5556
 30
0.0
 11
122.481
 21
70.5556
 31
0.0
  0
LINE
  8
0
 62
     0
 10
122.481
 20
70.5556
 30
0.0
 11
122.155
 21
70.594
 31
0.0
  0
LINE
  8
0
 62
     0
 10
122.155
 20
70.594
 30
0.0
 11
121.885
 21
70.7319
 31
0.0
  0
LINE
  8
0
 62
     0
 10
121.885
 20
70.7319
 30
0.0
 11
121.747
 21
71.0022
 31
0.0
  0
LINE
  8
0
 62
     0
 10
121.747
 20
71.0022
 30
0.0
 11
121.708
 21
71.3285
 31
0.0
  0
LINE
  8
0
 62
     0
 10
121.708
 20
71.3285
 30
0.0
 11
121.708
 21
71.4375
 31
0.0
  0
LINE
  8
0
 62
     0
 10
121.708
 20
71.4375
 30
0.0
 11
121.708
 21
71.5465
 31
0.0
  0
LINE
  8
0
 62
     0
 10
121.708
 20
71.5465
 30
0.0
 11
121.747
 21
71.8728
 31
0.0
  0
LINE
  8
0
 62
     0
 10
121.747
 20
71.8728
 30
0.0
 11
121.885
 21
72.1431
 31
0.0
  0
LINE
  8
0
 62
     0
 10
121.885
 20
72.1431
 30
0.0
 11
122.155
 21
72.281
 31
0.0
  0
LINE
  8
0
 62
     0
 10
122.155
 20
72.281
 30
0.0
 11
122.481
 21
72.3194
 31
0.0
  0
LINE
  8
0
 62
     0
 10
122.481
 20
72.3194
 30
0.0
 11
122.59
 21
72.3194
 31
0.0
  0
LINE
  8
0
 62
     0
 10
122.59
 20
72.3194
 30
0.0
 11
123.472
 21
72.3194
 31
0.0
  0
LINE
  8
0
 62
     0
 10
123.472
 20
72.3194
 30
0.0
 11
123.472
 21
82.9028
 31
0.0
  0
LINE
  8
0
 62
     0
 10
123.472
 20
82.9028
 30
0.0
 11
124.354
 21
82.9028
 31
0.0
  0
LINE
  8
0
 62
     0
 10
124.354
 20
82.9028
 30
0.0
 11
124.474
 21
82.9028
 31
0.0
  0
LINE
  8
0
 62
     0
 10
124.474
 20
82.9028
 30
0.0
 11
124.834
 21
82.9455
 31
0.0
  0
LINE
  8
0
 62
     0
 10
124.834
 20
82.9455
 30
0.0
 11
125.098
 21
83.1631
 31
0.0
  0
LINE
  8
0
 62
     0
 10
125.098
 20
83.1631
 30
0.0
 11
125.211
 21
83.6923
 31
0.0
  0
LINE
  8
0
 62
     0
 10
125.211
 20
83.6923
 30
0.0
 11
125.236
 21
84.4243
 31
0.0
  0
LINE
  8
0
 62
     0
 10
125.236
 20
84.4243
 30
0.0
 11
125.236
 21
84.6667
 31
0.0
  0
LINE
  8
0
 62
     0
 10
125.236
 20
84.6667
 30
0.0
 11
125.236
 21
84.9104
 31
0.0
  0
LINE
  8
0
 62
     0
 10
125.236
 20
84.9104
 30
0.0
 11
125.211
 21
85.6425
 31
0.0
  0
LINE
  8
0
 62
     0
 10
125.211
 20
85.6425
 30
0.0
 11
125.098
 21
86.1716
 31
0.0
  0
LINE
  8
0
 62
     0
 10
125.098
 20
86.1716
 30
0.0
 11
124.834
 21
86.3893
 31
0.0
  0
LINE
  8
0
 62
     0
 10
124.834
 20
86.3893
 30
0.0
 11
124.474
 21
86.4306
 31
0.0
  0
LINE
  8
0
 62
     0
 10
124.474
 20
86.4306
 30
0.0
 11
124.354
 21
86.4306
 31
0.0
  0
LINE
  8
0
 62
     0
 10
124.354
 20
86.4306
 30
0.0
 11
124.245
 21
86.4306
 31
0.0
  0
LINE
  8
0
 62
     0
 10
124.245
 20
86.4306
 30
0.0
 11
123.919
 21
86.469
 31
0.0
  0
LINE
  8
0
 62
     0
 10
123.919
 20
86.469
 30
0.0
 11
123.649
 21
86.6069
 31
0.0
  0
LINE
  8
0
 62
     0
 10
123.649
 20
86.6069
 30
0.0
 11
123.511
 21
86.8772
 31
0.0
  0
LINE
  8
0
 62
     0
 10
123.511
 20
86.8772
 30
0.0
 11
123.472
 21
87.2035
 31
0.0
  0
LINE
  8
0
 62
     0
 10
123.472
 20
87.2035
 30
0.0
 11
123.472
 21
87.3125
 31
0.0
  0
LINE
  8
0
 62
     0
 10
123.472
 20
87.3125
 30
0.0
 11
123.472
 21
87.4215
 31
0.0
  0
LINE
  8
0
 62
     0
 10
123.472
 20
87.4215
 30
0.0
 11
123.434
 21
87.7478
 31
0.0
  0
LINE
  8
0
 62
     0
 10
123.434
 20
87.7478
 30
0.0
 11
123.296
 21
88.0181
 31
0.0
  0
LINE
  8
0
 62
     0
 10
123.296
 20
88.0181
 30
0.0
 11
123.026
 21
88.156
 31
0.0
  0
LINE
  8
0
 62
     0
 10
123.026
 20
88.156
 30
0.0
 11
122.699
 21
88.1944
 31
0.0
  0
LINE
  8
0
 62
     0
 10
122.699
 20
88.1944
 30
0.0
 11
122.59
 21
88.1944
 31
0.0
  0
LINE
  8
0
 62
     0
 10
122.59
 20
88.1944
 30
0.0
 11
122.469
 21
88.1944
 31
0.0
  0
LINE
  8
0
 62
     0
 10
122.469
 20
88.1944
 30
0.0
 11
122.109
 21
88.2371
 31
0.0
  0
LINE
  8
0
 62
     0
 10
122.109
 20
88.2371
 30
0.0
 11
121.845
 21
88.4548
 31
0.0
  0
LINE
  8
0
 62
     0
 10
121.845
 20
88.4548
 30
0.0
 11
121.732
 21
88.984
 31
0.0
  0
LINE
  8
0
 62
     0
 10
121.732
 20
88.984
 30
0.0
 11
121.708
 21
89.716
 31
0.0
  0
LINE
  8
0
 62
     0
 10
121.708
 20
89.716
 30
0.0
 11
121.708
 21
89.9583
 31
0.0
  0
LINE
  8
0
 62
     0
 10
121.708
 20
89.9583
 30
0.0
 11
121.708
 21
90.2021
 31
0.0
  0
LINE
  8
0
 62
     0
 10
121.708
 20
90.2021
 30
0.0
 11
121.732
 21
90.9341
 31
0.0
  0
LINE
  8
0
 62
     0
 10
121.732
 20
90.9341
 30
0.0
 11
121.845
 21
91.4633
 31
0.0
  0
LINE
  8
0
 62
     0
 10
121.845
 20
91.4633
 30
0.0
 11
122.109
 21
91.6809
 31
0.0
  0
LINE
  8
0
 62
     0
 10
122.109
 20
91.6809
 30
0.0
 11
122.469
 21
91.7222
 31
0.0
  0
LINE
  8
0
 62
     0
 10
122.469
 20
91.7222
 30
0.0
 11
122.59
 21
91.7222
 31
0.0
  0
LINE
  8
0
 62
     0
 10
122.59
 20
91.7222
 30
0.0
 11
122.713
 21
91.7222
 31
0.0
  0
LINE
  8
0
 62
     0
 10
122.713
 20
91.7222
 30
0.0
 11
123.085
 21
91.7744
 31
0.0
  0
LINE
  8
0
 62
     0
 10
123.085
 20
91.7744
 30
0.0
 11
123.348
 21
92.0806
 31
0.0
  0
LINE
  8
0
 62
     0
 10
123.348
 20
92.0806
 30
0.0
 11
123.453
 21
92.8688
 31
0.0
  0
LINE
  8
0
 62
     0
 10
123.453
 20
92.8688
 30
0.0
 11
123.472
 21
93.9934
 31
0.0
  0
LINE
  8
0
 62
     0
 10
123.472
 20
93.9934
 30
0.0
 11
123.472
 21
94.3681
 31
0.0
  0
LINE
  8
0
 62
     0
 10
123.472
 20
94.3681
 30
0.0
 11
123.472
 21
94.7441
 31
0.0
  0
LINE
  8
0
 62
     0
 10
123.472
 20
94.7441
 30
0.0
 11
123.453
 21
95.8688
 31
0.0
  0
LINE
  8
0
 62
     0
 10
123.453
 20
95.8688
 30
0.0
 11
123.348
 21
96.6569
 31
0.0
  0
LINE
  8
0
 62
     0
 10
123.348
 20
96.6569
 30
0.0
 11
123.085
 21
96.9627
 31
0.0
  0
LINE
  8
0
 62
     0
 10
123.085
 20
96.9627
 30
0.0
 11
122.713
 21
97.0139
 31
0.0
  0
LINE
  8
0
 62
     0
 10
122.713
 20
97.0139
 30
0.0
 11
122.59
 21
97.0139
 31
0.0
  0
LINE
  8
0
 62
     0
 10
122.59
 20
97.0139
 30
0.0
 11
122.481
 21
97.0139
 31
0.0
  0
LINE
  8
0
 62
     0
 10
122.481
 20
97.0139
 30
0.0
 11
122.155
 21
97.0523
 31
0.0
  0
LINE
  8
0
 62
     0
 10
122.155
 20
97.0523
 30
0.0
 11
121.885
 21
97.1903
 31
0.0
  0
LINE
  8
0
 62
     0
 10
121.885
 20
97.1903
 30
0.0
 11
121.747
 21
97.4605
 31
0.0
  0
LINE
  8
0
 62
     0
 10
121.747
 20
97.4605
 30
0.0
 11
121.708
 21
97.7868
 31
0.0
  0
LINE
  8
0
 62
     0
 10
121.708
 20
97.7868
 30
0.0
 11
121.708
 21
97.8958
 31
0.0
  0
LINE
  8
0
 62
     0
 10
121.708
 20
97.8958
 30
0.0
 11
121.708
 21
98.0048
 31
0.0
  0
LINE
  8
0
 62
     0
 10
121.708
 20
98.0048
 30
0.0
 11
121.747
 21
98.3312
 31
0.0
  0
LINE
  8
0
 62
     0
 10
121.747
 20
98.3312
 30
0.0
 11
121.885
 21
98.6014
 31
0.0
  0
LINE
  8
0
 62
     0
 10
121.885
 20
98.6014
 30
0.0
 11
122.155
 21
98.7393
 31
0.0
  0
LINE
  8
0
 62
     0
 10
122.155
 20
98.7393
 30
0.0
 11
122.481
 21
98.7778
 31
0.0
  0
LINE
  8
0
 62
     0
 10
122.481
 20
98.7778
 30
0.0
 11
122.59
 21
98.7778
 31
0.0
  0
LINE
  8
0
 62
     0
 10
122.59
 20
98.7778
 30
0.0
 11
122.713
 21
98.7778
 31
0.0
  0
LINE
  8
0
 62
     0
 10
122.713
 20
98.7778
 30
0.0
 11
123.085
 21
98.83
 31
0.0
  0
LINE
  8
0
 62
     0
 10
123.085
 20
98.83
 30
0.0
 11
123.348
 21
99.1362
 31
0.0
  0
LINE
  8
0
 62
     0
 10
123.348
 20
99.1362
 30
0.0
 11
123.453
 21
99.9243
 31
0.0
  0
LINE
  8
0
 62
     0
 10
123.453
 20
99.9243
 30
0.0
 11
123.472
 21
101.049
 31
0.0
  0
LINE
  8
0
 62
     0
 10
123.472
 20
101.049
 30
0.0
 11
123.472
 21
101.424
 31
0.0
  0
LINE
  8
0
 62
     0
 10
123.472
 20
101.424
 30
0.0
 11
123.472
 21
104.069
 31
0.0
  0
LINE
  8
0
 62
     0
 10
123.472
 20
104.069
 30
0.0
 11
118.181
 21
104.069
 31
0.0
  0
LINE
  8
0
 62
     0
 10
118.181
 20
104.069
 30
0.0
 11
118.181
 21
105.833
 31
0.0
  0
LINE
  8
0
 62
     0
 10
118.181
 20
105.833
 30
0.0
 11
118.181
 21
106.077
 31
0.0
  0
LINE
  8
0
 62
     0
 10
118.181
 20
106.077
 30
0.0
 11
118.204
 21
106.809
 31
0.0
  0
LINE
  8
0
 62
     0
 10
118.204
 20
106.809
 30
0.0
 11
118.317
 21
107.338
 31
0.0
  0
LINE
  8
0
 62
     0
 10
118.317
 20
107.338
 30
0.0
 11
118.582
 21
107.556
 31
0.0
  0
LINE
  8
0
 62
     0
 10
118.582
 20
107.556
 30
0.0
 11
118.941
 21
107.597
 31
0.0
  0
LINE
  8
0
 62
     0
 10
118.941
 20
107.597
 30
0.0
 11
119.063
 21
107.597
 31
0.0
  0
LINE
  8
0
 62
     0
 10
119.063
 20
107.597
 30
0.0
 11
119.172
 21
107.597
 31
0.0
  0
LINE
  8
0
 62
     0
 10
119.172
 20
107.597
 30
0.0
 11
119.498
 21
107.636
 31
0.0
  0
LINE
  8
0
 62
     0
 10
119.498
 20
107.636
 30
0.0
 11
119.768
 21
107.774
 31
0.0
  0
LINE
  8
0
 62
     0
 10
119.768
 20
107.774
 30
0.0
 11
119.906
 21
108.044
 31
0.0
  0
LINE
  8
0
 62
     0
 10
119.906
 20
108.044
 30
0.0
 11
119.944
 21
108.37
 31
0.0
  0
LINE
  8
0
 62
     0
 10
119.944
 20
108.37
 30
0.0
 11
119.944
 21
108.479
 31
0.0
  0
LINE
  8
0
 62
     0
 10
119.944
 20
108.479
 30
0.0
 11
119.944
 21
108.588
 31
0.0
  0
LINE
  8
0
 62
     0
 10
119.944
 20
108.588
 30
0.0
 11
119.983
 21
108.914
 31
0.0
  0
LINE
  8
0
 62
     0
 10
119.983
 20
108.914
 30
0.0
 11
120.121
 21
109.185
 31
0.0
  0
LINE
  8
0
 62
     0
 10
120.121
 20
109.185
 30
0.0
 11
120.391
 21
109.323
 31
0.0
  0
LINE
  8
0
 62
     0
 10
120.391
 20
109.323
 30
0.0
 11
120.717
 21
109.361
 31
0.0
  0
LINE
  8
0
 62
     0
 10
120.717
 20
109.361
 30
0.0
 11
120.826
 21
109.361
 31
0.0
  0
LINE
  8
0
 62
     0
 10
120.826
 20
109.361
 30
0.0
 11
120.949
 21
109.361
 31
0.0
  0
LINE
  8
0
 62
     0
 10
120.949
 20
109.361
 30
0.0
 11
121.321
 21
109.413
 31
0.0
  0
LINE
  8
0
 62
     0
 10
121.321
 20
109.413
 30
0.0
 11
121.584
 21
109.72
 31
0.0
  0
LINE
  8
0
 62
     0
 10
121.584
 20
109.72
 30
0.0
 11
121.689
 21
110.508
 31
0.0
  0
LINE
  8
0
 62
     0
 10
121.689
 20
110.508
 30
0.0
 11
121.708
 21
111.632
 31
0.0
  0
LINE
  8
0
 62
     0
 10
121.708
 20
111.632
 30
0.0
 11
121.708
 21
112.007
 31
0.0
  0
LINE
  8
0
 62
     0
 10
121.708
 20
112.007
 30
0.0
 11
121.708
 21
112.383
 31
0.0
  0
LINE
  8
0
 62
     0
 10
121.708
 20
112.383
 30
0.0
 11
121.689
 21
113.508
 31
0.0
  0
LINE
  8
0
 62
     0
 10
121.689
 20
113.508
 30
0.0
 11
121.584
 21
114.296
 31
0.0
  0
LINE
  8
0
 62
     0
 10
121.584
 20
114.296
 30
0.0
 11
121.321
 21
114.602
 31
0.0
  0
LINE
  8
0
 62
     0
 10
121.321
 20
114.602
 30
0.0
 11
120.949
 21
114.653
 31
0.0
  0
LINE
  8
0
 62
     0
 10
120.949
 20
114.653
 30
0.0
 11
120.826
 21
114.653
 31
0.0
  0
LINE
  8
0
 62
     0
 10
120.826
 20
114.653
 30
0.0
 11
120.702
 21
114.653
 31
0.0
  0
LINE
  8
0
 62
     0
 10
120.702
 20
114.653
 30
0.0
 11
120.33
 21
114.705
 31
0.0
  0
LINE
  8
0
 62
     0
 10
120.33
 20
114.705
 30
0.0
 11
120.067
 21
115.011
 31
0.0
  0
LINE
  8
0
 62
     0
 10
120.067
 20
115.011
 30
0.0
 11
119.962
 21
115.799
 31
0.0
  0
LINE
  8
0
 62
     0
 10
119.962
 20
115.799
 30
0.0
 11
119.944
 21
116.924
 31
0.0
  0
LINE
  8
0
 62
     0
 10
119.944
 20
116.924
 30
0.0
 11
119.944
 21
117.299
 31
0.0
  0
LINE
  8
0
 62
     0
 10
119.944
 20
117.299
 30
0.0
 11
119.944
 21
117.675
 31
0.0
  0
LINE
  8
0
 62
     0
 10
119.944
 20
117.675
 30
0.0
 11
119.962
 21
118.799
 31
0.0
  0
LINE
  8
0
 62
     0
 10
119.962
 20
118.799
 30
0.0
 11
120.067
 21
119.587
 31
0.0
  0
LINE
  8
0
 62
     0
 10
120.067
 20
119.587
 30
0.0
 11
120.33
 21
119.893
 31
0.0
  0
LINE
  8
0
 62
     0
 10
120.33
 20
119.893
 30
0.0
 11
120.702
 21
119.944
 31
0.0
  0
LINE
  8
0
 62
     0
 10
120.702
 20
119.944
 30
0.0
 11
120.826
 21
119.944
 31
0.0
  0
LINE
  8
0
 62
     0
 10
120.826
 20
119.944
 30
0.0
 11
120.949
 21
119.944
 31
0.0
  0
LINE
  8
0
 62
     0
 10
120.949
 20
119.944
 30
0.0
 11
121.321
 21
119.997
 31
0.0
  0
LINE
  8
0
 62
     0
 10
121.321
 20
119.997
 30
0.0
 11
121.584
 21
120.303
 31
0.0
  0
LINE
  8
0
 62
     0
 10
121.584
 20
120.303
 30
0.0
 11
121.689
 21
121.091
 31
0.0
  0
LINE
  8
0
 62
     0
 10
121.689
 20
121.091
 30
0.0
 11
121.708
 21
122.216
 31
0.0
  0
LINE
  8
0
 62
     0
 10
121.708
 20
122.216
 30
0.0
 11
121.708
 21
122.59
 31
0.0
  0
LINE
  8
0
 62
     0
 10
121.708
 20
122.59
 30
0.0
 11
121.708
 21
125.236
 31
0.0
  0
LINE
  8
0
 62
     0
 10
121.708
 20
125.236
 30
0.0
 11
114.653
 21
125.236
 31
0.0
  0
LINE
  8
0
 62
     0
 10
114.653
 20
125.236
 30
0.0
 11
114.653
 21
135.819
 31
0.0
  0
LINE
  8
0
 62
     0
 10
114.653
 20
135.819
 30
0.0
 11
115.535
 21
135.819
 31
0.0
  0
LINE
  8
0
 62
     0
 10
115.535
 20
135.819
 30
0.0
 11
115.644
 21
135.819
 31
0.0
  0
LINE
  8
0
 62
     0
 10
115.644
 20
135.819
 30
0.0
 11
115.97
 21
135.858
 31
0.0
  0
LINE
  8
0
 62
     0
 10
115.97
 20
135.858
 30
0.0
 11
116.24
 21
135.996
 31
0.0
  0
LINE
  8
0
 62
     0
 10
116.24
 20
135.996
 30
0.0
 11
116.378
 21
136.266
 31
0.0
  0
LINE
  8
0
 62
     0
 10
116.378
 20
136.266
 30
0.0
 11
116.417
 21
136.592
 31
0.0
  0
LINE
  8
0
 62
     0
 10
116.417
 20
136.592
 30
0.0
 11
116.417
 21
136.701
 31
0.0
  0
LINE
  8
0
 62
     0
 10
116.417
 20
136.701
 30
0.0
 11
116.417
 21
137.583
 31
0.0
  0
LINE
  8
0
 62
     0
 10
116.417
 20
137.583
 30
0.0
 11
109.361
 21
137.583
 31
0.0
  0
LINE
  8
0
 62
     0
 10
109.361
 20
137.583
 30
0.0
 11
109.361
 21
136.701
 31
0.0
  0
LINE
  8
0
 62
     0
 10
109.361
 20
136.701
 30
0.0
 11
109.361
 21
136.592
 31
0.0
  0
LINE
  8
0
 62
     0
 10
109.361
 20
136.592
 30
0.0
 11
109.323
 21
136.266
 31
0.0
  0
LINE
  8
0
 62
     0
 10
109.323
 20
136.266
 30
0.0
 11
109.185
 21
135.996
 31
0.0
  0
LINE
  8
0
 62
     0
 10
109.185
 20
135.996
 30
0.0
 11
108.914
 21
135.858
 31
0.0
  0
LINE
  8
0
 62
     0
 10
108.914
 20
135.858
 30
0.0
 11
108.588
 21
135.819
 31
0.0
  0
LINE
  8
0
 62
     0
 10
108.588
 20
135.819
 30
0.0
 11
108.479
 21
135.819
 31
0.0
  0
LINE
  8
0
 62
     0
 10
108.479
 20
135.819
 30
0.0
 11
108.37
 21
135.819
 31
0.0
  0
LINE
  8
0
 62
     0
 10
108.37
 20
135.819
 30
0.0
 11
108.044
 21
135.781
 31
0.0
  0
LINE
  8
0
 62
     0
 10
108.044
 20
135.781
 30
0.0
 11
107.774
 21
135.643
 31
0.0
  0
LINE
  8
0
 62
     0
 10
107.774
 20
135.643
 30
0.0
 11
107.636
 21
135.373
 31
0.0
  0
LINE
  8
0
 62
     0
 10
107.636
 20
135.373
 30
0.0
 11
107.597
 21
135.047
 31
0.0
  0
LINE
  8
0
 62
     0
 10
107.597
 20
135.047
 30
0.0
 11
107.597
 21
134.938
 31
0.0
  0
LINE
  8
0
 62
     0
 10
107.597
 20
134.938
 30
0.0
 11
107.597
 21
134.828
 31
0.0
  0
LINE
  8
0
 62
     0
 10
107.597
 20
134.828
 30
0.0
 11
107.559
 21
134.502
 31
0.0
  0
LINE
  8
0
 62
     0
 10
107.559
 20
134.502
 30
0.0
 11
107.421
 21
134.232
 31
0.0
  0
LINE
  8
0
 62
     0
 10
107.421
 20
134.232
 30
0.0
 11
107.151
 21
134.094
 31
0.0
  0
LINE
  8
0
 62
     0
 10
107.151
 20
134.094
 30
0.0
 11
106.824
 21
134.056
 31
0.0
  0
LINE
  8
0
 62
     0
 10
106.824
 20
134.056
 30
0.0
 11
106.715
 21
134.056
 31
0.0
  0
LINE
  8
0
 62
     0
 10
106.715
 20
134.056
 30
0.0
 11
106.606
 21
134.056
 31
0.0
  0
LINE
  8
0
 62
     0
 10
106.606
 20
134.056
 30
0.0
 11
106.28
 21
134.017
 31
0.0
  0
LINE
  8
0
 62
     0
 10
106.28
 20
134.017
 30
0.0
 11
106.01
 21
133.879
 31
0.0
  0
LINE
  8
0
 62
     0
 10
106.01
 20
133.879
 30
0.0
 11
105.872
 21
133.609
 31
0.0
  0
LINE
  8
0
 62
     0
 10
105.872
 20
133.609
 30
0.0
 11
105.833
 21
133.283
 31
0.0
  0
LINE
  8
0
 62
     0
 10
105.833
 20
133.283
 30
0.0
 11
105.833
 21
133.174
 31
0.0
  0
LINE
  8
0
 62
     0
 10
105.833
 20
133.174
 30
0.0
 11
105.833
 21
133.054
 31
0.0
  0
LINE
  8
0
 62
     0
 10
105.833
 20
133.054
 30
0.0
 11
105.791
 21
132.694
 31
0.0
  0
LINE
  8
0
 62
     0
 10
105.791
 20
132.694
 30
0.0
 11
105.573
 21
132.43
 31
0.0
  0
LINE
  8
0
 62
     0
 10
105.573
 20
132.43
 30
0.0
 11
105.044
 21
132.316
 31
0.0
  0
LINE
  8
0
 62
     0
 10
105.044
 20
132.316
 30
0.0
 11
104.312
 21
132.292
 31
0.0
  0
LINE
  8
0
 62
     0
 10
104.312
 20
132.292
 30
0.0
 11
104.069
 21
132.292
 31
0.0
  0
LINE
  8
0
 62
     0
 10
104.069
 20
132.292
 30
0.0
 11
102.306
 21
132.292
 31
0.0
  0
LINE
  8
0
 62
     0
 10
102.306
 20
132.292
 30
0.0
 11
102.306
 21
134.056
 31
0.0
  0
LINE
  8
0
 62
     0
 10
102.306
 20
134.056
 30
0.0
 11
102.306
 21
134.299
 31
0.0
  0
LINE
  8
0
 62
     0
 10
102.306
 20
134.299
 30
0.0
 11
102.329
 21
135.031
 31
0.0
  0
LINE
  8
0
 62
     0
 10
102.329
 20
135.031
 30
0.0
 11
102.442
 21
135.561
 31
0.0
  0
LINE
  8
0
 62
     0
 10
102.442
 20
135.561
 30
0.0
 11
102.707
 21
135.778
 31
0.0
  0
LINE
  8
0
 62
     0
 10
102.707
 20
135.778
 30
0.0
 11
103.066
 21
135.819
 31
0.0
  0
LINE
  8
0
 62
     0
 10
103.066
 20
135.819
 30
0.0
 11
103.188
 21
135.819
 31
0.0
  0
LINE
  8
0
 62
     0
 10
103.188
 20
135.819
 30
0.0
 11
104.069
 21
135.819
 31
0.0
  0
LINE
  8
0
 62
     0
 10
104.069
 20
135.819
 30
0.0
 11
104.069
 21
142.875
 31
0.0
  0
LINE
  8
0
 62
     0
 10
104.069
 20
142.875
 30
0.0
 11
105.833
 21
142.875
 31
0.0
  0
LINE
  8
0
 62
     0
 10
105.833
 20
142.875
 30
0.0
 11
105.833
 21
151.694
 31
0.0
  0
LINE
  8
0
 62
     0
 10
105.833
 20
151.694
 30
0.0
 11
100.542
 21
151.694
 31
0.0
  0
LINE
  8
0
 62
     0
 10
100.542
 20
151.694
 30
0.0
 11
100.542
 21
162.278
 31
0.0
  0
LINE
  8
0
 62
     0
 10
100.542
 20
162.278
 30
0.0
 11
98.7778
 21
162.278
 31
0.0
  0
LINE
  8
0
 62
     0
 10
98.7778
 20
162.278
 30
0.0
 11
98.534
 21
162.278
 31
0.0
  0
LINE
  8
0
 62
     0
 10
98.534
 20
162.278
 30
0.0
 11
97.802
 21
162.254
 31
0.0
  0
LINE
  8
0
 62
     0
 10
97.802
 20
162.254
 30
0.0
 11
97.2728
 21
162.141
 31
0.0
  0
LINE
  8
0
 62
     0
 10
97.2728
 20
162.141
 30
0.0
 11
97.0552
 21
161.877
 31
0.0
  0
LINE
  8
0
 62
     0
 10
97.0552
 20
161.877
 30
0.0
 11
97.0139
 21
161.517
 31
0.0
  0
LINE
  8
0
 62
     0
 10
97.0139
 20
161.517
 30
0.0
 11
97.0139
 21
161.396
 31
0.0
  0
LINE
  8
0
 62
     0
 10
97.0139
 20
161.396
 30
0.0
 11
97.0139
 21
161.287
 31
0.0
  0
LINE
  8
0
 62
     0
 10
97.0139
 20
161.287
 30
0.0
 11
96.9754
 21
160.961
 31
0.0
  0
LINE
  8
0
 62
     0
 10
96.9754
 20
160.961
 30
0.0
 11
96.8375
 21
160.69
 31
0.0
  0
LINE
  8
0
 62
     0
 10
96.8375
 20
160.69
 30
0.0
 11
96.5673
 21
160.552
 31
0.0
  0
LINE
  8
0
 62
     0
 10
96.5673
 20
160.552
 30
0.0
 11
96.2409
 21
160.514
 31
0.0
  0
LINE
  8
0
 62
     0
 10
96.2409
 20
160.514
 30
0.0
 11
96.1319
 21
160.514
 31
0.0
  0
LINE
  8
0
 62
     0
 10
96.1319
 20
160.514
 30
0.0
 11
96.0229
 21
160.514
 31
0.0
  0
LINE
  8
0
 62
     0
 10
96.0229
 20
160.514
 30
0.0
 11
95.6966
 21
160.475
 31
0.0
  0
LINE
  8
0
 62
     0
 10
95.6966
 20
160.475
 30
0.0
 11
95.4264
 21
160.338
 31
0.0
  0
LINE
  8
0
 62
     0
 10
95.4264
 20
160.338
 30
0.0
 11
95.2885
 21
160.067
 31
0.0
  0
LINE
  8
0
 62
     0
 10
95.2885
 20
160.067
 30
0.0
 11
95.25
 21
159.741
 31
0.0
  0
LINE
  8
0
 62
     0
 10
95.25
 20
159.741
 30
0.0
 11
95.25
 21
159.632
 31
0.0
  0
LINE
  8
0
 62
     0
 10
95.25
 20
159.632
 30
0.0
 11
95.25
 21
159.523
 31
0.0
  0
LINE
  8
0
 62
     0
 10
95.25
 20
159.523
 30
0.0
 11
95.2115
 21
159.197
 31
0.0
  0
LINE
  8
0
 62
     0
 10
95.2115
 20
159.197
 30
0.0
 11
95.0736
 21
158.926
 31
0.0
  0
LINE
  8
0
 62
     0
 10
95.0736
 20
158.926
 30
0.0
 11
94.8034
 21
158.788
 31
0.0
  0
LINE
  8
0
 62
     0
 10
94.8034
 20
158.788
 30
0.0
 11
94.4771
 21
158.75
 31
0.0
  0
LINE
  8
0
 62
     0
 10
94.4771
 20
158.75
 30
0.0
 11
94.3681
 21
158.75
 31
0.0
  0
LINE
  8
0
 62
     0
 10
94.3681
 20
158.75
 30
0.0
 11
94.2591
 21
158.75
 31
0.0
  0
LINE
  8
0
 62
     0
 10
94.2591
 20
158.75
 30
0.0
 11
93.9327
 21
158.712
 31
0.0
  0
LINE
  8
0
 62
     0
 10
93.9327
 20
158.712
 30
0.0
 11
93.6625
 21
158.574
 31
0.0
  0
LINE
  8
0
 62
     0
 10
93.6625
 20
158.574
 30
0.0
 11
93.5246
 21
158.303
 31
0.0
  0
LINE
  8
0
 62
     0
 10
93.5246
 20
158.303
 30
0.0
 11
93.4861
 21
157.977
 31
0.0
  0
LINE
  8
0
 62
     0
 10
93.4861
 20
157.977
 30
0.0
 11
93.4861
 21
157.868
 31
0.0
  0
LINE
  8
0
 62
     0
 10
93.4861
 20
157.868
 30
0.0
 11
93.4861
 21
157.759
 31
0.0
  0
LINE
  8
0
 62
     0
 10
93.4861
 20
157.759
 30
0.0
 11
93.4477
 21
157.433
 31
0.0
  0
LINE
  8
0
 62
     0
 10
93.4477
 20
157.433
 30
0.0
 11
93.3097
 21
157.163
 31
0.0
  0
LINE
  8
0
 62
     0
 10
93.3097
 20
157.163
 30
0.0
 11
93.0395
 21
157.025
 31
0.0
  0
LINE
  8
0
 62
     0
 10
93.0395
 20
157.025
 30
0.0
 11
92.7132
 21
156.986
 31
0.0
  0
LINE
  8
0
 62
     0
 10
92.7132
 20
156.986
 30
0.0
 11
92.6042
 21
156.986
 31
0.0
  0
LINE
  8
0
 62
     0
 10
92.6042
 20
156.986
 30
0.0
 11
92.4952
 21
156.986
 31
0.0
  0
LINE
  8
0
 62
     0
 10
92.4952
 20
156.986
 30
0.0
 11
92.1688
 21
156.948
 31
0.0
  0
LINE
  8
0
 62
     0
 10
92.1688
 20
156.948
 30
0.0
 11
91.8986
 21
156.81
 31
0.0
  0
LINE
  8
0
 62
     0
 10
91.8986
 20
156.81
 30
0.0
 11
91.7607
 21
156.539
 31
0.0
  0
LINE
  8
0
 62
     0
 10
91.7607
 20
156.539
 30
0.0
 11
91.7222
 21
156.213
 31
0.0
  0
LINE
  8
0
 62
     0
 10
91.7222
 20
156.213
 30
0.0
 11
91.7222
 21
156.104
 31
0.0
  0
LINE
  8
0
 62
     0
 10
91.7222
 20
156.104
 30
0.0
 11
91.7222
 21
155.984
 31
0.0
  0
LINE
  8
0
 62
     0
 10
91.7222
 20
155.984
 30
0.0
 11
91.6795
 21
155.625
 31
0.0
  0
LINE
  8
0
 62
     0
 10
91.6795
 20
155.625
 30
0.0
 11
91.4619
 21
155.36
 31
0.0
  0
LINE
  8
0
 62
     0
 10
91.4619
 20
155.36
 30
0.0
 11
90.9327
 21
155.247
 31
0.0
  0
LINE
  8
0
 62
     0
 10
90.9327
 20
155.247
 30
0.0
 11
90.201
 21
155.222
 31
0.0
  0
LINE
  8
0
 62
     0
 10
90.201
 20
155.222
 30
0.0
 11
89.9583
 21
155.222
 31
0.0
  0
LINE
  8
0
 62
     0
 10
89.9583
 20
155.222
 30
0.0
 11
89.7146
 21
155.222
 31
0.0
  0
LINE
  8
0
 62
     0
 10
89.7146
 20
155.222
 30
0.0
 11
88.9825
 21
155.247
 31
0.0
  0
LINE
  8
0
 62
     0
 10
88.9825
 20
155.247
 30
0.0
 11
88.4534
 21
155.36
 31
0.0
  0
LINE
  8
0
 62
     0
 10
88.4534
 20
155.36
 30
0.0
 11
88.2357
 21
155.625
 31
0.0
  0
LINE
  8
0
 62
     0
 10
88.2357
 20
155.625
 30
0.0
 11
88.1944
 21
155.984
 31
0.0
  0
LINE
  8
0
 62
     0
 10
88.1944
 20
155.984
 30
0.0
 11
88.1944
 21
156.104
 31
0.0
  0
LINE
  8
0
 62
     0
 10
88.1944
 20
156.104
 30
0.0
 11
88.1944
 21
156.213
 31
0.0
  0
LINE
  8
0
 62
     0
 10
88.1944
 20
156.213
 30
0.0
 11
88.2329
 21
156.539
 31
0.0
  0
LINE
  8
0
 62
     0
 10
88.2329
 20
156.539
 30
0.0
 11
88.3708
 21
156.81
 31
0.0
  0
LINE
  8
0
 62
     0
 10
88.3708
 20
156.81
 30
0.0
 11
88.6411
 21
156.948
 31
0.0
  0
LINE
  8
0
 62
     0
 10
88.6411
 20
156.948
 30
0.0
 11
88.9674
 21
156.986
 31
0.0
  0
LINE
  8
0
 62
     0
 10
88.9674
 20
156.986
 30
0.0
 11
89.0764
 21
156.986
 31
0.0
  0
LINE
  8
0
 62
     0
 10
89.0764
 20
156.986
 30
0.0
 11
89.9583
 21
156.986
 31
0.0
  0
LINE
  8
0
 62
     0
 10
89.9583
 20
156.986
 30
0.0
 11
89.9583
 21
167.569
 31
0.0
  0
LINE
  8
0
 62
     0
 10
89.9583
 20
167.569
 30
0.0
 11
89.0764
 21
167.569
 31
0.0
  0
LINE
  8
0
 62
     0
 10
89.0764
 20
167.569
 30
0.0
 11
88.9674
 21
167.569
 31
0.0
  0
LINE
  8
0
 62
     0
 10
88.9674
 20
167.569
 30
0.0
 11
88.6411
 21
167.531
 31
0.0
  0
LINE
  8
0
 62
     0
 10
88.6411
 20
167.531
 30
0.0
 11
88.3708
 21
167.393
 31
0.0
  0
LINE
  8
0
 62
     0
 10
88.3708
 20
167.393
 30
0.0
 11
88.2329
 21
167.123
 31
0.0
  0
LINE
  8
0
 62
     0
 10
88.2329
 20
167.123
 30
0.0
 11
88.1944
 21
166.797
 31
0.0
  0
LINE
  8
0
 62
     0
 10
88.1944
 20
166.797
 30
0.0
 11
88.1944
 21
166.688
 31
0.0
  0
LINE
  8
0
 62
     0
 10
88.1944
 20
166.688
 30
0.0
 11
88.1944
 21
166.578
 31
0.0
  0
LINE
  8
0
 62
     0
 10
88.1944
 20
166.578
 30
0.0
 11
88.156
 21
166.252
 31
0.0
  0
LINE
  8
0
 62
     0
 10
88.156
 20
166.252
 30
0.0
 11
88.0181
 21
165.982
 31
0.0
  0
LINE
  8
0
 62
     0
 10
88.0181
 20
165.982
 30
0.0
 11
87.7478
 21
165.844
 31
0.0
  0
LINE
  8
0
 62
     0
 10
87.7478
 20
165.844
 30
0.0
 11
87.4215
 21
165.806
 31
0.0
  0
LINE
  8
0
 62
     0
 10
87.4215
 20
165.806
 30
0.0
 11
87.3125
 21
165.806
 31
0.0
  0
LINE
  8
0
 62
     0
 10
87.3125
 20
165.806
 30
0.0
 11
87.2035
 21
165.806
 31
0.0
  0
LINE
  8
0
 62
     0
 10
87.2035
 20
165.806
 30
0.0
 11
86.8772
 21
165.767
 31
0.0
  0
LINE
  8
0
 62
     0
 10
86.8772
 20
165.767
 30
0.0
 11
86.6069
 21
165.629
 31
0.0
  0
LINE
  8
0
 62
     0
 10
86.6069
 20
165.629
 30
0.0
 11
86.469
 21
165.359
 31
0.0
  0
LINE
  8
0
 62
     0
 10
86.469
 20
165.359
 30
0.0
 11
86.4306
 21
165.033
 31
0.0
  0
LINE
  8
0
 62
     0
 10
86.4306
 20
165.033
 30
0.0
 11
86.4306
 21
164.924
 31
0.0
  0
LINE
  8
0
 62
     0
 10
86.4306
 20
164.924
 30
0.0
 11
86.4306
 21
164.815
 31
0.0
  0
LINE
  8
0
 62
     0
 10
86.4306
 20
164.815
 30
0.0
 11
86.3921
 21
164.488
 31
0.0
  0
LINE
  8
0
 62
     0
 10
86.3921
 20
164.488
 30
0.0
 11
86.2542
 21
164.218
 31
0.0
  0
LINE
  8
0
 62
     0
 10
86.2542
 20
164.218
 30
0.0
 11
85.9839
 21
164.08
 31
0.0
  0
LINE
  8
0
 62
     0
 10
85.9839
 20
164.08
 30
0.0
 11
85.6576
 21
164.042
 31
0.0
  0
LINE
  8
0
 62
     0
 10
85.6576
 20
164.042
 30
0.0
 11
85.5486
 21
164.042
 31
0.0
  0
LINE
  8
0
 62
     0
 10
85.5486
 20
164.042
 30
0.0
 11
85.4396
 21
164.042
 31
0.0
  0
LINE
  8
0
 62
     0
 10
85.4396
 20
164.042
 30
0.0
 11
85.1133
 21
164.003
 31
0.0
  0
LINE
  8
0
 62
     0
 10
85.1133
 20
164.003
 30
0.0
 11
84.8431
 21
163.865
 31
0.0
  0
LINE
  8
0
 62
     0
 10
84.8431
 20
163.865
 30
0.0
 11
84.7051
 21
163.595
 31
0.0
  0
LINE
  8
0
 62
     0
 10
84.7051
 20
163.595
 30
0.0
 11
84.6667
 21
163.269
 31
0.0
  0
LINE
  8
0
 62
     0
 10
84.6667
 20
163.269
 30
0.0
 11
84.6667
 21
163.16
 31
0.0
  0
LINE
  8
0
 62
     0
 10
84.6667
 20
163.16
 30
0.0
 11
84.6667
 21
163.051
 31
0.0
  0
LINE
  8
0
 62
     0
 10
84.6667
 20
163.051
 30
0.0
 11
84.6282
 21
162.724
 31
0.0
  0
LINE
  8
0
 62
     0
 10
84.6282
 20
162.724
 30
0.0
 11
84.4903
 21
162.454
 31
0.0
  0
LINE
  8
0
 62
     0
 10
84.4903
 20
162.454
 30
0.0
 11
84.22
 21
162.316
 31
0.0
  0
LINE
  8
0
 62
     0
 10
84.22
 20
162.316
 30
0.0
 11
83.8937
 21
162.278
 31
0.0
  0
LINE
  8
0
 62
     0
 10
83.8937
 20
162.278
 30
0.0
 11
83.7847
 21
162.278
 31
0.0
  0
LINE
  8
0
 62
     0
 10
83.7847
 20
162.278
 30
0.0
 11
83.6757
 21
162.278
 31
0.0
  0
LINE
  8
0
 62
     0
 10
83.6757
 20
162.278
 30
0.0
 11
83.3494
 21
162.239
 31
0.0
  0
LINE
  8
0
 62
     0
 10
83.3494
 20
162.239
 30
0.0
 11
83.0792
 21
162.101
 31
0.0
  0
LINE
  8
0
 62
     0
 10
83.0792
 20
162.101
 30
0.0
 11
82.9412
 21
161.831
 31
0.0
  0
LINE
  8
0
 62
     0
 10
82.9412
 20
161.831
 30
0.0
 11
82.9028
 21
161.505
 31
0.0
  0
LINE
  8
0
 62
     0
 10
82.9028
 20
161.505
 30
0.0
 11
82.9028
 21
161.396
 31
0.0
  0
LINE
  8
0
 62
     0
 10
82.9028
 20
161.396
 30
0.0
 11
82.9028
 21
161.287
 31
0.0
  0
LINE
  8
0
 62
     0
 10
82.9028
 20
161.287
 30
0.0
 11
82.8643
 21
160.961
 31
0.0
  0
LINE
  8
0
 62
     0
 10
82.8643
 20
160.961
 30
0.0
 11
82.7264
 21
160.69
 31
0.0
  0
LINE
  8
0
 62
     0
 10
82.7264
 20
160.69
 30
0.0
 11
82.4562
 21
160.552
 31
0.0
  0
LINE
  8
0
 62
     0
 10
82.4562
 20
160.552
 30
0.0
 11
82.1298
 21
160.514
 31
0.0
  0
LINE
  8
0
 62
     0
 10
82.1298
 20
160.514
 30
0.0
 11
82.0208
 21
160.514
 31
0.0
  0
LINE
  8
0
 62
     0
 10
82.0208
 20
160.514
 30
0.0
 11
81.9118
 21
160.514
 31
0.0
  0
LINE
  8
0
 62
     0
 10
81.9118
 20
160.514
 30
0.0
 11
81.5855
 21
160.475
 31
0.0
  0
LINE
  8
0
 62
     0
 10
81.5855
 20
160.475
 30
0.0
 11
81.3153
 21
160.338
 31
0.0
  0
LINE
  8
0
 62
     0
 10
81.3153
 20
160.338
 30
0.0
 11
81.1773
 21
160.067
 31
0.0
  0
LINE
  8
0
 62
     0
 10
81.1773
 20
160.067
 30
0.0
 11
81.1389
 21
159.741
 31
0.0
  0
LINE
  8
0
 62
     0
 10
81.1389
 20
159.741
 30
0.0
 11
81.1389
 21
159.632
 31
0.0
  0
LINE
  8
0
 62
     0
 10
81.1389
 20
159.632
 30
0.0
 11
81.1389
 21
159.512
 31
0.0
  0
LINE
  8
0
 62
     0
 10
81.1389
 20
159.512
 30
0.0
 11
81.0962
 21
159.153
 31
0.0
  0
LINE
  8
0
 62
     0
 10
81.0962
 20
159.153
 30
0.0
 11
80.8785
 21
158.888
 31
0.0
  0
LINE
  8
0
 62
     0
 10
80.8785
 20
158.888
 30
0.0
 11
80.3494
 21
158.775
 31
0.0
  0
LINE
  8
0
 62
     0
 10
80.3494
 20
158.775
 30
0.0
 11
79.6177
 21
158.75
 31
0.0
  0
LINE
  8
0
 62
     0
 10
79.6177
 20
158.75
 30
0.0
 11
79.375
 21
158.75
 31
0.0
  0
LINE
  8
0
 62
     0
 10
79.375
 20
158.75
 30
0.0
 11
79.1312
 21
158.75
 31
0.0
  0
LINE
  8
0
 62
     0
 10
79.1312
 20
158.75
 30
0.0
 11
78.3992
 21
158.775
 31
0.0
  0
LINE
  8
0
 62
     0
 10
78.3992
 20
158.775
 30
0.0
 11
77.87
 21
158.888
 31
0.0
  0
LINE
  8
0
 62
     0
 10
77.87
 20
158.888
 30
0.0
 11
77.6524
 21
159.153
 31
0.0
  0
LINE
  8
0
 62
     0
 10
77.6524
 20
159.153
 30
0.0
 11
77.6111
 21
159.512
 31
0.0
  0
LINE
  8
0
 62
     0
 10
77.6111
 20
159.512
 30
0.0
 11
77.6111
 21
159.632
 31
0.0
  0
LINE
  8
0
 62
     0
 10
77.6111
 20
159.632
 30
0.0
 11
77.6111
 21
159.741
 31
0.0
  0
LINE
  8
0
 62
     0
 10
77.6111
 20
159.741
 30
0.0
 11
77.6496
 21
160.067
 31
0.0
  0
LINE
  8
0
 62
     0
 10
77.6496
 20
160.067
 30
0.0
 11
77.7875
 21
160.338
 31
0.0
  0
LINE
  8
0
 62
     0
 10
77.7875
 20
160.338
 30
0.0
 11
78.0577
 21
160.475
 31
0.0
  0
LINE
  8
0
 62
     0
 10
78.0577
 20
160.475
 30
0.0
 11
78.384
 21
160.514
 31
0.0
  0
LINE
  8
0
 62
     0
 10
78.384
 20
160.514
 30
0.0
 11
78.4931
 21
160.514
 31
0.0
  0
LINE
  8
0
 62
     0
 10
78.4931
 20
160.514
 30
0.0
 11
79.375
 21
160.514
 31
0.0
  0
LINE
  8
0
 62
     0
 10
79.375
 20
160.514
 30
0.0
 11
79.375
 21
172.861
 31
0.0
  0
LINE
  8
0
 62
     0
 10
79.375
 20
172.861
 30
0.0
 11
80.2569
 21
172.861
 31
0.0
  0
LINE
  8
0
 62
     0
 10
80.2569
 20
172.861
 30
0.0
 11
80.366
 21
172.861
 31
0.0
  0
LINE
  8
0
 62
     0
 10
80.366
 20
172.861
 30
0.0
 11
80.6923
 21
172.9
 31
0.0
  0
LINE
  8
0
 62
     0
 10
80.6923
 20
172.9
 30
0.0
 11
80.9625
 21
173.038
 31
0.0
  0
LINE
  8
0
 62
     0
 10
80.9625
 20
173.038
 30
0.0
 11
81.1004
 21
173.308
 31
0.0
  0
LINE
  8
0
 62
     0
 10
81.1004
 20
173.308
 30
0.0
 11
81.1389
 21
173.634
 31
0.0
  0
LINE
  8
0
 62
     0
 10
81.1389
 20
173.634
 30
0.0
 11
81.1389
 21
173.743
 31
0.0
  0
LINE
  8
0
 62
     0
 10
81.1389
 20
173.743
 30
0.0
 11
81.1389
 21
173.864
 31
0.0
  0
LINE
  8
0
 62
     0
 10
81.1389
 20
173.864
 30
0.0
 11
81.0962
 21
174.224
 31
0.0
  0
LINE
  8
0
 62
     0
 10
81.0962
 20
174.224
 30
0.0
 11
80.8785
 21
174.488
 31
0.0
  0
LINE
  8
0
 62
     0
 10
80.8785
 20
174.488
 30
0.0
 11
80.3494
 21
174.602
 31
0.0
  0
LINE
  8
0
 62
     0
 10
80.3494
 20
174.602
 30
0.0
 11
79.6177
 21
174.625
 31
0.0
  0
LINE
  8
0
 62
     0
 10
79.6177
 20
174.625
 30
0.0
 11
79.375
 21
174.625
 31
0.0
  0
LINE
  8
0
 62
     0
 10
79.375
 20
174.625
 30
0.0
 11
79.1312
 21
174.625
 31
0.0
  0
LINE
  8
0
 62
     0
 10
79.1312
 20
174.625
 30
0.0
 11
78.3992
 21
174.602
 31
0.0
  0
LINE
  8
0
 62
     0
 10
78.3992
 20
174.602
 30
0.0
 11
77.87
 21
174.488
 31
0.0
  0
LINE
  8
0
 62
     0
 10
77.87
 20
174.488
 30
0.0
 11
77.6524
 21
174.224
 31
0.0
  0
LINE
  8
0
 62
     0
 10
77.6524
 20
174.224
 30
0.0
 11
77.6111
 21
173.864
 31
0.0
  0
LINE
  8
0
 62
     0
 10
77.6111
 20
173.864
 30
0.0
 11
77.6111
 21
173.743
 31
0.0
  0
LINE
  8
0
 62
     0
 10
77.6111
 20
173.743
 30
0.0
 11
77.6111
 21
173.634
 31
0.0
  0
LINE
  8
0
 62
     0
 10
77.6111
 20
173.634
 30
0.0
 11
77.5727
 21
173.308
 31
0.0
  0
LINE
  8
0
 62
     0
 10
77.5727
 20
173.308
 30
0.0
 11
77.4347
 21
173.038
 31
0.0
  0
LINE
  8
0
 62
     0
 10
77.4347
 20
173.038
 30
0.0
 11
77.1645
 21
172.9
 31
0.0
  0
LINE
  8
0
 62
     0
 10
77.1645
 20
172.9
 30
0.0
 11
76.8382
 21
172.861
 31
0.0
  0
LINE
  8
0
 62
     0
 10
76.8382
 20
172.861
 30
0.0
 11
76.7292
 21
172.861
 31
0.0
  0
LINE
  8
0
 62
     0
 10
76.7292
 20
172.861
 30
0.0
 11
76.6078
 21
172.861
 31
0.0
  0
LINE
  8
0
 62
     0
 10
76.6078
 20
172.861
 30
0.0
 11
76.2483
 21
172.82
 31
0.0
  0
LINE
  8
0
 62
     0
 10
76.2483
 20
172.82
 30
0.0
 11
75.9837
 21
172.602
 31
0.0
  0
LINE
  8
0
 62
     0
 10
75.9837
 20
172.602
 30
0.0
 11
75.8705
 21
172.073
 31
0.0
  0
LINE
  8
0
 62
     0
 10
75.8705
 20
172.073
 30
0.0
 11
75.8472
 21
171.341
 31
0.0
  0
LINE
  8
0
 62
     0
 10
75.8472
 20
171.341
 30
0.0
 11
75.8472
 21
171.097
 31
0.0
  0
LINE
  8
0
 62
     0
 10
75.8472
 20
171.097
 30
0.0
 11
75.8472
 21
170.855
 31
0.0
  0
LINE
  8
0
 62
     0
 10
75.8472
 20
170.855
 30
0.0
 11
75.8225
 21
170.123
 31
0.0
  0
LINE
  8
0
 62
     0
 10
75.8225
 20
170.123
 30
0.0
 11
75.7093
 21
169.594
 31
0.0
  0
LINE
  8
0
 62
     0
 10
75.7093
 20
169.594
 30
0.0
 11
75.4447
 21
169.376
 31
0.0
  0
LINE
  8
0
 62
     0
 10
75.4447
 20
169.376
 30
0.0
 11
75.0852
 21
169.333
 31
0.0
  0
LINE
  8
0
 62
     0
 10
75.0852
 20
169.333
 30
0.0
 11
74.9653
 21
169.333
 31
0.0
  0
LINE
  8
0
 62
     0
 10
74.9653
 20
169.333
 30
0.0
 11
74.8563
 21
169.333
 31
0.0
  0
LINE
  8
0
 62
     0
 10
74.8563
 20
169.333
 30
0.0
 11
74.53
 21
169.295
 31
0.0
  0
LINE
  8
0
 62
     0
 10
74.53
 20
169.295
 30
0.0
 11
74.2597
 21
169.157
 31
0.0
  0
LINE
  8
0
 62
     0
 10
74.2597
 20
169.157
 30
0.0
 11
74.1218
 21
168.887
 31
0.0
  0
LINE
  8
0
 62
     0
 10
74.1218
 20
168.887
 30
0.0
 11
74.0833
 21
168.56
 31
0.0
  0
LINE
  8
0
 62
     0
 10
74.0833
 20
168.56
 30
0.0
 11
74.0833
 21
168.451
 31
0.0
  0
LINE
  8
0
 62
     0
 10
74.0833
 20
168.451
 30
0.0
 11
74.0833
 21
168.342
 31
0.0
  0
LINE
  8
0
 62
     0
 10
74.0833
 20
168.342
 30
0.0
 11
74.0449
 21
168.016
 31
0.0
  0
LINE
  8
0
 62
     0
 10
74.0449
 20
168.016
 30
0.0
 11
73.9069
 21
167.746
 31
0.0
  0
LINE
  8
0
 62
     0
 10
73.9069
 20
167.746
 30
0.0
 11
73.6367
 21
167.608
 31
0.0
  0
LINE
  8
0
 62
     0
 10
73.6367
 20
167.608
 30
0.0
 11
73.3104
 21
167.569
 31
0.0
  0
LINE
  8
0
 62
     0
 10
73.3104
 20
167.569
 30
0.0
 11
73.2014
 21
167.569
 31
0.0
  0
LINE
  8
0
 62
     0
 10
73.2014
 20
167.569
 30
0.0
 11
73.0924
 21
167.569
 31
0.0
  0
LINE
  8
0
 62
     0
 10
73.0924
 20
167.569
 30
0.0
 11
72.7661
 21
167.531
 31
0.0
  0
LINE
  8
0
 62
     0
 10
72.7661
 20
167.531
 30
0.0
 11
72.4958
 21
167.393
 31
0.0
  0
LINE
  8
0
 62
     0
 10
72.4958
 20
167.393
 30
0.0
 11
72.3579
 21
167.123
 31
0.0
  0
LINE
  8
0
 62
     0
 10
72.3579
 20
167.123
 30
0.0
 11
72.3194
 21
166.797
 31
0.0
  0
LINE
  8
0
 62
     0
 10
72.3194
 20
166.797
 30
0.0
 11
72.3194
 21
166.688
 31
0.0
  0
LINE
  8
0
 62
     0
 10
72.3194
 20
166.688
 30
0.0
 11
72.3194
 21
166.578
 31
0.0
  0
LINE
  8
0
 62
     0
 10
72.3194
 20
166.578
 30
0.0
 11
72.281
 21
166.252
 31
0.0
  0
LINE
  8
0
 62
     0
 10
72.281
 20
166.252
 30
0.0
 11
72.1431
 21
165.982
 31
0.0
  0
LINE
  8
0
 62
     0
 10
72.1431
 20
165.982
 30
0.0
 11
71.8728
 21
165.844
 31
0.0
  0
LINE
  8
0
 62
     0
 10
71.8728
 20
165.844
 30
0.0
 11
71.5465
 21
165.806
 31
0.0
  0
LINE
  8
0
 62
     0
 10
71.5465
 20
165.806
 30
0.0
 11
71.4375
 21
165.806
 31
0.0
  0
LINE
  8
0
 62
     0
 10
71.4375
 20
165.806
 30
0.0
 11
71.3285
 21
165.806
 31
0.0
  0
LINE
  8
0
 62
     0
 10
71.3285
 20
165.806
 30
0.0
 11
71.0022
 21
165.767
 31
0.0
  0
LINE
  8
0
 62
     0
 10
71.0022
 20
165.767
 30
0.0
 11
70.7319
 21
165.629
 31
0.0
  0
LINE
  8
0
 62
     0
 10
70.7319
 20
165.629
 30
0.0
 11
70.594
 21
165.359
 31
0.0
  0
LINE
  8
0
 62
     0
 10
70.594
 20
165.359
 30
0.0
 11
70.5556
 21
165.033
 31
0.0
  0
LINE
  8
0
 62
     0
 10
70.5556
 20
165.033
 30
0.0
 11
70.5556
 21
164.924
 31
0.0
  0
LINE
  8
0
 62
     0
 10
70.5556
 20
164.924
 30
0.0
 11
70.5556
 21
164.815
 31
0.0
  0
LINE
  8
0
 62
     0
 10
70.5556
 20
164.815
 30
0.0
 11
70.5171
 21
164.488
 31
0.0
  0
LINE
  8
0
 62
     0
 10
70.5171
 20
164.488
 30
0.0
 11
70.3792
 21
164.218
 31
0.0
  0
LINE
  8
0
 62
     0
 10
70.3792
 20
164.218
 30
0.0
 11
70.1089
 21
164.08
 31
0.0
  0
LINE
  8
0
 62
     0
 10
70.1089
 20
164.08
 30
0.0
 11
69.7826
 21
164.042
 31
0.0
  0
LINE
  8
0
 62
     0
 10
69.7826
 20
164.042
 30
0.0
 11
69.6736
 21
164.042
 31
0.0
  0
LINE
  8
0
 62
     0
 10
69.6736
 20
164.042
 30
0.0
 11
69.5494
 21
164.042
 31
0.0
  0
LINE
  8
0
 62
     0
 10
69.5494
 20
164.042
 30
0.0
 11
69.1776
 21
164.094
 31
0.0
  0
LINE
  8
0
 62
     0
 10
69.1776
 20
164.094
 30
0.0
 11
68.9144
 21
164.4
 31
0.0
  0
LINE
  8
0
 62
     0
 10
68.9144
 20
164.4
 30
0.0
 11
68.8097
 21
165.188
 31
0.0
  0
LINE
  8
0
 62
     0
 10
68.8097
 20
165.188
 30
0.0
 11
68.7917
 21
166.313
 31
0.0
  0
LINE
  8
0
 62
     0
 10
68.7917
 20
166.313
 30
0.0
 11
68.7917
 21
166.688
 31
0.0
  0
LINE
  8
0
 62
     0
 10
68.7917
 20
166.688
 30
0.0
 11
68.7917
 21
167.064
 31
0.0
  0
LINE
  8
0
 62
     0
 10
68.7917
 20
167.064
 30
0.0
 11
68.8097
 21
168.188
 31
0.0
  0
LINE
  8
0
 62
     0
 10
68.8097
 20
168.188
 30
0.0
 11
68.9144
 21
168.976
 31
0.0
  0
LINE
  8
0
 62
     0
 10
68.9144
 20
168.976
 30
0.0
 11
69.1776
 21
169.282
 31
0.0
  0
LINE
  8
0
 62
     0
 10
69.1776
 20
169.282
 30
0.0
 11
69.5494
 21
169.333
 31
0.0
  0
LINE
  8
0
 62
     0
 10
69.5494
 20
169.333
 30
0.0
 11
69.6736
 21
169.333
 31
0.0
  0
LINE
  8
0
 62
     0
 10
69.6736
 20
169.333
 30
0.0
 11
70.5556
 21
169.333
 31
0.0
  0
LINE
  8
0
 62
     0
 10
70.5556
 20
169.333
 30
0.0
 11
70.5556
 21
176.389
 31
0.0
  0
LINE
  8
0
 62
     0
 10
70.5556
 20
176.389
 30
0.0
 11
71.4375
 21
176.389
 31
0.0
  0
LINE
  8
0
 62
     0
 10
71.4375
 20
176.389
 30
0.0
 11
71.5465
 21
176.389
 31
0.0
  0
LINE
  8
0
 62
     0
 10
71.5465
 20
176.389
 30
0.0
 11
71.8728
 21
176.427
 31
0.0
  0
LINE
  8
0
 62
     0
 10
71.8728
 20
176.427
 30
0.0
 11
72.1431
 21
176.565
 31
0.0
  0
LINE
  8
0
 62
     0
 10
72.1431
 20
176.565
 30
0.0
 11
72.281
 21
176.836
 31
0.0
  0
LINE
  8
0
 62
     0
 10
72.281
 20
176.836
 30
0.0
 11
72.3194
 21
177.162
 31
0.0
  0
LINE
  8
0
 62
     0
 10
72.3194
 20
177.162
 30
0.0
 11
72.3194
 21
177.271
 31
0.0
  0
LINE
  8
0
 62
     0
 10
72.3194
 20
177.271
 30
0.0
 11
72.3194
 21
177.392
 31
0.0
  0
LINE
  8
0
 62
     0
 10
72.3194
 20
177.392
 30
0.0
 11
72.2768
 21
177.752
 31
0.0
  0
LINE
  8
0
 62
     0
 10
72.2768
 20
177.752
 30
0.0
 11
72.0591
 21
178.016
 31
0.0
  0
LINE
  8
0
 62
     0
 10
72.0591
 20
178.016
 30
0.0
 11
71.5299
 21
178.129
 31
0.0
  0
LINE
  8
0
 62
     0
 10
71.5299
 20
178.129
 30
0.0
 11
70.7983
 21
178.153
 31
0.0
  0
LINE
  8
0
 62
     0
 10
70.7983
 20
178.153
 30
0.0
 11
70.5556
 21
178.153
 31
0.0
  0
LINE
  8
0
 62
     0
 10
70.5556
 20
178.153
 30
0.0
 11
70.3118
 21
178.153
 31
0.0
  0
LINE
  8
0
 62
     0
 10
70.3118
 20
178.153
 30
0.0
 11
69.5798
 21
178.129
 31
0.0
  0
LINE
  8
0
 62
     0
 10
69.5798
 20
178.129
 30
0.0
 11
69.0506
 21
178.016
 31
0.0
  0
LINE
  8
0
 62
     0
 10
69.0506
 20
178.016
 30
0.0
 11
68.8329
 21
177.752
 31
0.0
  0
LINE
  8
0
 62
     0
 10
68.8329
 20
177.752
 30
0.0
 11
68.7917
 21
177.392
 31
0.0
  0
LINE
  8
0
 62
     0
 10
68.7917
 20
177.392
 30
0.0
 11
68.7917
 21
177.271
 31
0.0
  0
LINE
  8
0
 62
     0
 10
107.597
 20
55.5625
 30
0.0
 11
107.597
 21
55.4535
 31
0.0
  0
LINE
  8
0
 62
     0
 10
107.597
 20
55.4535
 30
0.0
 11
107.559
 21
55.1272
 31
0.0
  0
LINE
  8
0
 62
     0
 10
107.559
 20
55.1272
 30
0.0
 11
107.421
 21
54.8569
 31
0.0
  0
LINE
  8
0
 62
     0
 10
107.421
 20
54.8569
 30
0.0
 11
107.151
 21
54.719
 31
0.0
  0
LINE
  8
0
 62
     0
 10
107.151
 20
54.719
 30
0.0
 11
106.824
 21
54.6806
 31
0.0
  0
LINE
  8
0
 62
     0
 10
106.824
 20
54.6806
 30
0.0
 11
106.715
 21
54.6806
 31
0.0
  0
LINE
  8
0
 62
     0
 10
106.715
 20
54.6806
 30
0.0
 11
106.606
 21
54.6806
 31
0.0
  0
LINE
  8
0
 62
     0
 10
106.606
 20
54.6806
 30
0.0
 11
106.28
 21
54.719
 31
0.0
  0
LINE
  8
0
 62
     0
 10
106.28
 20
54.719
 30
0.0
 11
106.01
 21
54.8569
 31
0.0
  0
LINE
  8
0
 62
     0
 10
106.01
 20
54.8569
 30
0.0
 11
105.872
 21
55.1272
 31
0.0
  0
LINE
  8
0
 62
     0
 10
105.872
 20
55.1272
 30
0.0
 11
105.833
 21
55.4535
 31
0.0
  0
LINE
  8
0
 62
     0
 10
105.833
 20
55.4535
 30
0.0
 11
105.833
 21
55.5625
 31
0.0
  0
LINE
  8
0
 62
     0
 10
105.833
 20
55.5625
 30
0.0
 11
105.833
 21
55.6715
 31
0.0
  0
LINE
  8
0
 62
     0
 10
105.833
 20
55.6715
 30
0.0
 11
105.872
 21
55.9978
 31
0.0
  0
LINE
  8
0
 62
     0
 10
105.872
 20
55.9978
 30
0.0
 11
106.01
 21
56.2681
 31
0.0
  0
LINE
  8
0
 62
     0
 10
106.01
 20
56.2681
 30
0.0
 11
106.28
 21
56.406
 31
0.0
  0
LINE
  8
0
 62
     0
 10
106.28
 20
56.406
 30
0.0
 11
106.606
 21
56.4444
 31
0.0
  0
LINE
  8
0
 62
     0
 10
106.606
 20
56.4444
 30
0.0
 11
106.715
 21
56.4444
 31
0.0
  0
LINE
  8
0
 62
     0
 10
106.715
 20
56.4444
 30
0.0
 11
106.824
 21
56.4444
 31
0.0
  0
LINE
  8
0
 62
     0
 10
106.824
 20
56.4444
 30
0.0
 11
107.151
 21
56.406
 31
0.0
  0
LINE
  8
0
 62
     0
 10
107.151
 20
56.406
 30
0.0
 11
107.421
 21
56.2681
 31
0.0
  0
LINE
  8
0
 62
     0
 10
107.421
 20
56.2681
 30
0.0
 11
107.559
 21
55.9978
 31
0.0
  0
LINE
  8
0
 62
     0
 10
107.559
 20
55.9978
 30
0.0
 11
107.597
 21
55.6715
 31
0.0
  0
LINE
  8
0
 62
     0
 10
107.597
 20
55.6715
 30
0.0
 11
107.597
 21
55.5625
 31
0.0
  0
ENDSEC
  0
EOF
